<?xml version="1.0" encoding="UTF-8"?>
<!DOCTYPE svg PUBLIC "-//W3C//DTD SVG 1.1//EN" "http://www.w3.org/Graphics/SVG/1.1/DTD/svg11.dtd">
<svg version="1.1" xmlns="http://www.w3.org/2000/svg" xmlns:xlink="http://www.w3.org/1999/xlink" x="0" y="0" width="106" height="158" viewBox="0, 0, 106, 158">
  <g id="Background">
    <rect x="0" y="0" width="106" height="158" fill="#FFFFFF"/>
  </g>
  <g id="Layer_1">
    <path d="M-0,79 L-0,0 L53,0 L106,0 L106,79 L106,158 L53,158 L-0,158 L-0,79 z M33.949,149.305 C34.682,149.057 35.415,148.56 35.903,148.311 L36.636,147.814 L57.152,147.814 C77.18,147.814 77.668,147.566 78.645,147.318 C79.134,146.821 80.111,146.572 80.355,146.572 C84.018,146.572 85.24,141.355 82.065,139.368 C81.576,139.119 81.088,139.119 80.843,139.119 C80.355,139.119 79.622,138.623 78.889,138.374 L77.424,137.877 L56.664,137.877 C35.903,137.629 35.903,137.629 34.926,137.132 C32.24,135.89 29.553,136.387 27.599,138.623 C24.912,141.107 24.912,145.082 27.599,147.566 C29.309,149.553 31.751,150.05 33.949,149.305 z M78.645,132.412 C79.134,131.915 80.111,131.667 80.355,131.667 C84.018,131.667 85.24,126.45 82.065,124.462 C81.576,124.214 81.088,124.214 80.843,124.214 C80.355,124.214 79.622,123.717 78.889,123.469 C77.424,122.972 77.424,122.972 58.373,122.972 C36.636,122.723 38.834,122.972 38.101,120.487 C37.369,118.003 34.682,116.016 31.995,116.016 C28.576,116.016 25.401,118.997 25.401,122.475 C25.401,125.208 27.599,127.94 30.041,128.686 C31.263,128.934 31.751,129.431 32.972,130.673 C33.949,131.418 34.926,132.164 35.415,132.412 C35.903,132.66 39.323,132.66 56.908,132.66 C77.18,132.66 77.668,132.66 78.645,132.412 z M78.645,117.506 C79.134,117.009 80.111,116.761 80.355,116.761 C84.018,116.761 85.24,111.544 82.065,109.557 L81.332,109.06 L81.332,105.085 C81.332,101.855 81.088,100.862 80.843,100.116 C80.599,99.619 79.134,97.632 77.18,95.893 C75.47,93.906 73.76,92.167 73.76,91.67 C73.272,90.676 72.051,89.186 70.829,88.689 C69.853,88.192 67.899,87.943 66.677,88.44 C65.7,88.689 63.991,88.689 54.71,88.689 L44.207,88.937 L42.742,87.198 L41.032,85.708 L41.032,83.969 C41.032,82.478 41.032,81.981 40.3,81.236 C39.567,79.994 38.346,79.745 35.415,79.248 C32.24,79 32.728,79 29.553,79.248 C28.088,79.497 26.622,79.745 26.134,79.994 C22.959,81.236 22.959,86.453 26.134,87.943 C26.622,88.192 27.599,88.44 28.332,88.44 L29.797,88.44 L34.438,93.16 C37.613,96.142 39.567,98.129 40.3,98.377 C41.032,98.626 42.742,98.874 53,98.874 C63.747,98.874 65.212,98.874 65.945,99.123 C66.433,99.371 67.899,100.613 69.12,101.855 L71.562,104.091 L71.562,106.575 L71.562,109.06 L70.585,109.805 C69.364,110.55 68.631,111.544 68.631,113.035 C68.631,115.022 70.341,117.009 72.295,117.009 C72.783,117.009 73.76,117.009 74.249,117.506 C74.737,117.755 75.714,118.003 76.447,118.003 C77.18,118.003 78.157,117.755 78.645,117.506 z M36.392,72.044 C38.346,71.796 38.834,71.547 39.567,71.05 C41.765,69.311 41.765,65.833 39.567,64.094 C39.078,63.846 38.346,63.349 38.101,63.349 L37.369,63.101 L37.369,50.928 L37.369,39.003 L51.046,39.003 L64.724,38.755 L65.7,39.5 C66.922,40.245 69.608,40.245 70.829,39.5 C71.806,39.003 73.028,37.761 73.516,36.767 C74.249,35.774 74.249,32.792 73.516,31.799 C72.539,29.563 70.829,28.569 68.631,28.569 C67.899,28.569 60.327,28.818 51.779,28.818 C38.346,28.818 36.392,28.818 36.147,28.569 C35.415,28.072 33.705,27.575 32.484,27.575 C29.065,27.575 26.134,30.557 26.134,34.035 C25.889,35.277 26.622,37.264 27.111,37.761 C27.355,38.009 27.599,39.997 27.599,50.431 L27.599,63.101 L26.622,63.349 C23.935,64.343 22.959,68.069 24.668,70.305 C25.401,71.547 26.622,71.796 28.576,72.044 C29.553,72.044 30.53,72.044 30.774,72.292 C31.263,72.292 31.995,72.292 36.392,72.044 z M34.682,19.874 C36.147,19.377 38.101,17.39 38.59,15.899 C39.323,13.415 38.834,10.931 36.88,9.192 C34.438,6.459 30.53,6.459 28.088,9.192 C25.401,11.676 25.401,15.651 28.088,18.135 C29.797,20.123 32.24,20.619 34.682,19.874 z M30.041,145.082 C29.309,144.088 29.309,143.84 29.309,143.094 C29.309,142.349 29.309,142.101 30.041,141.107 C31.018,140.362 31.263,140.362 31.995,140.362 C32.728,140.362 32.972,140.362 33.949,141.107 C34.682,142.101 34.926,142.349 34.926,143.094 C34.926,143.84 34.682,144.088 33.949,145.082 C32.972,145.827 32.728,146.075 31.995,146.075 C31.263,146.075 31.018,145.827 30.041,145.082 z M75.47,144.833 C74.982,144.585 74.737,144.336 74.493,143.84 C73.272,141.604 76.203,139.368 78.157,141.355 C79.134,142.349 78.889,144.088 77.424,144.833 C76.691,145.33 76.203,145.33 75.47,144.833 z M75.47,129.928 C74.982,129.679 74.737,129.431 74.493,128.934 C73.272,126.698 76.203,124.462 78.157,126.45 C79.134,127.443 78.889,129.182 77.424,129.928 C76.691,130.425 76.203,130.425 75.47,129.928 z M30.041,124.462 C29.309,123.469 29.309,123.22 29.309,122.475 C29.309,121.73 29.309,121.481 30.041,120.487 C31.018,119.742 31.263,119.742 31.995,119.742 C32.728,119.742 32.972,119.742 33.949,120.487 C34.682,121.481 34.926,121.73 34.926,122.475 C34.926,123.22 34.682,123.469 33.949,124.462 C32.972,125.208 32.728,125.456 31.995,125.456 C31.263,125.456 31.018,125.208 30.041,124.462 z M75.47,115.022 C74.982,114.774 74.737,114.525 74.493,114.028 C73.272,111.792 76.203,109.557 78.157,111.544 C79.134,112.538 78.889,114.277 77.424,115.022 C76.691,115.519 76.203,115.519 75.47,115.022 z M66.922,96.638 C65.945,95.893 65.212,94.899 65.456,93.906 C65.456,92.415 66.922,90.925 68.387,90.925 C69.853,90.925 71.318,92.415 71.318,93.906 C71.318,95.396 69.853,97.135 68.387,96.887 C67.899,96.887 67.41,96.887 66.922,96.638 z M30.53,85.956 C29.797,84.962 29.797,84.714 29.797,83.969 C29.797,83.223 29.797,82.975 30.53,81.981 C31.995,80.739 32.972,80.739 34.438,81.981 C35.171,82.975 35.415,83.223 35.415,83.969 C35.415,84.714 35.171,84.962 34.438,85.956 C33.461,86.701 33.217,86.95 32.484,86.95 C31.751,86.95 31.507,86.701 30.53,85.956 z M30.53,69.56 C29.797,68.566 29.797,68.318 29.797,67.572 C29.797,66.827 29.797,66.579 30.53,65.585 C31.995,64.343 32.972,64.343 34.438,65.585 C35.171,66.579 35.415,66.827 35.415,67.572 C35.415,68.318 35.171,68.566 34.438,69.56 C33.461,70.305 33.217,70.553 32.484,70.553 C31.751,70.553 31.507,70.305 30.53,69.56 z M66.922,37.016 C65.945,36.27 65.212,35.277 65.456,34.283 C65.456,32.792 66.922,31.302 68.387,31.302 C69.853,31.302 71.318,32.792 71.318,34.283 C71.318,35.774 69.853,37.513 68.387,37.264 C67.899,37.264 67.41,37.264 66.922,37.016 z M30.53,36.022 C29.797,35.028 29.797,34.78 29.797,34.035 C29.797,32.792 31.263,31.302 32.484,31.302 C33.217,31.302 33.461,31.302 34.438,32.047 C35.171,33.041 35.415,33.289 35.415,34.035 C35.415,35.277 33.705,37.016 32.484,37.016 C31.751,37.016 31.507,36.767 30.53,36.022 z M30.53,15.651 C29.797,14.657 29.797,14.409 29.797,13.664 C29.797,12.918 29.797,12.67 30.53,11.676 C31.507,10.931 31.751,10.931 32.484,10.931 C33.217,10.931 33.461,10.931 34.438,11.676 C35.171,12.67 35.415,12.918 35.415,13.664 C35.415,14.409 35.171,14.657 34.438,15.651 C32.972,16.893 31.995,16.893 30.53,15.651 z" fill="#FFFFFF"/>
    <path d="M29.797,149.305 C28.332,148.808 26.378,146.821 25.889,145.33 C25.157,142.846 25.645,140.362 27.599,138.623 C29.553,136.387 32.24,135.89 34.926,137.132 C35.903,137.629 35.903,137.629 56.664,137.877 L77.424,137.877 L78.889,138.374 C79.622,138.623 80.355,139.12 80.843,139.12 C81.576,139.12 82.797,139.865 83.53,140.858 C84.018,141.852 84.018,143.84 83.53,144.833 C82.797,145.827 81.576,146.572 80.355,146.572 C80.111,146.572 79.134,146.821 78.645,147.318 C77.668,147.566 77.18,147.814 57.152,147.814 L36.636,147.814 L35.903,148.311 C34.194,149.553 31.751,150.05 29.797,149.305 z M33.949,145.082 C34.682,144.088 34.926,143.84 34.926,143.094 C34.926,142.349 34.682,142.101 33.949,141.107 C32.972,140.362 32.728,140.362 31.995,140.362 C31.263,140.362 31.018,140.362 30.041,141.107 C29.309,142.101 29.309,142.349 29.309,143.094 C29.309,143.84 29.309,144.088 30.041,145.082 C31.018,145.827 31.263,146.075 31.995,146.075 C32.728,146.075 32.972,145.827 33.949,145.082 z M77.424,144.833 C79.378,143.84 78.889,141.107 76.935,140.61 C75.714,140.362 74.005,141.604 74.249,142.846 C74.249,144.088 75.226,145.082 76.447,145.082 C76.691,145.082 77.18,145.082 77.424,144.833 z M35.415,132.412 C34.926,132.164 33.949,131.418 32.972,130.673 C31.751,129.431 31.263,128.934 30.041,128.686 C27.599,127.94 25.401,125.208 25.401,122.475 C25.401,118.997 28.576,116.016 31.995,116.016 C34.682,116.016 37.369,118.003 38.101,120.487 C38.834,122.972 36.636,122.723 58.373,122.972 C77.424,122.972 77.424,122.972 78.889,123.469 C79.622,123.717 80.355,124.214 80.843,124.214 C81.576,124.214 82.797,124.959 83.53,125.953 C84.018,126.947 84.018,128.934 83.53,129.928 C82.797,130.921 81.576,131.667 80.355,131.667 C80.111,131.667 79.134,131.915 78.645,132.412 C77.668,132.66 77.18,132.66 56.908,132.66 C39.323,132.66 35.903,132.66 35.415,132.412 z M77.424,129.928 C80.111,128.686 78.157,124.711 75.47,125.953 C74.737,126.201 74.005,127.195 74.249,127.94 C74.249,129.182 75.226,130.176 76.447,130.176 C76.691,130.176 77.18,130.176 77.424,129.928 z M33.949,124.462 C34.682,123.469 34.926,123.22 34.926,122.475 C34.926,121.73 34.682,121.481 33.949,120.487 C32.972,119.742 32.728,119.742 31.995,119.742 C31.263,119.742 31.018,119.742 30.041,120.487 C29.309,121.481 29.309,121.73 29.309,122.475 C29.309,123.22 29.309,123.469 30.041,124.462 C31.018,125.208 31.263,125.456 31.995,125.456 C32.728,125.456 32.972,125.208 33.949,124.462 z M74.249,117.506 C73.76,117.009 72.783,117.009 72.295,117.009 C70.341,117.009 68.631,115.022 68.631,113.035 C68.631,111.544 69.364,110.55 70.585,109.805 L71.562,109.06 L71.562,106.575 L71.562,104.091 L69.12,101.855 C67.899,100.613 66.433,99.371 65.945,99.123 C65.212,98.874 63.747,98.874 53,98.874 C42.742,98.874 41.032,98.626 40.3,98.377 C39.567,98.129 37.613,96.142 34.438,93.16 L29.797,88.44 L28.332,88.44 C27.599,88.44 26.622,88.192 26.134,87.943 C22.959,86.453 22.959,81.236 26.134,79.994 C26.622,79.745 28.088,79.497 29.553,79.248 C32.728,79 32.24,79 35.415,79.248 C38.346,79.745 39.567,79.994 40.3,81.236 C41.032,81.981 41.032,82.478 41.032,83.969 L41.032,85.708 L42.742,87.198 L44.207,88.937 L54.71,88.689 C63.991,88.689 65.7,88.689 66.677,88.44 C67.899,87.943 69.853,88.192 70.829,88.689 C72.051,89.186 73.272,90.676 73.76,91.67 C73.76,92.167 75.47,93.906 77.18,95.893 C79.134,97.632 80.599,99.619 80.843,100.116 C81.088,100.862 81.332,101.855 81.332,105.085 L81.332,109.06 L82.065,109.557 C83.286,110.302 83.774,111.544 83.774,113.035 C83.774,115.27 82.309,116.761 80.355,116.761 C80.111,116.761 79.134,117.009 78.645,117.506 C78.157,117.755 77.18,118.003 76.447,118.003 C75.714,118.003 74.737,117.755 74.249,117.506 z M77.424,115.022 C78.889,114.277 79.134,112.538 78.157,111.544 C76.691,110.053 74.005,111.047 74.249,113.035 C74.249,113.78 74.737,114.774 75.47,115.022 C76.203,115.519 76.691,115.519 77.424,115.022 z M69.853,96.638 C70.585,96.142 71.318,94.899 71.318,93.906 C71.318,92.415 69.853,90.925 68.387,90.925 C66.922,90.925 65.456,92.415 65.456,93.906 C65.212,95.396 66.922,96.887 68.387,96.887 C68.631,96.887 69.364,96.887 69.853,96.638 z M34.438,85.956 C35.171,84.962 35.415,84.714 35.415,83.969 C35.415,83.223 35.171,82.975 34.438,81.981 C33.461,81.236 33.217,81.236 32.484,81.236 C31.751,81.236 31.507,81.236 30.53,81.981 C29.797,82.975 29.797,83.223 29.797,83.969 C29.797,84.714 29.797,84.962 30.53,85.956 C31.507,86.701 31.751,86.95 32.484,86.95 C33.217,86.95 33.461,86.701 34.438,85.956 z M30.774,72.292 C30.53,72.044 29.553,72.044 28.576,72.044 C26.622,71.796 25.401,71.547 24.668,70.305 C22.959,68.069 23.935,64.343 26.622,63.349 L27.599,63.101 L27.599,50.431 C27.599,39.997 27.355,38.009 27.111,37.761 C26.622,37.264 25.889,35.277 26.134,34.035 C26.134,30.557 29.065,27.575 32.484,27.575 C33.705,27.575 35.415,28.072 36.147,28.569 C36.392,28.818 38.346,28.818 51.779,28.818 C60.327,28.818 67.899,28.569 68.631,28.569 C70.829,28.569 72.539,29.563 73.516,31.799 C74.249,32.792 74.249,35.774 73.516,36.767 C73.028,37.761 71.806,39.003 70.829,39.5 C69.608,40.245 66.922,40.245 65.7,39.5 L64.724,38.755 L51.046,39.003 L37.369,39.003 L37.369,50.928 L37.369,63.101 L38.101,63.349 C41.276,64.094 42.253,69.063 39.567,71.05 C38.834,71.547 38.346,71.796 36.392,72.044 C31.995,72.292 31.263,72.292 30.774,72.292 z M34.438,69.56 C35.171,68.566 35.415,68.318 35.415,67.572 C35.415,66.827 35.171,66.579 34.438,65.585 C33.461,64.84 33.217,64.84 32.484,64.84 C31.751,64.84 31.507,64.84 30.53,65.585 C29.797,66.579 29.797,66.827 29.797,67.572 C29.797,68.318 29.797,68.566 30.53,69.56 C31.507,70.305 31.751,70.553 32.484,70.553 C33.217,70.553 33.461,70.305 34.438,69.56 z M69.853,37.016 C70.585,36.519 71.318,35.277 71.318,34.283 C71.318,32.792 69.853,31.302 68.387,31.302 C66.922,31.302 65.456,32.792 65.456,34.283 C65.212,35.774 66.922,37.264 68.387,37.264 C68.631,37.264 69.364,37.264 69.853,37.016 z M34.438,36.022 C35.171,35.028 35.415,34.78 35.415,34.035 C35.415,33.289 35.171,33.041 34.438,32.047 C33.461,31.302 33.217,31.302 32.484,31.302 C31.263,31.302 29.797,32.792 29.797,34.035 C29.797,34.78 29.797,35.028 30.53,36.022 C31.507,36.767 31.751,37.016 32.484,37.016 C33.217,37.016 33.461,36.767 34.438,36.022 z M30.286,19.874 C27.843,19.129 26.134,16.148 26.134,13.664 C26.134,10.186 29.065,7.204 32.484,7.204 C34.194,6.956 35.659,7.701 36.88,9.192 C39.567,11.676 39.567,15.651 36.88,18.135 C35.171,20.123 32.728,20.619 30.286,19.874 z M34.438,15.651 C35.171,14.657 35.415,14.409 35.415,13.664 C35.415,12.918 35.171,12.67 34.438,11.676 C33.461,10.931 33.217,10.931 32.484,10.931 C31.751,10.931 31.507,10.931 30.53,11.676 C29.797,12.67 29.797,12.918 29.797,13.664 C29.797,14.409 29.797,14.657 30.53,15.651 C31.995,16.893 32.972,16.893 34.438,15.651 z" fill="#000000"/>
  </g>
</svg>
