<?xml version="1.0" encoding="UTF-8"?>
<!DOCTYPE svg PUBLIC "-//W3C//DTD SVG 1.1//EN" "http://www.w3.org/Graphics/SVG/1.1/DTD/svg11.dtd">
<svg version="1.1" xmlns="http://www.w3.org/2000/svg" xmlns:xlink="http://www.w3.org/1999/xlink" x="0" y="0" width="291" height="472" viewBox="0, 0, 291, 472">
  <g id="Background">
    <rect x="0" y="0" width="291" height="472" fill="#FFFFFF"/>
  </g>
  <g id="Layer_1">
    <path d="M0,236 L0,-0 L145.375,-0 L291,-0 L291,236 L291,472 L145.375,472 L0,472 L0,236 z M49.707,430.837 C51.456,430.089 53.704,428.093 54.203,426.347 C54.953,423.603 54.453,421.108 52.705,419.112 L51.706,417.865 L51.706,384.934 L51.706,352.004 L54.203,352.004 L56.951,352.004 L56.951,344.52 L56.951,337.285 L49.707,337.285 L42.713,337.285 L42.713,339.531 C42.713,341.027 42.464,341.776 42.214,342.524 C41.714,343.273 41.714,344.77 41.714,363.729 L41.464,384.186 L40.715,384.685 C38.967,385.932 38.217,387.679 38.217,390.922 C38.217,393.666 38.717,394.913 40.465,396.66 L41.714,397.907 L41.714,408.634 C41.714,419.362 41.464,419.611 40.965,420.609 C40.215,422.355 40.215,424.351 40.715,426.097 C40.965,427.345 41.464,427.844 42.464,429.091 C44.712,431.087 46.96,431.586 49.707,430.837 z M70.19,430.837 C71.938,430.089 74.186,428.093 74.686,426.347 C75.435,423.852 74.936,421.357 73.437,419.362 L72.937,418.613 L72.937,384.934 L72.937,351.505 L73.687,351.006 C75.185,350.258 76.684,348.262 77.184,346.765 C77.933,344.021 77.433,341.526 75.435,339.281 C71.688,335.789 66.443,336.786 63.945,341.776 L62.946,343.273 L62.946,380.943 L62.696,418.863 L62.197,419.611 C61.447,420.609 60.948,422.605 60.948,423.852 C60.948,425.848 61.447,427.345 62.946,429.091 C65.194,431.087 67.442,431.586 70.19,430.837 z M95.918,429.091 C95.918,427.594 95.918,426.347 96.167,425.848 C96.417,425.099 96.667,422.854 96.667,410.381 L96.667,395.662 L97.916,394.664 C99.664,393.666 100.414,392.169 100.414,389.924 C100.414,387.679 99.664,386.431 97.916,384.685 L96.667,383.438 L96.667,366.224 L96.667,349.26 L97.167,347.763 C98.166,346.017 98.166,344.021 97.666,342.275 C96.667,339.531 93.67,337.285 90.922,337.285 C87.175,337.285 83.928,340.778 83.928,344.52 C83.928,346.017 84.427,348.013 85.676,349.26 L86.676,350.258 L86.676,383.438 L86.676,416.617 L84.178,416.617 L81.68,416.617 L81.68,423.852 L81.68,431.336 L88.674,431.336 L95.918,431.336 L95.918,429.091 z M148.373,260.199 C150.121,259.45 152.369,257.455 152.869,255.708 C153.618,253.214 153.118,250.719 151.62,248.723 L151.12,247.975 L151.12,233.755 L151.12,219.784 L150.371,218.537 L149.871,217.29 L149.871,204.068 L149.871,191.095 L151.62,191.095 L153.618,191.095 L153.618,183.611 L153.618,176.376 L146.374,176.376 L139.38,176.376 L139.38,183.611 C139.38,188.351 139.38,191.095 139.63,191.095 C139.63,191.095 139.88,195.087 139.88,203.07 C139.88,215.044 139.63,215.044 139.13,215.294 C138.381,215.543 137.132,216.791 136.383,218.038 C135.883,219.285 135.633,221.281 136.133,223.027 C136.383,224.524 137.882,226.271 139.63,226.77 L141.129,227.268 L141.129,237.746 L141.129,248.224 L140.379,248.973 C139.63,249.97 139.13,251.717 139.13,253.214 C139.13,255.209 139.63,256.706 141.129,258.452 C143.377,260.448 145.625,260.947 148.373,260.199 z M169.105,260.199 C170.853,259.45 173.101,257.455 173.601,255.708 C174.35,253.214 173.851,250.719 172.352,248.723 L171.852,247.975 L171.852,218.537 L171.852,188.85 L172.352,188.101 C173.351,186.854 174.1,185.108 174.1,183.611 C174.1,179.869 170.603,176.376 166.857,176.376 C163.11,176.376 159.863,179.869 159.863,183.611 C159.863,185.108 160.362,186.854 161.112,187.852 L161.861,188.6 L161.861,218.288 L161.861,248.224 L161.112,248.973 C160.362,249.97 159.863,251.717 159.863,253.214 C159.863,255.209 160.362,256.706 161.861,258.452 C164.109,260.448 166.357,260.947 169.105,260.199 z M194.833,253.214 L194.833,245.979 L193.584,245.979 L192.585,245.979 L192.585,236.499 L192.585,227.019 L193.584,226.52 C196.331,225.023 197.58,221.032 196.082,218.288 C195.832,217.789 195.332,217.04 195.082,217.04 C194.833,216.541 194.833,214.795 194.833,199.577 C194.833,179.869 194.833,180.867 192.585,178.372 C189.587,175.378 185.591,175.378 182.593,178.372 C180.595,180.617 180.095,183.112 180.845,185.856 C181.344,187.353 182.843,189.349 184.092,189.848 L184.841,190.347 L184.841,203.818 C184.841,215.044 184.591,217.04 184.342,217.29 C184.092,217.29 183.592,218.038 183.342,218.537 L182.593,219.784 L182.593,232.757 L182.343,245.979 L181.344,245.979 L180.595,245.979 L180.595,253.214 L180.595,260.698 L187.589,260.698 L194.833,260.698 L194.833,253.214 z M56.452,143.446 C58.2,142.698 60.448,140.702 60.948,138.706 C61.447,136.96 61.447,134.964 60.448,133.218 L59.948,131.97 L59.948,102.782 L59.948,73.594 L60.698,73.594 L61.447,73.594 L61.447,66.11 L61.447,58.875 L54.203,58.875 L47.209,58.875 L47.209,66.11 L47.209,73.594 L48.458,73.594 L49.957,73.594 L49.957,86.317 L49.957,99.29 L49.208,99.539 C48.209,100.038 46.71,101.535 46.21,102.533 C45.961,103.531 45.961,105.027 46.71,106.524 C47.209,108.021 47.959,108.77 49.208,109.019 L49.957,109.268 L49.957,119.996 L49.957,130.723 L48.958,131.721 C48.458,132.22 47.709,133.467 47.459,134.216 C46.71,136.96 47.209,139.455 49.208,141.7 C51.456,143.696 53.704,144.195 56.452,143.446 z M76.934,143.446 C78.682,142.698 80.93,140.702 81.43,138.956 C82.179,136.461 81.68,133.966 80.181,131.97 L79.682,131.222 L79.682,101.285 L79.682,71.598 L80.431,70.6 C81.43,69.603 82.179,67.607 82.179,66.11 C82.179,62.368 78.682,58.626 74.936,58.626 C71.189,58.875 67.942,62.368 67.942,66.11 C67.942,67.357 68.441,69.353 69.191,70.351 C69.44,70.85 69.69,71.848 69.69,101.036 L69.69,131.471 L68.941,132.22 C68.191,133.218 67.692,134.964 67.692,136.461 C67.692,138.457 68.191,139.953 69.69,141.7 C71.938,143.696 74.186,144.195 76.934,143.446 z M102.662,142.199 C102.662,140.702 102.662,140.702 103.161,140.203 C103.411,139.953 103.911,139.455 104.161,138.706 C104.66,137.708 104.91,137.459 104.91,122.74 L104.91,107.772 L105.409,107.772 C106.159,107.772 107.408,106.774 108.157,105.776 C108.407,105.526 108.657,104.778 108.657,104.279 C108.906,102.533 107.408,99.789 105.659,99.04 L104.91,98.791 L104.91,81.827 C104.91,65.112 104.66,64.863 104.161,63.865 C103.661,62.617 102.912,61.869 101.413,61.37 C100.913,61.37 100.164,60.871 99.664,60.372 C98.665,59.374 96.917,58.626 95.418,58.626 C91.671,58.626 88.424,62.368 88.424,66.11 C88.424,69.104 90.672,72.347 93.42,73.095 L94.918,73.594 L94.918,101.285 L94.918,129.226 L91.671,129.226 L88.424,129.226 L88.424,136.461 L88.424,143.945 L95.418,143.945 L102.662,143.945 L102.662,142.199 z" fill="#FEFEFE"/>
    <path d="M45.211,430.837 C43.463,430.089 41.215,427.844 40.715,426.097 C40.215,424.351 40.215,422.355 40.965,420.609 C41.464,419.611 41.714,419.362 41.714,408.634 L41.714,397.907 L40.465,396.66 C38.717,394.913 38.217,393.666 38.217,390.922 C38.217,387.679 38.967,385.932 40.715,384.685 L41.464,384.186 L41.714,363.729 C41.714,344.77 41.714,343.273 42.214,342.524 C42.464,341.776 42.713,341.027 42.713,339.531 L42.713,337.285 L49.707,337.285 L56.951,337.285 L56.951,344.52 L56.951,352.004 L54.203,352.004 L51.706,352.004 L51.706,384.934 L51.706,417.865 L52.705,419.112 C55.452,421.856 55.203,426.097 52.455,429.091 C50.207,431.087 47.709,431.835 45.211,430.837 z M65.694,430.837 C63.945,430.089 61.697,427.844 61.197,426.347 C60.448,423.852 60.948,421.357 62.197,419.611 L62.696,418.863 L62.946,380.943 L62.946,343.273 L63.945,341.776 C66.443,336.786 71.688,335.789 75.435,339.281 C77.433,341.526 77.933,344.021 77.184,346.765 C76.684,348.262 75.185,350.258 73.687,351.006 L72.937,351.505 L72.937,384.934 L72.937,418.613 L73.437,419.362 C74.936,421.357 75.435,423.852 74.686,426.347 C74.186,428.093 71.938,430.089 70.19,430.837 C68.691,431.336 66.942,431.336 65.694,430.837 z M81.68,423.852 L81.68,416.617 L84.178,416.617 L86.676,416.617 L86.676,383.438 L86.676,350.258 L85.676,349.26 C84.427,348.013 83.928,346.017 83.928,344.52 C83.928,340.778 87.175,337.285 90.922,337.285 C93.67,337.285 96.667,339.531 97.666,342.275 C98.166,344.021 98.166,346.017 97.167,347.763 L96.667,349.26 L96.667,366.224 L96.667,383.438 L97.916,384.685 C99.664,386.431 100.414,387.679 100.414,389.924 C100.414,392.169 99.664,393.666 97.916,394.664 L96.667,395.662 L96.667,410.381 C96.667,422.854 96.417,425.099 96.167,425.848 C95.918,426.347 95.918,427.594 95.918,429.091 L95.918,431.336 L88.674,431.336 L81.68,431.336 L81.68,423.852 z M143.876,260.199 C142.128,259.45 139.88,257.205 139.38,255.708 C138.631,253.214 139.13,250.719 140.379,248.973 L141.129,248.224 L141.129,237.746 L141.129,227.268 L139.63,226.77 C137.882,226.271 136.383,224.524 136.133,223.027 C135.633,221.281 135.883,219.285 136.383,218.038 C137.132,216.791 138.381,215.543 139.13,215.294 C139.63,215.044 139.88,215.044 139.88,203.07 C139.88,195.087 139.63,191.095 139.63,191.095 C139.38,191.095 139.38,188.351 139.38,183.611 L139.38,176.376 L146.374,176.376 L153.618,176.376 L153.618,183.611 L153.618,191.095 L151.62,191.095 L149.871,191.095 L149.871,204.068 L149.871,217.29 L150.371,218.537 L151.12,219.784 L151.12,233.755 L151.12,247.975 L151.62,248.723 C153.118,250.719 153.618,253.214 152.869,255.708 C152.369,257.455 150.121,259.45 148.373,260.199 C146.874,260.698 145.125,260.698 143.876,260.199 z M164.609,260.199 C162.86,259.45 160.612,257.205 160.112,255.708 C159.363,253.214 159.863,250.719 161.112,248.973 L161.861,248.224 L161.861,218.288 L161.861,188.6 L161.112,187.852 C160.362,186.854 159.863,185.108 159.863,183.611 C159.863,179.869 163.11,176.376 166.857,176.376 C170.603,176.376 174.1,179.869 174.1,183.611 C174.1,185.108 173.351,186.854 172.352,188.101 L171.852,188.85 L171.852,218.537 L171.852,247.975 L172.352,248.723 C173.851,250.719 174.35,253.214 173.601,255.708 C173.101,257.455 170.853,259.45 169.105,260.199 C167.606,260.698 165.858,260.698 164.609,260.199 z M180.595,253.214 L180.595,245.979 L181.344,245.979 L182.343,245.979 L182.593,232.757 L182.593,219.784 L183.342,218.537 C183.592,218.038 184.092,217.29 184.342,217.29 C184.591,217.04 184.841,215.044 184.841,203.818 L184.841,190.347 L184.092,189.848 C182.843,189.349 181.344,187.353 180.845,185.856 C180.095,183.112 180.595,180.617 182.593,178.372 C185.591,175.378 189.587,175.378 192.585,178.372 C194.833,180.867 194.833,179.869 194.833,199.577 C194.833,214.795 194.833,216.541 195.082,217.04 C195.332,217.04 195.832,217.789 196.082,218.288 C197.58,221.032 196.331,225.023 193.584,226.52 L192.585,227.019 L192.585,236.499 L192.585,245.979 L193.584,245.979 L194.833,245.979 L194.833,253.214 L194.833,260.698 L187.589,260.698 L180.595,260.698 L180.595,253.214 z M51.955,143.446 C50.207,142.698 47.959,140.452 47.459,138.956 C46.71,136.211 47.209,133.717 48.958,131.721 L49.957,130.723 L49.957,119.996 L49.957,109.268 L49.208,109.019 C47.959,108.77 47.209,108.021 46.71,106.524 C45.961,105.027 45.961,103.531 46.21,102.533 C46.71,101.535 48.209,100.038 49.208,99.539 L49.957,99.29 L49.957,86.317 L49.957,73.594 L48.458,73.594 L47.209,73.594 L47.209,66.11 L47.209,58.875 L54.203,58.875 L61.447,58.875 L61.447,66.11 L61.447,73.594 L60.698,73.594 L59.948,73.594 L59.948,102.782 L59.948,131.97 L60.448,133.218 C61.447,134.964 61.447,136.96 60.948,138.706 C60.698,139.953 60.198,140.452 59.199,141.7 C56.951,143.696 54.453,144.444 51.955,143.446 z M72.438,143.446 C70.689,142.698 68.441,140.452 67.942,138.956 C67.192,136.461 67.692,133.966 68.941,132.22 L69.69,131.471 L69.69,101.036 C69.69,71.848 69.44,70.85 69.191,70.351 C68.441,69.353 67.942,67.357 67.942,66.11 C67.942,62.368 71.189,58.875 74.936,58.626 C78.682,58.626 82.179,62.368 82.179,66.11 C82.179,67.607 81.43,69.603 80.431,70.6 L79.682,71.598 L79.682,101.285 L79.682,131.222 L80.181,131.97 C81.68,133.966 82.179,136.461 81.43,138.956 C80.93,140.702 78.682,142.698 76.934,143.446 C75.435,143.945 73.687,143.945 72.438,143.446 z M88.424,136.461 L88.424,129.226 L91.671,129.226 L94.918,129.226 L94.918,101.285 L94.918,73.594 L93.42,73.095 C91.421,72.596 89.423,70.351 88.674,68.605 C87.924,65.611 88.424,63.116 90.422,60.871 C93.17,58.376 96.917,58.127 99.664,60.372 C100.164,60.871 100.913,61.37 101.413,61.37 C102.912,61.869 103.661,62.617 104.161,63.865 C104.66,64.863 104.91,65.112 104.91,81.827 L104.91,98.791 L105.659,99.04 C107.408,99.789 108.906,102.533 108.657,104.279 C108.657,104.778 108.407,105.526 108.157,105.776 C107.408,106.774 106.159,107.772 105.409,107.772 L104.91,107.772 L104.91,122.74 C104.91,137.459 104.66,137.708 104.161,138.706 C103.911,139.455 103.411,139.953 103.161,140.203 C102.662,140.702 102.662,140.702 102.662,142.199 L102.662,143.945 L95.418,143.945 L88.424,143.945 L88.424,136.461 z" fill="#000000"/>
  </g>
</svg>
