<?xml version="1.0" encoding="UTF-8"?>
<!DOCTYPE svg PUBLIC "-//W3C//DTD SVG 1.1//EN" "http://www.w3.org/Graphics/SVG/1.1/DTD/svg11.dtd">
<svg version="1.1" xmlns="http://www.w3.org/2000/svg" xmlns:xlink="http://www.w3.org/1999/xlink" x="0" y="0" width="218" height="238" viewBox="0, 0, 218, 238">
  <g id="Background">
    <rect x="0" y="0" width="218" height="238" fill="#FFFFFF"/>
  </g>
  <g id="Background">
    <path d="M0,0 L218,0 L218,238 L0,238 z" fill="#FFFFFF"/>
  </g>
  <g id="Layer_1">
    <path d="M0,118.875 L0,0 L109,0 L218,0 L218,118.875 L218,238 L109,238 L0,238 L0,118.875 z" fill="#FEFEFE"/>
    <path d="M177.685,181.428 C177.436,181.428 176.938,180.93 176.441,180.681 C175.445,179.684 175.445,178.188 176.441,177.192 C178.68,174.949 182.164,178.188 179.925,180.431 C179.178,181.179 178.68,181.428 177.685,181.428 z M39.817,169.466 C37.329,168.718 36.582,165.728 38.324,163.734 C40.813,161.242 45.043,163.734 44.048,167.223 C43.799,167.971 42.555,169.466 41.808,169.715 C41.808,169.715 41.311,169.715 41.062,169.715 C40.813,169.715 40.315,169.715 39.817,169.466 z M156.283,168.968 C139.858,168.718 136.126,168.718 135.628,168.469 C135.13,168.22 130.402,163.485 124.927,158.002 L114.973,148.034 L114.973,146.04 L114.973,144.046 L116.466,142.551 L117.959,141.055 L119.95,141.055 L121.941,141.055 L130.9,150.027 L139.858,158.999 L160.016,158.999 L180.174,158.999 L181.667,160.494 L183.409,161.99 L183.409,163.983 L183.409,165.977 L181.667,167.472 L180.174,169.217 L178.183,168.968 C177.187,168.968 167.233,168.968 156.283,168.968 z M38.822,151.273 C37.578,150.775 36.333,149.778 35.587,148.532 C34.84,147.535 34.84,147.037 34.84,145.541 C34.84,144.046 34.84,143.548 35.587,142.551 C37.329,139.56 40.813,138.563 43.799,140.308 L44.795,141.055 L60.97,141.055 L77.146,141.055 L78.639,142.551 L80.132,144.046 L80.381,146.04 L80.381,148.034 L78.639,149.529 L77.146,151.024 L60.721,151.024 C45.79,150.775 43.799,150.775 42.804,151.273 C41.311,151.772 40.066,151.772 38.822,151.273 z M35.587,116.134 L35.587,110.153 L56.242,110.153 L77.146,110.402 L78.639,111.897 L80.381,113.393 L80.381,115.386 L80.381,117.38 L78.639,118.875 L77.146,120.371 L62.463,120.371 L47.781,120.121 L47.781,121.118 L47.781,122.364 L41.559,122.364 L35.587,122.364 L35.587,116.134 z M116.466,118.875 L114.973,117.38 L114.973,115.386 L114.973,113.393 L126.42,101.929 C132.642,95.449 138.365,90.216 138.863,89.966 C139.61,89.468 140.605,89.468 159.767,89.468 L180.174,89.219 L181.667,90.963 L183.409,92.459 L183.409,94.452 L183.409,96.446 L181.916,97.941 L180.422,99.437 L161.758,99.437 L143.094,99.187 L132.642,109.904 L121.941,120.62 L119.95,120.62 L117.959,120.62 L116.466,118.875 z M177.685,111.897 C177.436,111.897 176.938,111.399 176.441,111.15 C175.445,110.153 175.445,108.658 176.441,107.661 C178.68,105.418 182.164,108.658 179.925,110.901 C179.178,111.648 178.68,111.897 177.685,111.897 z M39.568,101.181 C38.324,100.683 37.08,99.686 36.333,98.44 C35.587,97.443 35.587,96.945 35.587,95.449 C35.587,93.954 35.587,93.455 36.333,92.459 C37.08,91.213 38.573,89.966 39.568,89.717 C40.066,89.468 42.306,87.474 45.292,84.733 C47.781,81.992 50.518,79.749 51.016,79.499 C51.763,79.001 52.509,79.001 63.708,79.001 L75.653,78.752 L77.146,80.496 L78.639,81.992 L78.888,83.985 L78.888,85.979 L77.146,87.474 L75.653,88.97 L65.45,88.97 L55.247,88.72 L51.514,92.708 C49.025,95.2 47.532,96.945 47.283,97.194 C47.034,98.44 45.79,99.935 44.546,100.683 C43.301,101.43 41.062,101.68 39.568,101.181 z M114.973,87.474 L113.479,85.979 L113.479,83.985 L113.479,81.992 L142.347,52.834 C158.274,36.884 171.961,23.675 172.459,23.426 C172.957,22.928 173.952,22.928 177.436,22.928 L181.667,22.679 L183.16,24.423 L184.902,25.918 L184.902,27.912 L184.902,29.906 L183.16,31.401 L181.667,33.146 L179.178,32.896 L176.689,32.896 L148.568,61.058 L120.447,89.219 L118.457,89.219 L116.466,89.219 L114.973,87.474 z M217.253,85.231 C217.253,84.982 217.253,84.982 217.253,84.982 C217.253,85.231 217.253,85.481 217.253,85.481 C217.253,85.73 217.253,85.481 217.253,85.231 z M179.178,45.357 C178.929,45.357 178.432,44.859 177.934,44.609 C176.938,43.613 176.938,42.117 177.934,41.12 C180.174,38.877 183.658,42.117 181.418,44.36 C180.671,45.108 180.174,45.357 179.178,45.357 z" fill="#000000"/>
  </g>
</svg>
