<?xml version="1.0" encoding="UTF-8"?>
<!DOCTYPE svg PUBLIC "-//W3C//DTD SVG 1.1//EN" "http://www.w3.org/Graphics/SVG/1.1/DTD/svg11.dtd">
<svg version="1.1" xmlns="http://www.w3.org/2000/svg" xmlns:xlink="http://www.w3.org/1999/xlink" x="0" y="0" width="289" height="457" viewBox="0, 0, 289, 457">
  <g id="Background">
    <rect x="0" y="0" width="289" height="457" fill="#FFFFFF"/>
  </g>
  <g id="Layer_1">
    <path d="M-0,228.5 L-0,0 L144.375,0 L289,0 L289,228.5 L289,457 L144.375,457 L-0,457 L-0,228.5 z M246.537,442.845 C247.536,442.34 260.525,429.196 261.274,427.932 C261.524,427.174 261.774,425.91 261.774,367.015 C261.774,307.868 261.524,306.605 261.274,305.846 C260.525,304.582 244.538,288.405 243.539,287.9 C242.79,287.394 241.791,287.394 237.045,287.394 C234.048,287.142 231.3,287.142 231.3,286.889 C231.05,286.889 237.295,280.57 244.788,272.734 C252.532,265.151 258.776,258.579 259.026,258.074 C259.276,257.315 259.525,256.304 259.525,251.249 C259.525,245.941 259.276,245.183 259.026,244.424 C258.776,243.919 252.032,237.094 244.538,229.258 C236.795,221.423 230.551,215.103 230.551,214.851 C230.551,214.598 236.296,208.784 243.29,201.454 C250.533,194.124 256.528,188.058 256.778,187.552 C257.028,186.794 257.277,185.277 257.277,175.925 C257.277,165.561 257.028,164.803 256.778,164.045 C256.029,162.781 234.048,140.538 232.799,139.779 L231.55,139.274 L243.539,126.888 C250.283,120.316 255.779,114.503 256.029,113.997 C256.278,113.239 256.528,111.217 256.528,96.556 C256.278,80.632 256.278,79.874 256.029,79.116 C255.279,77.852 237.794,60.158 236.795,59.653 C236.046,59.147 235.047,59.147 230.301,59.147 C227.303,58.894 224.556,58.894 224.556,58.894 C224.556,58.642 224.306,58.389 224.306,57.883 L224.056,57.125 L217.312,57.125 L210.568,57.125 L210.568,63.95 L210.568,70.774 L217.312,70.774 L224.056,70.774 L224.306,69.763 C224.556,68.752 225.055,68.499 229.302,68.752 L232.549,68.752 L239.543,76.082 L246.787,83.413 L246.787,96.556 L246.787,109.7 L233.298,123.602 L219.81,137.252 L216.313,137.504 L212.816,137.504 L212.816,144.329 L212.816,151.154 L219.56,151.154 L226.304,151.154 L226.554,150.143 C226.804,149.132 227.553,148.879 228.552,149.132 C228.802,149.384 233.298,153.681 238.294,158.737 L247.536,168.342 L247.536,175.925 L247.536,183.255 L233.298,197.915 L219.06,212.323 L215.564,212.576 L212.067,212.576 L212.067,219.4 L212.067,226.225 L218.561,226.225 C225.555,226.478 225.805,226.225 226.054,225.214 C226.054,224.709 228.303,226.983 238.044,236.588 L249.784,248.468 L249.784,251.249 L249.784,253.777 L234.297,269.448 L219.06,285.119 L215.564,285.372 L212.067,285.372 L212.067,292.197 L212.067,299.022 L218.811,299.022 L225.555,299.022 L225.805,298.01 C226.054,296.747 226.054,296.747 233.298,296.999 L239.043,296.999 L245.538,303.571 L252.032,310.143 L252.032,366.763 L252.032,423.635 L247.286,428.69 L242.29,433.493 L227.553,433.493 L212.566,433.493 L205.822,426.921 C202.325,423.382 197.829,418.58 195.831,416.558 L192.334,412.766 L192.334,409.48 L192.084,405.941 L185.34,405.941 L178.596,405.941 L178.596,412.766 L178.596,419.591 L179.345,419.843 C180.344,420.096 180.594,420.855 180.344,422.118 C180.094,422.371 177.846,424.646 175.348,427.426 L170.602,431.976 L131.886,431.976 C110.654,431.976 92.92,431.976 92.92,431.723 C92.67,431.471 92.67,419.591 92.92,419.338 C92.92,419.338 93.419,419.085 94.169,419.085 L95.417,418.832 L95.417,412.008 L95.417,405.183 L88.673,405.183 L81.929,405.183 L81.929,408.722 L81.679,412.008 L80.181,413.777 L78.432,415.294 L60.947,415.294 C44.462,415.294 43.462,415.294 42.963,414.788 C42.463,414.535 41.964,414.283 36.718,414.535 L31.223,414.535 L31.223,420.349 L31.223,426.163 L36.968,426.163 C42.463,426.415 42.463,426.415 42.963,425.657 L43.462,425.152 L63.195,425.152 C73.936,424.899 82.928,424.899 82.928,424.899 C82.928,424.899 82.928,427.932 82.928,431.723 C83.178,438.043 83.178,438.295 83.927,439.306 C84.177,440.065 84.927,440.823 85.426,441.076 L86.425,441.581 L130.137,441.581 C172.85,441.581 174.099,441.581 174.849,441.329 C176.098,440.57 189.086,427.174 189.836,425.91 L190.335,424.899 L199.078,433.746 C204.323,439.306 207.82,442.592 208.57,442.845 C209.069,443.098 212.067,443.098 227.553,443.098 C243.789,443.098 245.787,443.098 246.537,442.845 z M208.819,418.832 C209.818,418.58 210.818,417.821 211.067,417.316 C213.315,414.283 213.315,410.744 210.568,407.711 L209.818,406.447 L209.569,395.325 C209.569,385.215 209.569,383.951 209.319,383.192 C208.819,382.181 194.831,368.027 193.832,367.521 C193.333,367.015 192.084,367.015 187.338,367.015 L181.593,366.763 L160.111,345.025 C148.372,332.892 138.131,323.034 137.881,322.782 C136.882,322.276 134.883,322.276 88.424,322.276 L40.215,322.023 L39.216,321.012 C36.718,318.737 32.971,318.484 30.723,320.759 C29.724,321.518 28.975,323.54 28.975,325.056 C28.975,326.573 29.724,328.595 30.723,329.353 C32.222,330.87 34.47,331.376 36.968,330.617 C37.967,330.364 43.962,330.364 86.175,330.364 L133.884,330.364 L155.615,352.355 C167.605,364.235 177.596,374.346 178.096,374.598 C178.346,374.851 180.094,374.851 184.341,375.104 L190.086,375.104 L195.831,380.918 L201.576,386.731 L201.576,396.842 L201.576,406.952 L200.826,407.963 C197.579,411.755 198.578,416.81 202.825,418.832 C204.073,419.591 204.573,419.843 205.822,419.843 C207.071,419.843 207.57,419.591 208.819,418.832 z M112.153,418.074 C114.651,417.063 115.9,414.788 115.9,412.008 C115.9,410.491 115.65,409.48 114.401,407.205 C113.901,406.194 113.901,405.689 113.901,394.567 C113.901,384.456 113.652,382.94 113.402,382.181 C112.653,381.17 102.661,370.554 101.412,369.796 C100.413,369.29 100.413,369.29 82.429,369.29 L64.444,369.038 L52.455,357.158 L40.715,345.278 L40.715,342.75 L40.465,340.222 L34.72,340.222 L28.975,340.222 L28.975,346.036 L28.975,351.85 L31.473,352.102 L33.971,352.102 L46.71,364.993 C53.704,372.071 59.698,378.137 60.198,378.39 C60.697,378.643 64.194,378.643 78.932,378.895 L97.166,378.895 L100.413,382.434 C102.411,384.204 103.91,386.226 104.16,386.478 C104.16,386.984 104.16,391.281 104.16,396.842 L104.16,406.447 L103.161,408.469 C102.411,410.238 102.411,410.744 102.411,412.008 C102.411,414.788 103.66,417.063 106.158,418.074 C107.407,418.832 107.907,419.085 109.156,419.085 C110.404,419.085 110.904,418.832 112.153,418.074 z M227.803,413.524 C228.053,413.019 228.053,412.766 227.553,412.513 C226.804,411.502 225.805,412.008 225.805,413.272 C225.805,414.03 225.805,414.283 226.804,414.283 C227.303,414.283 227.553,414.03 227.803,413.524 z M130.887,413.272 C131.636,412.26 130.637,410.997 129.638,411.502 C128.639,411.755 128.889,413.524 130.137,413.524 C130.387,413.524 130.637,413.524 130.887,413.272 z M37.717,400.633 C38.467,399.875 37.967,398.864 36.968,398.864 C35.469,398.864 35.469,400.886 36.968,400.886 C37.218,400.886 37.468,400.886 37.717,400.633 z M221.808,339.97 C225.805,337.947 226.804,333.145 224.056,329.353 C223.057,328.09 220.559,327.079 218.811,327.079 C217.562,327.079 217.062,327.079 215.314,328.09 L213.315,329.101 L206.571,328.848 L200.077,328.848 L179.844,308.627 C168.854,297.505 159.362,288.153 159.112,287.9 C158.113,287.394 155.865,287.394 103.66,287.394 L49.457,287.142 L44.711,282.339 L39.965,277.789 L39.965,275.262 L39.716,272.734 L33.971,272.734 L28.226,272.734 L28.226,278.548 L28.226,284.361 L30.723,284.614 L32.971,284.614 L38.717,290.428 C41.964,293.461 44.711,296.241 45.211,296.494 C45.71,296.747 54.952,296.747 100.163,296.999 L154.616,296.999 L174.849,317.473 C186.089,328.595 195.331,337.947 195.831,338.2 C196.58,338.453 197.829,338.706 204.823,338.706 C212.566,338.706 213.066,338.706 214.065,339.211 C217.562,341.233 219.31,341.486 221.808,339.97 z M219.56,313.935 C220.559,312.924 219.56,311.66 218.311,312.165 C217.312,312.418 217.562,314.188 218.811,314.188 C218.811,314.188 219.06,314.188 219.56,313.935 z M221.808,267.173 C225.805,265.151 226.804,260.348 224.056,256.557 C223.057,255.293 220.559,254.282 218.811,254.282 C217.562,254.282 217.062,254.282 215.314,255.04 L213.315,256.051 L127.14,256.051 C79.681,256.051 40.715,256.051 40.465,256.051 C40.215,256.051 39.716,255.546 39.216,255.04 C38.966,254.535 38.467,253.777 38.217,253.524 C37.468,252.513 35.469,251.754 33.971,251.754 C32.472,251.754 30.474,252.513 29.724,253.524 C28.725,254.282 28.226,256.304 28.226,257.568 C27.976,259.843 29.474,261.865 31.723,263.129 C32.472,263.382 33.471,263.887 33.721,264.393 C34.22,264.645 34.72,265.151 35.22,265.404 C35.969,265.657 43.712,265.909 124.642,265.909 C212.816,265.909 213.066,265.909 214.065,266.415 C217.562,268.437 219.31,268.69 221.808,267.173 z M220.06,240.633 C220.559,240.127 219.81,239.369 218.811,239.369 C218.311,239.369 218.061,239.369 218.061,239.874 C217.812,240.38 218.061,240.633 218.311,240.885 C218.561,241.391 219.56,241.391 220.06,240.633 z M39.216,228.247 C39.216,227.742 39.716,227.236 39.965,227.236 C40.215,227.236 55.952,227.236 74.685,227.236 C105.659,227.236 108.906,226.983 109.655,226.731 C110.155,226.478 118.148,218.389 127.889,208.532 L145.124,190.838 L179.345,190.838 C208.819,190.838 213.815,190.838 214.315,191.091 C217.562,192.86 218.061,192.86 219.56,193.113 C223.307,193.113 226.304,189.827 226.304,186.035 C226.304,183.255 225.055,180.98 222.557,179.969 C220.309,178.705 218.561,178.705 216.313,179.969 L214.564,180.98 L178.346,181.233 C143.376,181.233 141.877,181.233 141.128,181.738 C140.628,181.991 132.385,190.08 122.894,199.685 L105.659,217.378 L66.443,217.378 L27.476,217.378 L27.476,222.939 C27.476,225.972 27.476,228.753 27.476,228.753 C27.476,229.006 28.725,229.006 33.221,229.006 L38.966,229.006 L39.216,228.247 z M36.219,207.52 L37.717,206.762 L57.95,206.762 C75.934,206.762 78.182,206.509 78.932,206.257 C79.431,206.004 100.913,184.266 126.64,158.231 L173.6,110.459 L192.583,110.459 C208.57,110.459 211.567,110.459 212.067,110.711 C215.564,112.481 215.813,112.481 217.312,112.733 C221.059,112.733 224.056,109.447 224.056,105.656 C224.056,102.876 222.807,100.601 220.309,99.59 C218.061,98.326 216.313,98.326 214.065,99.59 L212.316,100.601 L191.334,100.853 C171.602,100.853 170.353,100.853 169.603,101.359 C169.104,101.612 147.622,123.097 121.645,149.384 L74.935,196.904 L55.702,196.904 C39.466,197.157 36.468,196.904 35.469,196.652 C33.721,196.146 32.222,196.146 30.723,196.904 C29.225,197.663 28.475,198.168 27.976,199.938 C27.226,201.201 27.226,203.223 27.976,204.74 C28.475,206.257 29.225,206.762 30.723,207.52 C32.472,208.279 33.971,208.279 36.219,207.52 z M40.965,171.375 C40.965,170.869 41.214,170.617 41.714,170.364 C41.964,170.364 51.206,170.364 62.446,170.364 C81.929,170.364 82.678,170.111 83.428,169.858 C84.677,169.1 171.102,81.643 171.602,80.632 C171.851,80.127 171.851,79.621 172.101,79.368 C172.101,79.116 172.351,78.863 172.601,78.357 L173.35,77.852 L173.1,72.038 L173.1,66.477 L167.355,66.477 L161.61,66.477 L161.61,72.038 L161.36,77.599 L120.396,119.053 L79.181,160.506 L60.947,160.506 C50.956,160.506 42.463,160.506 41.964,160.506 C41.214,160.506 41.214,160.253 40.965,159.495 L40.715,158.737 L33.971,158.737 L27.226,158.737 L27.226,165.309 C27.226,168.847 27.226,172.133 27.226,172.133 C27.226,172.386 28.725,172.386 33.971,172.386 L40.715,172.386 L40.965,171.375 z M220.559,165.814 C220.809,165.814 221.059,165.309 221.059,165.056 C221.059,164.803 220.809,164.298 220.559,164.298 C220.559,164.045 220.06,164.045 219.81,164.045 C219.56,164.045 219.06,164.045 219.06,164.298 C218.811,164.298 218.811,164.803 218.811,165.056 C218.811,165.309 218.811,165.814 219.06,165.814 C219.06,166.067 219.56,166.32 219.81,166.32 C220.06,166.32 220.559,166.067 220.559,165.814 z M36.468,150.901 C37.218,150.648 38.217,150.143 38.467,149.89 L39.466,149.132 L50.456,149.132 C59.948,148.879 61.197,148.879 61.946,148.373 C62.946,147.868 115.65,94.534 116.15,93.776 C116.399,93.27 116.399,91.248 116.649,85.94 C116.649,78.863 116.649,78.863 117.149,78.357 C117.898,77.852 117.898,77.852 117.648,72.291 L117.648,66.477 L111.903,66.477 L106.158,66.477 L106.158,72.038 C105.908,77.346 106.158,77.852 106.408,78.357 C106.908,78.61 106.908,79.368 106.908,84.171 L106.908,89.226 L82.179,114.25 L57.7,139.274 L48.208,139.274 L38.966,139.527 L37.218,138.515 C34.97,137.252 33.221,137.252 30.973,138.515 C26.977,140.538 25.978,145.34 28.725,149.132 C28.975,149.637 29.974,150.395 30.973,150.648 C32.722,151.659 34.72,151.912 36.468,150.901 z M36.968,129.921 C39.216,128.91 40.215,127.394 40.965,124.866 C41.214,123.602 41.464,123.097 49.457,115.008 C54.203,110.206 58.2,106.162 58.449,105.909 C58.699,105.403 58.699,102.623 58.949,92.765 L58.949,80.379 L59.449,79.874 C60.198,79.368 60.198,79.368 59.948,73.808 L59.948,67.994 L54.203,67.994 L48.458,67.994 L48.458,73.555 C48.208,78.863 48.458,79.368 48.708,79.874 C49.207,80.379 49.207,81.138 49.207,90.996 L49.207,101.359 L41.714,108.942 C34.47,116.272 34.22,116.525 32.971,116.778 C27.476,118.041 25.228,123.855 28.725,128.405 C29.724,129.669 32.222,130.933 33.971,130.933 C35.22,130.933 35.719,130.68 36.968,129.921 z M218.311,85.688 C218.561,85.688 218.811,85.182 218.811,84.929 C218.811,84.676 218.561,84.171 218.311,84.171 C218.311,83.918 217.812,83.918 217.562,83.918 C217.312,83.918 216.812,83.918 216.812,84.171 C216.563,84.171 216.563,84.676 216.563,84.929 C216.563,85.182 216.563,85.688 216.812,85.688 C216.812,85.94 217.312,86.193 217.562,86.193 C217.812,86.193 218.311,85.94 218.311,85.688 z M34.47,74.566 C35.22,73.808 34.72,72.796 33.721,72.796 C32.722,72.796 32.222,73.808 32.971,74.566 C33.471,75.071 34.22,75.071 34.47,74.566 z M92.42,73.302 C92.67,72.796 92.92,72.544 92.92,72.544 C92.92,72.291 92.67,72.038 92.42,71.785 C91.92,71.28 91.671,71.28 91.671,71.28 C91.421,71.28 91.171,71.28 90.921,71.785 C90.422,72.038 90.422,72.291 90.422,72.544 C90.422,72.544 90.422,72.796 90.921,73.302 C91.171,73.555 91.421,73.808 91.671,73.808 C91.671,73.808 91.92,73.555 92.42,73.302 z M147.872,73.302 C148.621,72.544 148.122,71.28 146.873,71.533 C146.373,71.533 146.124,71.785 146.124,72.291 C145.874,72.796 146.124,73.049 146.373,73.302 C146.873,73.808 147.123,73.808 147.872,73.302 z M35.719,423.635 C35.469,423.382 34.97,422.877 34.47,422.624 C33.721,421.866 33.721,421.613 33.721,420.349 C33.721,419.085 33.721,418.832 34.72,418.074 C35.469,417.063 35.719,417.063 36.968,417.063 C38.217,417.063 38.467,417.063 39.216,418.074 C40.215,418.832 40.215,419.085 40.215,420.349 C40.215,421.613 40.215,421.866 39.216,422.624 C38.717,423.382 38.217,423.635 37.218,423.635 C36.718,423.635 35.969,423.635 35.719,423.635 z M184.091,416.052 C183.841,415.799 183.341,415.294 182.842,415.041 C182.092,414.283 182.092,414.03 182.092,412.766 C182.092,411.502 182.092,411.249 183.092,410.491 C183.841,409.48 184.091,409.48 185.34,409.48 C186.589,409.48 186.838,409.48 187.588,410.491 C188.587,411.249 188.587,411.502 188.587,412.766 C188.587,414.03 188.587,414.283 187.588,415.041 C187.088,415.799 186.589,416.052 185.589,416.052 C185.09,416.052 184.341,416.052 184.091,416.052 z M87.424,415.294 C87.175,415.041 86.675,414.535 86.175,414.283 C85.426,413.524 85.426,413.272 85.426,412.008 C85.426,410.744 85.426,410.491 86.425,409.733 C87.175,408.722 87.424,408.722 88.673,408.722 C89.922,408.722 90.172,408.722 90.921,409.733 C91.92,410.491 91.92,410.744 91.92,412.008 C91.92,413.272 91.92,413.524 90.921,414.283 C90.422,415.041 89.922,415.294 88.923,415.294 C88.424,415.294 87.674,415.294 87.424,415.294 z M217.562,295.483 C217.312,295.23 216.812,294.725 216.313,294.472 C215.564,293.714 215.564,293.461 215.564,292.197 C215.564,290.933 215.564,290.68 216.563,289.922 C217.312,288.911 217.562,288.911 218.811,288.911 C220.06,288.911 220.309,288.911 221.059,289.922 C222.058,290.68 222.058,290.933 222.058,292.197 C222.058,293.461 222.058,293.714 221.059,294.472 C220.559,295.23 220.06,295.483 219.06,295.483 C218.561,295.483 217.812,295.483 217.562,295.483 z M217.562,222.686 C217.312,222.434 216.812,221.928 216.313,221.675 C215.564,220.917 215.564,220.664 215.564,219.4 C215.564,218.137 215.564,217.884 216.563,217.126 C217.312,216.114 217.562,216.114 218.811,216.114 C220.06,216.114 220.309,216.114 221.059,217.126 C222.058,217.884 222.058,218.137 222.058,219.4 C222.058,220.664 222.058,220.917 221.059,221.675 C220.559,222.434 220.06,222.686 219.06,222.686 C218.561,222.686 217.812,222.686 217.562,222.686 z M218.311,147.615 C218.061,147.362 217.562,146.857 217.062,146.604 C216.313,145.846 216.313,145.593 216.313,144.329 C216.313,143.065 216.313,142.812 217.312,142.054 C218.061,141.043 218.311,141.043 219.56,141.043 C220.809,141.043 221.059,141.043 221.808,142.054 C222.807,142.812 222.807,143.065 222.807,144.329 C222.807,145.593 222.807,145.846 221.808,146.604 C221.309,147.362 220.809,147.615 219.81,147.615 C219.31,147.615 218.561,147.615 218.311,147.615 z M216.063,67.236 C215.813,66.983 215.314,66.477 214.814,66.225 C214.065,65.466 214.065,65.214 214.065,63.95 C214.065,62.686 214.065,62.433 215.064,61.675 C215.813,60.664 216.063,60.664 217.312,60.664 C218.561,60.664 218.811,60.664 219.56,61.675 C220.559,62.433 220.559,62.686 220.559,63.95 C220.559,65.214 220.559,65.466 219.56,66.225 C219.06,66.983 218.561,67.236 217.562,67.236 C217.062,67.236 216.313,67.236 216.063,67.236 z M204.573,416.052 C204.323,415.799 203.824,415.294 203.324,415.041 C202.575,414.283 202.575,414.03 202.575,412.766 C202.575,411.502 202.575,411.249 203.574,410.491 C204.323,409.48 204.573,409.48 205.822,409.48 C207.071,409.48 207.321,409.48 208.07,410.491 C209.069,411.249 209.069,411.502 209.069,412.766 C209.069,414.03 209.069,414.283 208.07,415.041 C207.57,415.799 207.071,416.052 206.072,416.052 C205.572,416.052 204.823,416.052 204.573,416.052 z M33.471,328.342 C33.221,328.09 32.722,327.584 32.222,327.331 C31.473,326.573 31.473,326.32 31.473,325.056 C31.473,323.793 31.473,323.54 32.472,322.782 C33.221,321.77 33.471,321.77 34.72,321.77 C35.969,321.77 36.219,321.77 36.968,322.782 C37.967,323.54 37.967,323.793 37.967,325.056 C37.967,326.32 37.967,326.573 36.968,327.331 C36.468,328.09 35.969,328.342 34.97,328.342 C34.47,328.342 33.721,328.342 33.471,328.342 z M107.907,415.294 C107.657,415.041 107.157,414.535 106.658,414.283 C105.908,413.524 105.908,413.272 105.908,412.008 C105.908,410.744 105.908,410.491 106.908,409.733 C107.657,408.722 107.907,408.722 109.156,408.722 C110.404,408.722 110.654,408.722 111.404,409.733 C112.403,410.491 112.403,410.744 112.403,412.008 C112.403,413.272 112.403,413.524 111.404,414.283 C110.904,415.041 110.404,415.294 109.405,415.294 C108.906,415.294 108.156,415.294 107.907,415.294 z M33.471,349.322 C33.221,349.069 32.722,348.564 32.222,348.311 C31.473,347.553 31.473,347.3 31.473,346.036 C31.473,344.772 31.473,344.519 32.472,343.761 C33.221,342.75 33.471,342.75 34.72,342.75 C35.969,342.75 36.219,342.75 36.968,343.761 C37.967,344.519 37.967,344.772 37.967,346.036 C37.967,347.3 37.967,347.553 36.968,348.311 C36.468,349.069 35.969,349.322 34.97,349.322 C34.47,349.322 33.721,349.322 33.471,349.322 z M217.562,337.189 C217.312,336.936 216.812,336.431 216.313,336.178 C215.564,335.42 215.564,335.167 215.564,333.903 C215.564,332.639 215.564,332.387 216.563,331.628 C217.312,330.617 217.562,330.617 218.811,330.617 C220.06,330.617 220.309,330.617 221.059,331.628 C222.058,332.387 222.058,332.639 222.058,333.903 C222.058,335.167 222.058,335.42 221.059,336.178 C220.559,336.936 220.06,337.189 219.06,337.189 C218.561,337.189 217.812,337.189 217.562,337.189 z M32.722,281.834 C32.472,281.581 31.972,281.075 31.473,280.822 C30.723,280.064 30.723,279.811 30.723,278.548 C30.723,277.284 30.723,277.031 31.723,276.273 C32.472,275.262 32.722,275.262 33.971,275.262 C35.22,275.262 35.469,275.262 36.219,276.273 C37.218,277.031 37.218,277.284 37.218,278.548 C37.218,279.811 37.218,280.064 36.219,280.822 C35.719,281.581 35.22,281.834 34.22,281.834 C33.721,281.834 32.971,281.834 32.722,281.834 z M217.562,264.393 C217.312,264.14 216.812,263.634 216.313,263.382 C215.564,262.623 215.564,262.371 215.564,261.107 C215.564,259.843 215.564,259.59 216.563,258.832 C217.312,257.821 217.562,257.821 218.811,257.821 C220.06,257.821 220.309,257.821 221.059,258.832 C222.058,259.59 222.058,259.843 222.058,261.107 C222.058,262.371 222.058,262.623 221.059,263.382 C220.559,264.14 220.06,264.393 219.06,264.393 C218.561,264.393 217.812,264.393 217.562,264.393 z M32.722,260.854 C32.472,260.601 31.972,260.096 31.473,259.843 C30.723,259.085 30.723,258.832 30.723,257.568 C30.723,256.304 30.723,256.051 31.723,255.293 C32.472,254.282 32.722,254.282 33.971,254.282 C35.22,254.282 35.469,254.282 36.219,255.293 C37.218,256.051 37.218,256.304 37.218,257.568 C37.218,258.832 37.218,259.085 36.219,259.843 C35.719,260.601 35.22,260.854 34.22,260.854 C33.721,260.854 32.971,260.854 32.722,260.854 z M31.972,226.478 C31.723,226.225 31.223,225.72 30.723,225.467 C29.974,224.709 29.974,224.456 29.974,223.192 C29.974,221.928 29.974,221.675 30.973,220.917 C31.723,219.906 31.972,219.906 33.221,219.906 C34.47,219.906 34.72,219.906 35.469,220.917 C36.468,221.675 36.468,221.928 36.468,223.192 C36.468,224.456 36.468,224.709 35.469,225.467 C34.97,226.225 34.47,226.478 33.471,226.478 C32.971,226.478 32.222,226.478 31.972,226.478 z M218.311,189.321 C218.061,189.069 217.562,188.563 217.062,188.31 C216.313,187.552 216.313,187.299 216.313,186.035 C216.313,184.772 216.313,184.519 217.312,183.761 C218.061,182.749 218.311,182.749 219.56,182.749 C220.809,182.749 221.059,182.749 221.808,183.761 C222.807,184.519 222.807,184.772 222.807,186.035 C222.807,187.299 222.807,187.552 221.808,188.31 C221.309,189.069 220.809,189.321 219.81,189.321 C219.31,189.321 218.561,189.321 218.311,189.321 z M31.972,205.498 C31.723,205.246 31.223,204.74 30.723,204.487 C29.974,203.729 29.974,203.476 29.974,202.212 C29.974,200.949 29.974,200.696 30.973,199.938 C31.723,198.926 31.972,198.926 33.221,198.926 C34.47,198.926 34.72,198.926 35.469,199.938 C36.468,200.696 36.468,200.949 36.468,202.212 C36.468,203.476 36.468,203.729 35.469,204.487 C34.97,205.246 34.47,205.498 33.471,205.498 C32.971,205.498 32.222,205.498 31.972,205.498 z M216.063,108.942 C215.813,108.689 215.314,108.184 214.814,107.931 C214.065,107.173 214.065,106.92 214.065,105.656 C214.065,104.392 214.065,104.139 215.064,103.381 C215.813,102.37 216.063,102.37 217.312,102.37 C218.561,102.37 218.811,102.37 219.56,103.381 C220.559,104.139 220.559,104.392 220.559,105.656 C220.559,106.92 220.559,107.173 219.56,107.931 C219.06,108.689 218.561,108.942 217.562,108.942 C217.062,108.942 216.313,108.942 216.063,108.942 z M32.722,168.847 C32.472,168.595 31.972,168.089 31.473,167.836 C30.723,167.078 30.723,166.825 30.723,165.561 C30.723,164.298 30.723,164.045 31.723,163.286 C32.472,162.275 32.722,162.275 33.971,162.275 C35.22,162.275 35.469,162.275 36.219,163.286 C37.218,164.045 37.218,164.298 37.218,165.561 C37.218,166.825 37.218,167.078 36.219,167.836 C35.719,168.595 35.22,168.847 34.22,168.847 C33.721,168.847 32.971,168.847 32.722,168.847 z M166.106,75.577 C165.857,75.324 165.357,74.819 164.857,74.566 C164.108,73.808 164.108,73.555 164.108,72.291 C164.108,71.027 164.108,70.774 165.107,70.016 C165.857,69.005 166.106,69.005 167.355,69.005 C168.604,69.005 168.854,69.005 169.603,70.016 C170.602,70.774 170.602,71.027 170.602,72.291 C170.602,73.555 170.602,73.808 169.603,74.566 C169.104,75.324 168.604,75.577 167.605,75.577 C167.105,75.577 166.356,75.577 166.106,75.577 z M32.722,147.868 C32.472,147.615 31.972,147.11 31.473,146.857 C30.723,146.098 30.723,145.846 30.723,144.582 C30.723,143.318 30.723,143.065 31.723,142.307 C32.472,141.296 32.722,141.296 33.971,141.296 C35.22,141.296 35.469,141.296 36.219,142.307 C37.218,143.065 37.218,143.318 37.218,144.582 C37.218,145.846 37.218,146.098 36.219,146.857 C35.719,147.615 35.22,147.868 34.22,147.868 C33.721,147.868 32.971,147.868 32.722,147.868 z M110.654,75.577 C110.404,75.324 109.905,74.819 109.405,74.566 C108.656,73.808 108.656,73.555 108.656,72.291 C108.656,71.027 108.656,70.774 109.655,70.016 C110.404,69.005 110.654,69.005 111.903,69.005 C113.152,69.005 113.402,69.005 114.151,70.016 C115.15,70.774 115.15,71.027 115.15,72.291 C115.15,73.555 115.15,73.808 114.151,74.566 C113.652,75.324 113.152,75.577 112.153,75.577 C111.653,75.577 110.904,75.577 110.654,75.577 z M32.722,127.141 C32.472,126.888 31.972,126.383 31.473,126.13 C30.723,125.372 30.723,125.119 30.723,123.855 C30.723,122.591 30.723,122.338 31.723,121.58 C32.472,120.569 32.722,120.569 33.971,120.569 C35.22,120.569 35.469,120.569 36.219,121.58 C37.218,122.338 37.218,122.591 37.218,123.855 C37.218,125.119 37.218,125.372 36.219,126.13 C35.719,126.888 35.22,127.141 34.22,127.141 C33.721,127.141 32.971,127.141 32.722,127.141 z M52.954,77.093 C52.704,76.841 52.205,76.335 51.705,76.082 C50.956,75.324 50.956,75.071 50.956,73.808 C50.956,72.544 50.956,72.291 51.955,71.533 C52.704,70.522 52.954,70.522 54.203,70.522 C55.452,70.522 55.702,70.522 56.451,71.533 C57.45,72.291 57.45,72.544 57.45,73.808 C57.45,75.071 57.45,75.324 56.451,76.082 C55.952,76.841 55.452,77.093 54.453,77.093 C53.953,77.093 53.204,77.093 52.954,77.093 z" fill="#FEFEFE"/>
    <path d="M208.57,442.845 C207.82,442.592 204.323,439.306 199.078,433.746 L190.335,424.899 L189.836,425.91 C189.086,427.174 176.098,440.57 174.849,441.329 C174.099,441.581 172.85,441.581 130.137,441.581 L86.425,441.581 L85.426,441.076 C84.927,440.823 84.177,440.065 83.927,439.306 C83.178,438.295 83.178,438.043 82.928,431.723 C82.928,427.932 82.928,424.899 82.928,424.899 C82.928,424.899 73.936,424.899 63.195,425.152 L43.462,425.152 L42.963,425.657 C42.463,426.415 42.463,426.415 36.968,426.163 L31.223,426.163 L31.223,420.349 L31.223,414.535 L36.718,414.535 C41.964,414.283 42.463,414.535 42.963,414.788 C43.462,415.294 44.462,415.294 60.947,415.294 L78.432,415.294 L80.181,413.777 L81.679,412.008 L81.929,408.722 L81.929,405.183 L88.673,405.183 L95.417,405.183 L95.417,412.008 L95.417,418.832 L94.169,419.085 C93.419,419.085 92.92,419.338 92.92,419.338 C92.67,419.591 92.67,431.471 92.92,431.723 C92.92,431.976 110.654,431.976 131.886,431.976 L170.602,431.976 L175.348,427.426 C177.846,424.646 180.094,422.371 180.344,422.118 C180.594,420.855 180.344,420.096 179.345,419.843 L178.596,419.591 L178.596,412.766 L178.596,405.941 L185.34,405.941 L192.084,405.941 L192.334,409.48 L192.334,412.766 L195.831,416.557 C197.829,418.58 202.325,423.382 205.822,426.921 L212.566,433.493 L227.553,433.493 L242.29,433.493 L247.286,428.69 L252.032,423.635 L252.032,366.763 L252.032,310.143 L245.538,303.571 L239.043,296.999 L233.298,296.999 C226.054,296.747 226.054,296.747 225.805,298.01 L225.555,299.022 L218.811,299.022 L212.067,299.022 L212.067,292.197 L212.067,285.372 L215.564,285.372 L219.061,285.119 L234.297,269.448 L249.784,253.777 L249.784,251.249 L249.784,248.468 L238.044,236.588 C228.303,226.983 226.054,224.709 226.054,225.214 C225.805,226.225 225.555,226.478 218.561,226.225 L212.067,226.225 L212.067,219.4 L212.067,212.576 L215.564,212.576 L219.061,212.323 L233.298,197.915 L247.536,183.255 L247.536,175.925 L247.536,168.342 L238.294,158.737 C233.298,153.681 228.802,149.384 228.552,149.132 C227.553,148.879 226.804,149.132 226.554,150.143 L226.304,151.154 L219.56,151.154 L212.816,151.154 L212.816,144.329 L212.816,137.504 L216.313,137.504 L219.81,137.252 L233.298,123.602 L246.787,109.7 L246.787,96.556 L246.787,83.413 L239.543,76.082 L232.549,68.752 L229.302,68.752 C225.055,68.499 224.556,68.752 224.306,69.763 L224.056,70.774 L217.312,70.774 L210.568,70.774 L210.568,63.95 L210.568,57.125 L217.312,57.125 L224.056,57.125 L224.306,57.883 C224.306,58.389 224.556,58.642 224.556,58.894 C224.556,58.894 227.303,58.894 230.301,59.147 C235.047,59.147 236.046,59.147 236.795,59.653 C237.794,60.158 255.279,77.852 256.029,79.116 C256.278,79.874 256.278,80.632 256.528,96.556 C256.528,111.217 256.278,113.239 256.029,113.997 C255.779,114.503 250.283,120.316 243.539,126.888 L231.55,139.274 L232.799,139.779 C234.048,140.538 256.029,162.781 256.778,164.045 C257.028,164.803 257.277,165.561 257.277,175.925 C257.277,185.277 257.028,186.794 256.778,187.552 C256.528,188.058 250.533,194.124 243.29,201.454 C236.296,208.784 230.551,214.598 230.551,214.851 C230.551,215.103 236.795,221.423 244.538,229.258 C252.032,237.094 258.776,243.919 259.026,244.424 C259.276,245.183 259.525,245.941 259.525,251.249 C259.525,256.304 259.276,257.315 259.026,258.074 C258.776,258.579 252.532,265.151 244.788,272.734 C237.295,280.57 231.05,286.889 231.3,286.889 C231.3,287.142 234.048,287.142 237.045,287.394 C241.791,287.394 242.79,287.394 243.539,287.9 C244.538,288.405 260.525,304.582 261.274,305.846 C261.524,306.605 261.774,307.868 261.774,367.015 C261.774,425.91 261.524,427.174 261.274,427.932 C260.525,429.196 247.536,442.34 246.537,442.845 C245.787,443.098 243.789,443.098 227.553,443.098 C212.067,443.098 209.069,443.098 208.57,442.845 z M39.216,422.624 C40.215,421.866 40.215,421.613 40.215,420.349 C40.215,419.085 40.215,418.832 39.216,418.074 C38.467,417.063 38.217,417.063 36.968,417.063 C35.719,417.063 35.469,417.063 34.72,418.074 C33.721,418.832 33.721,419.085 33.721,420.349 C33.721,421.613 33.721,421.866 34.47,422.624 C35.469,423.635 35.969,423.888 37.218,423.635 C38.217,423.635 38.717,423.382 39.216,422.624 z M187.588,415.041 C188.587,414.283 188.587,414.03 188.587,412.766 C188.587,411.502 188.587,411.249 187.588,410.491 C186.838,409.48 186.589,409.48 185.34,409.48 C184.091,409.48 183.841,409.48 183.092,410.491 C182.092,411.249 182.092,411.502 182.092,412.766 C182.092,414.03 182.092,414.283 182.842,415.041 C183.841,416.052 184.341,416.305 185.589,416.052 C186.589,416.052 187.088,415.799 187.588,415.041 z M90.921,414.283 C91.92,413.524 91.92,413.272 91.92,412.008 C91.92,410.744 91.92,410.491 90.921,409.733 C90.172,408.722 89.922,408.722 88.673,408.722 C87.424,408.722 87.175,408.722 86.425,409.733 C85.426,410.491 85.426,410.744 85.426,412.008 C85.426,413.272 85.426,413.524 86.175,414.283 C87.175,415.294 87.674,415.546 88.923,415.294 C89.922,415.294 90.422,415.041 90.921,414.283 z M221.059,294.472 C222.058,293.714 222.058,293.461 222.058,292.197 C222.058,290.933 222.058,290.68 221.059,289.922 C220.309,288.911 220.06,288.911 218.811,288.911 C217.562,288.911 217.312,288.911 216.563,289.922 C215.564,290.68 215.564,290.933 215.564,292.197 C215.564,293.461 215.564,293.714 216.313,294.472 C217.312,295.483 217.812,295.736 219.061,295.483 C220.06,295.483 220.559,295.23 221.059,294.472 z M221.059,221.675 C222.058,220.917 222.058,220.664 222.058,219.4 C222.058,218.137 222.058,217.884 221.059,217.126 C220.309,216.114 220.06,216.114 218.811,216.114 C217.562,216.114 217.312,216.114 216.563,217.126 C215.564,217.884 215.564,218.137 215.564,219.4 C215.564,220.664 215.564,220.917 216.313,221.675 C217.312,222.686 217.812,222.939 219.061,222.686 C220.06,222.686 220.559,222.434 221.059,221.675 z M221.808,146.604 C222.807,145.846 222.807,145.593 222.807,144.329 C222.807,143.065 222.807,142.812 221.808,142.054 C221.059,141.043 220.809,141.043 219.56,141.043 C218.311,141.043 218.061,141.043 217.312,142.054 C216.313,142.812 216.313,143.065 216.313,144.329 C216.313,145.593 216.313,145.846 217.062,146.604 C218.061,147.615 218.561,147.868 219.81,147.615 C220.809,147.615 221.309,147.362 221.808,146.604 z M219.56,66.225 C220.559,65.466 220.559,65.214 220.559,63.95 C220.559,62.686 220.559,62.433 219.56,61.675 C218.811,60.664 218.561,60.664 217.312,60.664 C216.063,60.664 215.813,60.664 215.064,61.675 C214.065,62.433 214.065,62.686 214.065,63.95 C214.065,65.214 214.065,65.466 214.814,66.225 C215.813,67.236 216.313,67.488 217.562,67.236 C218.561,67.236 219.061,66.983 219.56,66.225 z M202.825,418.832 C198.578,416.81 197.579,411.755 200.826,407.963 L201.576,406.952 L201.576,396.842 L201.576,386.731 L195.831,380.918 L190.086,375.104 L184.341,375.104 C180.094,374.851 178.346,374.851 178.096,374.598 C177.596,374.346 167.605,364.235 155.615,352.355 L133.884,330.364 L86.175,330.364 C43.962,330.364 37.967,330.364 36.968,330.617 C34.47,331.376 32.222,330.87 30.723,329.353 C29.724,328.595 28.975,326.573 28.975,325.056 C28.975,323.54 29.724,321.518 30.723,320.759 C32.971,318.484 36.718,318.737 39.216,321.012 L40.215,322.023 L88.424,322.276 C134.883,322.276 136.882,322.276 137.881,322.782 C138.131,323.034 148.372,332.892 160.111,345.025 L181.593,366.763 L187.338,367.015 C192.084,367.015 193.333,367.015 193.832,367.521 C194.831,368.027 208.819,382.181 209.319,383.192 C209.569,383.951 209.569,385.215 209.569,395.325 L209.818,406.447 L210.568,407.711 C213.315,410.744 213.315,414.283 211.067,417.316 C210.068,418.58 207.57,419.843 205.822,419.843 C204.573,419.843 204.073,419.591 202.825,418.832 z M208.07,415.041 C209.069,414.283 209.069,414.03 209.069,412.766 C209.069,411.502 209.069,411.249 208.07,410.491 C207.321,409.48 207.071,409.48 205.822,409.48 C204.573,409.48 204.323,409.48 203.574,410.491 C202.575,411.249 202.575,411.502 202.575,412.766 C202.575,414.03 202.575,414.283 203.324,415.041 C204.323,416.052 204.823,416.305 206.072,416.052 C207.071,416.052 207.57,415.799 208.07,415.041 z M36.968,327.331 C37.967,326.573 37.967,326.32 37.967,325.056 C37.967,323.793 37.967,323.54 36.968,322.782 C36.219,321.77 35.969,321.77 34.72,321.77 C33.471,321.77 33.221,321.77 32.472,322.782 C31.473,323.54 31.473,323.793 31.473,325.056 C31.473,326.32 31.473,326.573 32.222,327.331 C33.221,328.342 33.721,328.595 34.97,328.342 C35.969,328.342 36.468,328.09 36.968,327.331 z M106.158,418.074 C103.66,417.063 102.411,414.788 102.411,412.008 C102.411,410.744 102.411,410.238 103.161,408.469 L104.16,406.447 L104.16,396.842 C104.16,391.281 104.16,386.984 104.16,386.478 C103.91,386.226 102.411,384.204 100.413,382.434 L97.166,378.895 L78.932,378.895 C64.194,378.643 60.697,378.643 60.198,378.39 C59.698,378.137 53.704,372.071 46.71,364.993 L33.971,352.102 L31.473,352.102 L28.975,351.85 L28.975,346.036 L28.975,340.222 L34.72,340.222 L40.465,340.222 L40.715,342.75 L40.715,345.278 L52.455,357.158 L64.444,369.038 L82.429,369.29 C100.413,369.29 100.413,369.29 101.412,369.796 C102.661,370.554 112.653,381.17 113.402,382.181 C113.652,382.94 113.901,384.456 113.901,394.567 C113.901,405.689 113.901,406.194 114.401,407.205 C115.65,409.48 115.9,410.491 115.9,412.008 C115.9,414.788 114.651,417.063 112.153,418.074 C110.904,418.832 110.404,419.085 109.156,419.085 C107.907,419.085 107.407,418.832 106.158,418.074 z M111.404,414.283 C112.403,413.524 112.403,413.272 112.403,412.008 C112.403,410.744 112.403,410.491 111.404,409.733 C110.654,408.722 110.404,408.722 109.156,408.722 C107.907,408.722 107.657,408.722 106.908,409.733 C105.908,410.491 105.908,410.744 105.908,412.008 C105.908,413.272 105.908,413.524 106.658,414.283 C107.657,415.294 108.156,415.546 109.405,415.294 C110.404,415.294 110.904,415.041 111.404,414.283 z M36.968,348.311 C37.967,347.553 37.967,347.3 37.967,346.036 C37.967,344.772 37.967,344.519 36.968,343.761 C36.219,342.75 35.969,342.75 34.72,342.75 C33.471,342.75 33.221,342.75 32.472,343.761 C31.473,344.519 31.473,344.772 31.473,346.036 C31.473,347.3 31.473,347.553 32.222,348.311 C33.221,349.322 33.721,349.575 34.97,349.322 C35.969,349.322 36.468,349.069 36.968,348.311 z M225.805,414.03 C225.805,413.777 225.805,413.524 225.805,413.272 C225.805,412.008 226.804,411.502 227.553,412.513 C228.303,413.019 227.803,414.283 226.804,414.283 C226.304,414.283 226.054,414.03 225.805,414.03 z M129.388,413.272 C128.889,413.019 128.889,411.755 129.638,411.502 C130.637,410.997 131.636,412.26 130.887,413.272 C130.387,413.777 130.137,413.777 129.388,413.272 z M36.219,400.633 C35.469,400.128 35.969,398.864 36.968,398.864 C37.967,398.864 38.467,399.875 37.717,400.633 C37.218,401.139 36.968,401.139 36.219,400.633 z M216.063,340.222 C215.314,339.97 214.315,339.464 214.065,339.211 C213.066,338.706 212.566,338.706 204.823,338.706 C197.829,338.706 196.58,338.453 195.831,338.2 C195.331,337.947 186.089,328.595 174.849,317.473 L154.616,296.999 L100.163,296.999 C54.952,296.747 45.71,296.747 45.211,296.494 C44.711,296.241 41.964,293.461 38.717,290.428 L32.971,284.614 L30.723,284.614 L28.226,284.361 L28.226,278.548 L28.226,272.734 L33.971,272.734 L39.716,272.734 L39.965,275.262 L39.965,277.789 L44.711,282.339 L49.457,287.142 L103.66,287.394 C155.865,287.394 158.113,287.394 159.112,287.9 C159.362,288.153 168.854,297.505 179.844,308.627 L200.077,328.848 L206.571,328.848 L213.315,329.101 L215.314,328.09 C217.062,327.079 217.562,327.079 218.811,327.079 C222.557,327.079 225.555,330.112 225.555,333.903 C225.555,336.684 224.306,338.958 221.808,339.97 C219.81,340.981 217.812,341.233 216.063,340.222 z M221.059,336.178 C222.058,335.42 222.058,335.167 222.058,333.903 C222.058,332.639 222.058,332.387 221.059,331.628 C220.309,330.617 220.06,330.617 218.811,330.617 C217.562,330.617 217.312,330.617 216.563,331.628 C215.564,332.387 215.564,332.639 215.564,333.903 C215.564,335.167 215.564,335.42 216.313,336.178 C217.312,337.189 217.812,337.442 219.061,337.189 C220.06,337.189 220.559,336.936 221.059,336.178 z M36.219,280.822 C37.218,280.064 37.218,279.811 37.218,278.548 C37.218,277.284 37.218,277.031 36.219,276.273 C35.469,275.262 35.22,275.262 33.971,275.262 C32.722,275.262 32.472,275.262 31.723,276.273 C30.723,277.031 30.723,277.284 30.723,278.548 C30.723,279.811 30.723,280.064 31.473,280.822 C32.472,281.833 32.971,282.086 34.22,281.833 C35.22,281.833 35.719,281.581 36.219,280.822 z M218.061,313.935 C217.562,313.682 217.562,312.418 218.311,312.165 C219.56,311.66 220.559,312.924 219.56,313.935 C218.811,314.44 218.811,314.44 218.061,313.935 z M216.063,267.426 C215.314,267.173 214.315,266.668 214.065,266.415 C213.066,265.909 212.816,265.909 124.642,265.909 C43.712,265.909 35.969,265.657 35.22,265.404 C34.72,265.151 34.22,264.645 33.721,264.393 C33.471,263.887 32.472,263.382 31.723,263.129 C29.475,261.865 27.976,259.843 28.226,257.568 C28.226,256.304 28.725,254.282 29.724,253.524 C30.474,252.513 32.472,251.754 33.971,251.754 C35.469,251.754 37.468,252.513 38.217,253.524 C38.467,253.777 38.966,254.535 39.216,255.04 C39.716,255.546 40.215,256.051 40.465,256.051 C40.715,256.051 79.681,256.051 127.14,256.051 L213.315,256.051 L215.314,255.04 C217.062,254.282 217.562,254.282 218.811,254.282 C222.557,254.282 225.555,257.315 225.555,261.107 C225.555,263.887 224.306,266.162 221.808,267.173 C219.81,268.184 217.812,268.437 216.063,267.426 z M221.059,263.382 C222.058,262.623 222.058,262.371 222.058,261.107 C222.058,259.843 222.058,259.59 221.059,258.832 C220.309,257.821 220.06,257.821 218.811,257.821 C217.562,257.821 217.312,257.821 216.563,258.832 C215.564,259.59 215.564,259.843 215.564,261.107 C215.564,262.371 215.564,262.623 216.313,263.382 C217.312,264.393 217.812,264.645 219.061,264.393 C220.06,264.393 220.559,264.14 221.059,263.382 z M36.219,259.843 C37.218,259.085 37.218,258.832 37.218,257.568 C37.218,256.304 37.218,256.051 36.219,255.293 C35.469,254.282 35.22,254.282 33.971,254.282 C32.722,254.282 32.472,254.282 31.723,255.293 C30.723,256.051 30.723,256.304 30.723,257.568 C30.723,258.832 30.723,259.085 31.473,259.843 C32.472,260.854 32.971,261.107 34.22,260.854 C35.22,260.854 35.719,260.601 36.219,259.843 z M218.311,240.885 C218.061,240.633 217.812,240.38 218.061,239.874 C218.061,239.369 218.311,239.369 218.811,239.369 C219.81,239.369 220.559,240.127 220.06,240.633 C219.56,241.391 218.561,241.391 218.311,240.885 z M27.476,228.753 C27.476,228.753 27.476,225.972 27.476,222.939 L27.476,217.378 L66.443,217.378 L105.659,217.378 L122.894,199.685 C132.385,190.08 140.628,181.991 141.128,181.738 C141.877,181.233 143.376,181.233 178.346,181.233 L214.564,180.98 L216.313,179.969 C217.812,179.211 218.311,179.211 219.56,179.211 C223.307,179.211 226.304,182.244 226.304,186.035 C226.304,188.816 225.055,191.091 222.557,192.102 C221.309,192.86 220.809,193.113 219.56,193.113 C218.061,192.86 217.562,192.86 214.315,191.091 C213.815,190.838 208.819,190.838 179.345,190.838 L145.124,190.838 L127.889,208.532 C118.148,218.389 110.155,226.478 109.655,226.731 C108.906,226.983 105.659,227.236 74.685,227.236 C55.952,227.236 40.215,227.236 39.965,227.236 C39.716,227.236 39.216,227.742 39.216,228.247 L38.966,229.006 L33.221,229.006 C28.725,229.006 27.476,229.006 27.476,228.753 z M35.469,225.467 C36.468,224.709 36.468,224.456 36.468,223.192 C36.468,221.928 36.468,221.675 35.469,220.917 C34.72,219.906 34.47,219.906 33.221,219.906 C31.972,219.906 31.723,219.906 30.973,220.917 C29.974,221.675 29.974,221.928 29.974,223.192 C29.974,224.456 29.974,224.709 30.723,225.467 C31.723,226.478 32.222,226.731 33.471,226.478 C34.47,226.478 34.97,226.225 35.469,225.467 z M221.808,188.31 C222.807,187.552 222.807,187.299 222.807,186.035 C222.807,184.772 222.807,184.519 221.808,183.761 C221.059,182.749 220.809,182.749 219.56,182.749 C218.311,182.749 218.061,182.749 217.312,183.761 C216.313,184.519 216.313,184.772 216.313,186.035 C216.313,187.299 216.313,187.552 217.062,188.31 C218.061,189.321 218.561,189.574 219.81,189.321 C220.809,189.321 221.309,189.069 221.808,188.31 z M30.723,207.52 C29.225,206.762 28.475,206.257 27.976,204.74 C27.226,203.223 27.226,201.201 27.976,199.938 C28.475,198.168 29.225,197.663 30.723,196.904 C32.222,196.146 33.721,196.146 35.469,196.652 C36.468,196.904 39.466,197.157 55.702,196.904 L74.935,196.904 L121.645,149.384 C147.622,123.097 169.104,101.612 169.603,101.359 C170.353,100.853 171.602,100.853 191.334,100.853 L212.316,100.601 L214.065,99.59 C216.313,98.326 218.061,98.326 220.309,99.59 C224.306,101.612 225.305,106.414 222.557,110.206 C221.558,111.47 219.061,112.733 217.312,112.733 C215.813,112.481 215.564,112.481 212.067,110.711 C211.567,110.459 208.57,110.459 192.583,110.459 L173.6,110.459 L126.64,158.231 C100.913,184.266 79.431,206.004 78.932,206.257 C78.182,206.509 75.934,206.762 57.95,206.762 L37.717,206.762 L36.219,207.52 C33.971,208.279 32.472,208.279 30.723,207.52 z M35.469,204.487 C36.468,203.729 36.468,203.476 36.468,202.212 C36.468,200.949 36.468,200.696 35.469,199.938 C34.72,198.926 34.47,198.926 33.221,198.926 C31.972,198.926 31.723,198.926 30.973,199.938 C29.974,200.696 29.974,200.949 29.974,202.212 C29.974,203.476 29.974,203.729 30.723,204.487 C31.723,205.498 32.222,205.751 33.471,205.498 C34.47,205.498 34.97,205.246 35.469,204.487 z M219.56,107.931 C220.559,107.173 220.559,106.92 220.559,105.656 C220.559,104.392 220.559,104.139 219.56,103.381 C218.811,102.37 218.561,102.37 217.312,102.37 C216.063,102.37 215.813,102.37 215.064,103.381 C214.065,104.139 214.065,104.392 214.065,105.656 C214.065,106.92 214.065,107.173 214.814,107.931 C215.813,108.942 216.313,109.195 217.562,108.942 C218.561,108.942 219.061,108.689 219.56,107.931 z M27.226,172.133 C27.226,172.133 27.226,168.847 27.226,165.309 L27.226,158.737 L33.971,158.737 L40.715,158.737 L40.965,159.495 C41.214,160.253 41.214,160.506 41.964,160.506 C42.463,160.506 50.956,160.506 60.947,160.506 L79.182,160.506 L120.396,119.053 L161.36,77.599 L161.61,72.038 L161.61,66.477 L167.355,66.477 L173.1,66.477 L173.1,72.038 L173.35,77.852 L172.601,78.357 C172.351,78.863 172.101,79.116 172.101,79.368 C171.851,79.621 171.851,80.127 171.602,80.632 C171.102,81.643 84.677,169.1 83.428,169.858 C82.678,170.111 81.929,170.364 62.446,170.364 C51.206,170.364 41.964,170.364 41.714,170.364 C41.214,170.617 40.965,170.869 40.965,171.375 L40.715,172.386 L33.971,172.386 C28.725,172.386 27.226,172.386 27.226,172.133 z M36.219,167.836 C37.218,167.078 37.218,166.825 37.218,165.561 C37.218,164.298 37.218,164.045 36.219,163.286 C35.469,162.275 35.22,162.275 33.971,162.275 C32.722,162.275 32.472,162.275 31.723,163.286 C30.723,164.045 30.723,164.298 30.723,165.561 C30.723,166.825 30.723,167.078 31.473,167.836 C32.472,168.847 32.971,169.1 34.22,168.847 C35.22,168.847 35.719,168.595 36.219,167.836 z M169.603,74.566 C170.602,73.808 170.602,73.555 170.602,72.291 C170.602,71.027 170.602,70.774 169.603,70.016 C168.854,69.005 168.604,69.005 167.355,69.005 C166.106,69.005 165.857,69.005 165.107,70.016 C164.108,70.774 164.108,71.027 164.108,72.291 C164.108,73.555 164.108,73.808 164.857,74.566 C165.857,75.577 166.356,75.83 167.605,75.577 C168.604,75.577 169.104,75.324 169.603,74.566 z M219.061,165.814 C218.811,165.814 218.811,165.309 218.811,165.056 C218.811,164.803 218.811,164.298 219.061,164.298 C219.061,164.045 219.56,164.045 219.81,164.045 C220.06,164.045 220.559,164.045 220.559,164.298 C220.809,164.298 221.059,164.803 221.059,165.056 C221.059,165.309 220.809,165.814 220.559,165.814 C220.559,166.067 220.06,166.32 219.81,166.32 C219.56,166.32 219.061,166.067 219.061,165.814 z M30.973,150.648 C26.977,148.626 25.978,143.824 28.725,140.032 C28.975,139.527 29.974,138.768 30.973,138.515 C33.221,137.252 34.97,137.252 37.218,138.515 L38.966,139.527 L48.208,139.274 L57.7,139.274 L82.179,114.25 L106.908,89.226 L106.908,84.171 C106.908,79.368 106.908,78.61 106.408,78.357 C106.158,77.852 105.908,77.346 106.158,72.038 L106.158,66.477 L111.903,66.477 L117.648,66.477 L117.648,72.291 C117.898,77.852 117.898,77.852 117.149,78.357 C116.649,78.863 116.649,78.863 116.649,85.94 C116.399,91.248 116.399,93.27 116.15,93.776 C115.65,94.534 62.946,147.868 61.946,148.373 C61.197,148.879 59.948,148.879 50.456,149.132 L39.466,149.132 L38.467,149.89 C35.969,151.659 33.471,152.165 30.973,150.648 z M36.219,146.857 C37.218,146.098 37.218,145.846 37.218,144.582 C37.218,143.318 37.218,143.065 36.219,142.307 C35.469,141.296 35.22,141.296 33.971,141.296 C32.722,141.296 32.472,141.296 31.723,142.307 C30.723,143.065 30.723,143.318 30.723,144.582 C30.723,145.846 30.723,146.098 31.473,146.857 C32.472,147.868 32.971,148.121 34.22,147.868 C35.22,147.868 35.719,147.615 36.219,146.857 z M114.151,74.566 C115.15,73.808 115.15,73.555 115.15,72.291 C115.15,71.027 115.15,70.774 114.151,70.016 C113.402,69.005 113.152,69.005 111.903,69.005 C110.654,69.005 110.404,69.005 109.655,70.016 C108.656,70.774 108.656,71.027 108.656,72.291 C108.656,73.555 108.656,73.808 109.405,74.566 C110.404,75.577 110.904,75.83 112.153,75.577 C113.152,75.577 113.652,75.324 114.151,74.566 z M30.973,129.921 C26.977,128.152 25.978,123.35 28.725,119.305 C29.225,118.547 31.473,117.283 32.971,116.778 C34.22,116.525 34.47,116.272 41.714,108.942 L49.207,101.359 L49.207,90.996 C49.207,81.138 49.207,80.379 48.708,79.874 C48.458,79.368 48.208,78.863 48.458,73.555 L48.458,67.994 L54.203,67.994 L59.948,67.994 L59.948,73.808 C60.198,79.368 60.198,79.368 59.449,79.874 L58.949,80.379 L58.949,92.765 C58.699,102.623 58.699,105.403 58.449,105.909 C58.2,106.162 54.203,110.206 49.457,115.008 C41.464,123.097 41.214,123.602 40.965,124.866 C40.215,127.394 39.216,128.91 36.968,129.921 C35.719,130.68 35.22,130.933 33.971,130.933 C32.722,130.933 32.222,130.68 30.973,129.921 z M36.219,126.13 C37.218,125.372 37.218,125.119 37.218,123.855 C37.218,122.591 37.218,122.338 36.219,121.58 C35.469,120.569 35.22,120.569 33.971,120.569 C32.722,120.569 32.472,120.569 31.723,121.58 C30.723,122.338 30.723,122.591 30.723,123.855 C30.723,125.119 30.723,125.372 31.473,126.13 C32.472,127.141 32.971,127.394 34.22,127.141 C35.22,127.141 35.719,126.888 36.219,126.13 z M56.451,76.082 C57.45,75.324 57.45,75.071 57.45,73.808 C57.45,72.544 57.45,72.291 56.451,71.533 C55.702,70.522 55.452,70.522 54.203,70.522 C52.954,70.522 52.704,70.522 51.955,71.533 C50.956,72.291 50.956,72.544 50.956,73.808 C50.956,75.071 50.956,75.324 51.705,76.082 C52.704,77.093 53.204,77.346 54.453,77.093 C55.452,77.093 55.952,76.841 56.451,76.082 z M216.812,85.688 C216.563,85.688 216.563,85.182 216.563,84.929 C216.563,84.676 216.563,84.171 216.812,84.171 C216.812,83.918 217.312,83.918 217.562,83.918 C217.812,83.918 218.311,83.918 218.311,84.171 C218.561,84.171 218.811,84.676 218.811,84.929 C218.811,85.182 218.561,85.688 218.311,85.688 C218.311,85.94 217.812,86.193 217.562,86.193 C217.312,86.193 216.812,85.94 216.812,85.688 z M32.971,74.566 C32.222,73.808 32.722,72.796 33.721,72.796 C34.47,72.796 34.97,73.049 34.97,73.808 C34.97,74.819 33.721,75.324 32.971,74.566 z M90.921,73.302 C90.422,72.796 90.422,72.544 90.422,72.544 C90.422,72.291 90.422,72.038 90.921,71.785 C91.171,71.28 91.421,71.28 91.671,71.28 C91.671,71.28 91.92,71.28 92.42,71.785 C92.67,72.038 92.92,72.291 92.92,72.544 C92.92,72.544 92.67,72.796 92.42,73.302 C91.92,73.555 91.671,73.808 91.671,73.808 C91.421,73.808 91.171,73.555 90.921,73.302 z M146.373,73.302 C146.124,73.049 145.874,72.796 146.124,72.291 C146.124,71.785 146.373,71.533 146.873,71.533 C148.122,71.28 148.621,72.544 147.872,73.302 C147.123,73.808 146.873,73.808 146.373,73.302 z" fill="#000000"/>
  </g>
</svg>
