<?xml version="1.0" standalone="no"?>

<!DOCTYPE svg PUBLIC "-//W3C//DTD SVG 20010904//EN"

 "http://www.w3.org/TR/2001/REC-SVG-20010904/DTD/svg10.dtd">

<svg version="1.0" xmlns="http://www.w3.org/2000/svg"

 width="876.000000pt" height="955.000000pt" viewBox="0 0 876.000000 955.000000"

 preserveAspectRatio="xMidYMid meet">

<path fill="#fefefe" stroke="none" d="
M0 477

L0 0

L438 0

L876 0

L876 477

L876 955

L438 955

L0 955

L0 477

Z

"/>

<path fill="#000000" stroke="none" d="
M714 728

C713 728 711 726 709 725

C705 721 705 715 709 711

C718 702 732 715 723 724

C720 727 718 728 714 728

Z

M160 680

C150 677 147 665 154 657

C164 647 181 657 177 671

C176 674 171 680 168 681

C168 681 166 681 165 681

C164 681 162 681 160 680

Z

M628 678

C562 677 547 677 545 676

C543 675 524 656 502 634

L462 594

L462 586

L462 578

L468 572

L474 566

L482 566

L490 566

L526 602

L562 638

L643 638

L724 638

L730 644

L737 650

L737 658

L737 666

L730 672

L724 679

L716 678

C712 678 672 678 628 678

Z

M156 607

C151 605 146 601 143 596

C140 592 140 590 140 584

C140 578 140 576 143 572

C150 560 164 556 176 563

L180 566

L245 566

L310 566

L316 572

L322 578

L323 586

L323 594

L316 600

L310 606

L244 606

C184 605 176 605 172 607

C166 609 161 609 156 607

Z

M143 466

L143 442

L226 442

L310 443

L316 449

L323 455

L323 463

L323 471

L316 477

L310 483

L251 483

L192 482

L192 486

L192 491

L167 491

L143 491

L143 466

Z

M468 477

L462 471

L462 463

L462 455

L508 409

C533 383 556 362 558 361

C561 359 565 359 642 359

L724 358

L730 365

L737 371

L737 379

L737 387

L731 393

L725 399

L650 399

L575 398

L533 441

L490 484

L482 484

L474 484

L468 477

Z

M714 449

C713 449 711 447 709 446

C705 442 705 436 709 432

C718 423 732 436 723 445

C720 448 718 449 714 449

Z

M159 406

C154 404 149 400 146 395

C143 391 143 389 143 383

C143 377 143 375 146 371

C149 366 155 361 159 360

C161 359 170 351 182 340

C192 329 203 320 205 319

C208 317 211 317 256 317

L304 316

L310 323

L316 329

L317 337

L317 345

L310 351

L304 357

L263 357

L222 356

L207 372

C197 382 191 389 190 390

C189 395 184 401 179 404

C174 407 165 408 159 406

Z

M462 351

L456 345

L456 337

L456 329

L572 212

C636 148 691 95 693 94

C695 92 699 92 713 92

L730 91

L736 98

L743 104

L743 112

L743 120

L736 126

L730 133

L720 132

L710 132

L597 245

L484 358

L476 358

L468 358

L462 351

Z

M873 342

C873 341 873 341 873 341

C873 342 873 343 873 343

C873 344 873 343 873 342

Z

M720 182

C719 182 717 180 715 179

C711 175 711 169 715 165

C724 156 738 169 729 178

C726 181 724 182 720 182

Z

"/>

</svg>

