solid HallSensorHolder
facet normal -0.0 -0.0 1.0
  outer loop
    vertex 34.0 1.9999999999999998 0.9999999999999999
    vertex 0.0 24.0 0.9999999999999999
    vertex 0.0 1.9999999999999998 0.9999999999999999
  endloop
endfacet
facet normal -0.0 -0.0 1.0
  outer loop
    vertex 0.0 24.0 0.9999999999999999
    vertex 34.0 1.9999999999999998 0.9999999999999999
    vertex 34.0 24.0 0.9999999999999999
  endloop
endfacet
facet normal 0.0 -1.0 0.0
  outer loop
    vertex 34.0 0.0 0.0
    vertex 28.999999999999996 0.0 1.9999999999999998
    vertex 0.0 0.0 0.0
  endloop
endfacet
facet normal 0.0 -1.0 0.0
  outer loop
    vertex 28.999999999999996 0.0 1.9999999999999998
    vertex 34.0 0.0 0.0
    vertex 34.0 0.0 8.499999999999998
  endloop
endfacet
facet normal 0.0 -1.0 0.0
  outer loop
    vertex 28.999999999999996 0.0 1.9999999999999998
    vertex 34.0 0.0 8.499999999999998
    vertex 28.999999999999996 0.0 8.499999999999998
  endloop
endfacet
facet normal 0.0 -1.0 0.0
  outer loop
    vertex 0.0 0.0 1.9999999999999998
    vertex 0.0 0.0 0.0
    vertex 28.999999999999996 0.0 1.9999999999999998
  endloop
endfacet
facet normal -0.0 1.0 -0.0
  outer loop
    vertex 0.0 25.999999999999996 1.9999999999999998
    vertex 34.0 25.999999999999996 0.0
    vertex 0.0 25.999999999999996 0.0
  endloop
endfacet
facet normal -0.0 1.0 -0.0
  outer loop
    vertex 34.0 25.999999999999996 0.0
    vertex 0.0 25.999999999999996 1.9999999999999998
    vertex 28.999999999999996 25.999999999999996 1.9999999999999998
  endloop
endfacet
facet normal -0.0 1.0 -0.0
  outer loop
    vertex 34.0 25.999999999999996 0.0
    vertex 28.999999999999996 25.999999999999996 1.9999999999999998
    vertex 34.0 25.999999999999996 8.499999999999998
  endloop
endfacet
facet normal -0.0 1.0 -0.0
  outer loop
    vertex 34.0 25.999999999999996 8.499999999999998
    vertex 28.999999999999996 25.999999999999996 1.9999999999999998
    vertex 28.999999999999996 25.999999999999996 8.499999999999998
  endloop
endfacet
facet normal 0.0 -1.0 0.0
  outer loop
    vertex 34.0 24.0 0.9999999999999999
    vertex 28.999999999999996 24.0 1.9999999999999998
    vertex 0.0 24.0 0.9999999999999999
  endloop
endfacet
facet normal 0.0 -1.0 0.0
  outer loop
    vertex 28.999999999999996 24.0 1.9999999999999998
    vertex 34.0 24.0 0.9999999999999999
    vertex 34.0 24.0 6.499999999999999
  endloop
endfacet
facet normal 0.0 -1.0 0.0
  outer loop
    vertex 28.999999999999996 24.0 1.9999999999999998
    vertex 34.0 24.0 6.499999999999999
    vertex 28.999999999999996 24.0 6.499999999999999
  endloop
endfacet
facet normal 0.0 -1.0 0.0
  outer loop
    vertex 0.0 24.0 1.9999999999999998
    vertex 0.0 24.0 0.9999999999999999
    vertex 28.999999999999996 24.0 1.9999999999999998
  endloop
endfacet
facet normal 0.0 0.0 1.0
  outer loop
    vertex 28.999999999999996 0.0 1.9999999999999998
    vertex 0.0 1.9999999999999998 1.9999999999999998
    vertex 0.0 0.0 1.9999999999999998
  endloop
endfacet
facet normal 0.0 0.0 1.0
  outer loop
    vertex 0.0 1.9999999999999998 1.9999999999999998
    vertex 28.999999999999996 0.0 1.9999999999999998
    vertex 28.999999999999996 1.9999999999999998 1.9999999999999998
  endloop
endfacet
facet normal -1.0 0.0 0.0
  outer loop
    vertex 28.999999999999996 0.0 8.499999999999998
    vertex 28.999999999999996 1.9999999999999998 6.499999999999999
    vertex 28.999999999999996 0.0 1.9999999999999998
  endloop
endfacet
facet normal -1.0 0.0 0.0
  outer loop
    vertex 28.999999999999996 1.9999999999999998 6.499999999999999
    vertex 28.999999999999996 0.0 8.499999999999998
    vertex 28.999999999999996 25.999999999999996 8.499999999999998
  endloop
endfacet
facet normal -1.0 0.0 0.0
  outer loop
    vertex 28.999999999999996 1.9999999999999998 6.499999999999999
    vertex 28.999999999999996 25.999999999999996 8.499999999999998
    vertex 28.999999999999996 24.0 6.499999999999999
  endloop
endfacet
facet normal -1.0 0.0 0.0
  outer loop
    vertex 28.999999999999996 24.0 6.499999999999999
    vertex 28.999999999999996 25.999999999999996 8.499999999999998
    vertex 28.999999999999996 24.0 1.9999999999999998
  endloop
endfacet
facet normal -1.0 0.0 0.0
  outer loop
    vertex 28.999999999999996 24.0 1.9999999999999998
    vertex 28.999999999999996 25.999999999999996 8.499999999999998
    vertex 28.999999999999996 25.999999999999996 1.9999999999999998
  endloop
endfacet
facet normal -1.0 0.0 0.0
  outer loop
    vertex 28.999999999999996 1.9999999999999998 1.9999999999999998
    vertex 28.999999999999996 0.0 1.9999999999999998
    vertex 28.999999999999996 1.9999999999999998 6.499999999999999
  endloop
endfacet
facet normal -0.0 1.0 -0.0
  outer loop
    vertex 0.0 1.9999999999999998 1.9999999999999998
    vertex 34.0 1.9999999999999998 0.9999999999999999
    vertex 0.0 1.9999999999999998 0.9999999999999999
  endloop
endfacet
facet normal -0.0 1.0 -0.0
  outer loop
    vertex 34.0 1.9999999999999998 0.9999999999999999
    vertex 0.0 1.9999999999999998 1.9999999999999998
    vertex 28.999999999999996 1.9999999999999998 1.9999999999999998
  endloop
endfacet
facet normal -0.0 1.0 -0.0
  outer loop
    vertex 34.0 1.9999999999999998 0.9999999999999999
    vertex 28.999999999999996 1.9999999999999998 1.9999999999999998
    vertex 34.0 1.9999999999999998 6.499999999999999
  endloop
endfacet
facet normal -0.0 1.0 -0.0
  outer loop
    vertex 34.0 1.9999999999999998 6.499999999999999
    vertex 28.999999999999996 1.9999999999999998 1.9999999999999998
    vertex 28.999999999999996 1.9999999999999998 6.499999999999999
  endloop
endfacet
facet normal 0.0 0.0 -1.0
  outer loop
    vertex 34.0 24.0 6.499999999999999
    vertex 28.999999999999996 1.9999999999999998 6.499999999999999
    vertex 28.999999999999996 24.0 6.499999999999999
  endloop
endfacet
facet normal 0.0 0.0 -1.0
  outer loop
    vertex 28.999999999999996 1.9999999999999998 6.499999999999999
    vertex 34.0 24.0 6.499999999999999
    vertex 34.0 1.9999999999999998 6.499999999999999
  endloop
endfacet
facet normal 1.0 -0.0 -0.0
  outer loop
    vertex 34.0 0.0 0.0
    vertex 34.0 1.9999999999999998 0.9999999999999999
    vertex 34.0 0.0 8.499999999999998
  endloop
endfacet
facet normal 1.0 -0.0 -0.0
  outer loop
    vertex 34.0 1.9999999999999998 0.9999999999999999
    vertex 34.0 0.0 0.0
    vertex 34.0 25.999999999999996 0.0
  endloop
endfacet
facet normal 1.0 -0.0 -0.0
  outer loop
    vertex 34.0 1.9999999999999998 0.9999999999999999
    vertex 34.0 25.999999999999996 0.0
    vertex 34.0 24.0 0.9999999999999999
  endloop
endfacet
facet normal 1.0 -0.0 -0.0
  outer loop
    vertex 34.0 24.0 0.9999999999999999
    vertex 34.0 25.999999999999996 0.0
    vertex 34.0 24.0 6.499999999999999
  endloop
endfacet
facet normal 1.0 -0.0 -0.0
  outer loop
    vertex 34.0 0.0 8.499999999999998
    vertex 34.0 1.9999999999999998 6.499999999999999
    vertex 34.0 25.999999999999996 8.499999999999998
  endloop
endfacet
facet normal 1.0 -0.0 -0.0
  outer loop
    vertex 34.0 1.9999999999999998 6.499999999999999
    vertex 34.0 0.0 8.499999999999998
    vertex 34.0 1.9999999999999998 0.9999999999999999
  endloop
endfacet
facet normal 1.0 -0.0 -0.0
  outer loop
    vertex 34.0 25.999999999999996 8.499999999999998
    vertex 34.0 1.9999999999999998 6.499999999999999
    vertex 34.0 24.0 6.499999999999999
  endloop
endfacet
facet normal 1.0 -0.0 -0.0
  outer loop
    vertex 34.0 25.999999999999996 8.499999999999998
    vertex 34.0 24.0 6.499999999999999
    vertex 34.0 25.999999999999996 0.0
  endloop
endfacet
facet normal -1.0 0.0 0.0
  outer loop
    vertex 0.0 25.999999999999996 1.9999999999999998
    vertex 0.0 24.0 0.9999999999999999
    vertex 0.0 24.0 1.9999999999999998
  endloop
endfacet
facet normal -1.0 0.0 0.0
  outer loop
    vertex 0.0 1.9999999999999998 1.9999999999999998
    vertex 0.0 0.0 0.0
    vertex 0.0 0.0 1.9999999999999998
  endloop
endfacet
facet normal -1.0 0.0 0.0
  outer loop
    vertex 0.0 0.0 0.0
    vertex 0.0 1.9999999999999998 1.9999999999999998
    vertex 0.0 1.9999999999999998 0.9999999999999999
  endloop
endfacet
facet normal -1.0 0.0 0.0
  outer loop
    vertex 0.0 0.0 0.0
    vertex 0.0 1.9999999999999998 0.9999999999999999
    vertex 0.0 25.999999999999996 0.0
  endloop
endfacet
facet normal -1.0 0.0 0.0
  outer loop
    vertex 0.0 25.999999999999996 0.0
    vertex 0.0 1.9999999999999998 0.9999999999999999
    vertex 0.0 24.0 0.9999999999999999
  endloop
endfacet
facet normal -1.0 0.0 0.0
  outer loop
    vertex 0.0 25.999999999999996 0.0
    vertex 0.0 24.0 0.9999999999999999
    vertex 0.0 25.999999999999996 1.9999999999999998
  endloop
endfacet
facet normal -0.0 -0.0 1.0
  outer loop
    vertex 34.0 0.0 8.499999999999998
    vertex 28.999999999999996 25.999999999999996 8.499999999999998
    vertex 28.999999999999996 0.0 8.499999999999998
  endloop
endfacet
facet normal -0.0 -0.0 1.0
  outer loop
    vertex 28.999999999999996 25.999999999999996 8.499999999999998
    vertex 34.0 0.0 8.499999999999998
    vertex 34.0 25.999999999999996 8.499999999999998
  endloop
endfacet
facet normal 0.0 0.0 1.0
  outer loop
    vertex 28.999999999999996 24.0 1.9999999999999998
    vertex 0.0 25.999999999999996 1.9999999999999998
    vertex 0.0 24.0 1.9999999999999998
  endloop
endfacet
facet normal 0.0 0.0 1.0
  outer loop
    vertex 0.0 25.999999999999996 1.9999999999999998
    vertex 28.999999999999996 24.0 1.9999999999999998
    vertex 28.999999999999996 25.999999999999996 1.9999999999999998
  endloop
endfacet
facet normal 0.0 0.0 -1.0
  outer loop
    vertex 34.0 25.999999999999996 0.0
    vertex 0.0 0.0 0.0
    vertex 0.0 25.999999999999996 0.0
  endloop
endfacet
facet normal 0.0 0.0 -1.0
  outer loop
    vertex 0.0 0.0 0.0
    vertex 34.0 25.999999999999996 0.0
    vertex 34.0 0.0 0.0
  endloop
endfacet
endsolid HallSensorHolder
