solid MagneticPen2
facet normal -4.455554947823453e-17 -1.0 2.239705968665997e-19
  outer loop
    vertex -4.745506346695994e-16 7.75 14.0
    vertex -2.0058475995445373 7.485925153740279 0.0
    vertex -4.745506346695994e-16 7.75 0.0
  endloop
endfacet
facet normal 0.2588190451025208 -0.9659258262890682 -1.2116947234429664e-19
  outer loop
    vertex -2.0058475995445373 7.485925153740279 0.0
    vertex -4.745506346695994e-16 7.75 14.0
    vertex -2.0058475995445373 7.485925153740279 14.0
  endloop
endfacet
facet normal 0.8660254037844387 -0.49999999999999994 2.0250966848397227e-18
  outer loop
    vertex -6.711696879329399 3.874999999999999 0.0
    vertex -7.485925153740279 2.0058475995445355 14.0
    vertex -7.485925153740279 2.0058475995445355 0.0
  endloop
endfacet
facet normal 0.9659258262890682 -0.25881904510252085 7.003909869454489e-19
  outer loop
    vertex -7.485925153740279 2.0058475995445355 14.0
    vertex -6.711696879329399 3.874999999999999 0.0
    vertex -6.711696879329399 3.874999999999999 14.0
  endloop
endfacet
facet normal 0.5000000000000001 -0.8660254037844386 -1.1047231669440296e-18
  outer loop
    vertex -3.8750000000000004 6.711696879329399 14.0
    vertex -5.480077554195743 5.480077554195743 0.0
    vertex -3.8750000000000004 6.711696879329399 0.0
  endloop
endfacet
facet normal 0.7071067811865477 -0.7071067811865475 5.651226001611398e-19
  outer loop
    vertex -5.480077554195743 5.480077554195743 0.0
    vertex -3.8750000000000004 6.711696879329399 14.0
    vertex -5.480077554195743 5.480077554195743 14.0
  endloop
endfacet
facet normal -0.0 -0.0 1.0
  outer loop
    vertex -8.48528137423857 -8.48528137423857 25.999999999999996
    vertex -8.587664508376331 -4.95809041562127 25.999999999999996
    vertex -10.392304845413262 -6.0 25.999999999999996
  endloop
endfacet
facet normal -0.0 -0.0 1.0
  outer loop
    vertex -8.587664508376331 -4.95809041562127 25.999999999999996
    vertex -8.48528137423857 -8.48528137423857 25.999999999999996
    vertex -7.818365896066721 -6.234833976556302 25.999999999999996
  endloop
endfacet
facet normal -0.0 -0.0 1.0
  outer loop
    vertex -7.818365896066721 -6.234833976556302 25.999999999999996
    vertex -8.48528137423857 -8.48528137423857 25.999999999999996
    vertex -6.000000000000001 -10.392304845413262 25.999999999999996
  endloop
endfacet
facet normal -0.0 -0.0 1.0
  outer loop
    vertex -7.818365896066721 -6.234833976556302 25.999999999999996
    vertex -6.000000000000001 -10.392304845413262 25.999999999999996
    vertex -5.9382677622034645 -8.045929156062407 25.999999999999996
  endloop
endfacet
facet normal -0.0 -0.0 1.0
  outer loop
    vertex -5.9382677622034645 -8.045929156062407 25.999999999999996
    vertex -6.000000000000001 -10.392304845413262 25.999999999999996
    vertex -3.1058285412302515 -11.59110991546882 25.999999999999996
  endloop
endfacet
facet normal -0.0 -0.0 1.0
  outer loop
    vertex -5.9382677622034645 -8.045929156062407 25.999999999999996
    vertex -3.1058285412302515 -11.59110991546882 25.999999999999996
    vertex -3.6534864937975087 -9.308707560109472 25.999999999999996
  endloop
endfacet
facet normal -0.0 -0.0 1.0
  outer loop
    vertex -3.6534864937975087 -9.308707560109472 25.999999999999996
    vertex -3.1058285412302515 -11.59110991546882 25.999999999999996
    vertex -2.5664964538061152 -9.57829516304977 25.999999999999996
  endloop
endfacet
facet normal -0.0 -0.0 1.0
  outer loop
    vertex 3.6534864937975158 9.30870756010947 25.999999999999996
    vertex 3.1058285412302573 11.591109915468818 25.999999999999996
    vertex 2.566496453806122 9.578295163049768 25.999999999999996
  endloop
endfacet
facet normal -0.0 -0.0 1.0
  outer loop
    vertex 3.1058285412302573 11.591109915468818 25.999999999999996
    vertex 3.6534864937975158 9.30870756010947 25.999999999999996
    vertex 6.000000000000005 10.392304845413262 25.999999999999996
  endloop
endfacet
facet normal -0.0 -0.0 1.0
  outer loop
    vertex 6.000000000000005 10.392304845413262 25.999999999999996
    vertex 3.6534864937975158 9.30870756010947 25.999999999999996
    vertex 5.938267762203465 8.045929156062407 25.999999999999996
  endloop
endfacet
facet normal -0.0 -0.0 1.0
  outer loop
    vertex 6.000000000000005 10.392304845413262 25.999999999999996
    vertex 5.938267762203465 8.045929156062407 25.999999999999996
    vertex 7.818365896066718 6.234833976556304 25.999999999999996
  endloop
endfacet
facet normal -0.0 -0.0 1.0
  outer loop
    vertex 6.000000000000005 10.392304845413262 25.999999999999996
    vertex 7.818365896066718 6.234833976556304 25.999999999999996
    vertex 8.485281374238575 8.485281374238566 25.999999999999996
  endloop
endfacet
facet normal -0.0 -0.0 1.0
  outer loop
    vertex 8.485281374238575 8.485281374238566 25.999999999999996
    vertex 7.818365896066718 6.234833976556304 25.999999999999996
    vertex 8.587664508376331 4.9580904156212675 25.999999999999996
  endloop
endfacet
facet normal -0.0 -0.0 1.0
  outer loop
    vertex 8.485281374238575 8.485281374238566 25.999999999999996
    vertex 8.587664508376331 4.9580904156212675 25.999999999999996
    vertex 10.392304845413264 5.999999999999997 25.999999999999996
  endloop
endfacet
facet normal -0.3653486493797513 -0.9308707560109468 2.4558276715282864e-18
  outer loop
    vertex 3.6534864937975158 9.30870756010947 25.999999999999996
    vertex 1.1197261585111657 9.937112927301666 15.999999999999998
    vertex 3.6534864937975158 9.30870756010947 15.999999999999998
  endloop
endfacet
facet normal -0.11197261585111637 -0.9937112927301665 2.4558276715282714e-18
  outer loop
    vertex 1.1197261585111657 9.937112927301666 15.999999999999998
    vertex 3.6534864937975158 9.30870756010947 25.999999999999996
    vertex 2.566496453806122 9.578295163049768 25.999999999999996
  endloop
endfacet
facet normal -0.11197261585111637 -0.9937112927301665 2.4558276715282714e-18
  outer loop
    vertex 1.1197261585111657 9.937112927301666 15.999999999999998
    vertex 2.566496453806122 9.578295163049768 25.999999999999996
    vertex 1.1197261585111657 9.937112927301666 28.0
  endloop
endfacet
facet normal -0.11197261585111637 -0.9937112927301665 2.4558276715282714e-18
  outer loop
    vertex 1.1197261585111657 9.937112927301666 28.0
    vertex 2.566496453806122 9.578295163049768 25.999999999999996
    vertex 2.566496453806122 9.578295163049768 28.0
  endloop
endfacet
facet normal -0.5938267762203464 -0.8045929156062402 8.789589343232952e-32
  outer loop
    vertex 5.938267762203465 8.045929156062407 25.999999999999996
    vertex 3.6534864937975158 9.30870756010947 15.999999999999998
    vertex 5.938267762203465 8.045929156062407 15.999999999999998
  endloop
endfacet
facet normal -0.3653486493797513 -0.9308707560109468 2.4558276715282864e-18
  outer loop
    vertex 3.6534864937975158 9.30870756010947 15.999999999999998
    vertex 5.938267762203465 8.045929156062407 25.999999999999996
    vertex 3.6534864937975158 9.30870756010947 25.999999999999996
  endloop
endfacet
facet normal -0.7818365896066718 -0.6234833976556301 1.5179321550018394e-18
  outer loop
    vertex 7.818365896066718 6.234833976556304 25.999999999999996
    vertex 5.938267762203465 8.045929156062407 15.999999999999998
    vertex 7.818365896066718 6.234833976556304 15.999999999999998
  endloop
endfacet
facet normal -0.5938267762203464 -0.8045929156062402 8.789589343232952e-32
  outer loop
    vertex 5.938267762203465 8.045929156062407 15.999999999999998
    vertex 7.818365896066718 6.234833976556304 25.999999999999996
    vertex 5.938267762203465 8.045929156062407 25.999999999999996
  endloop
endfacet
facet normal -0.8565287830079688 -0.5160992577778892 3.0098920699812053e-18
  outer loop
    vertex 8.587664508376331 4.9580904156212675 28.0
    vertex 9.165655314573574 3.9988451650982038 15.999999999999998
    vertex 9.165655314573574 3.9988451650982038 28.0
  endloop
endfacet
facet normal -0.9165655314573569 -0.3998845165098204 1.5179321550018375e-18
  outer loop
    vertex 9.165655314573574 3.9988451650982038 15.999999999999998
    vertex 8.587664508376331 4.9580904156212675 28.0
    vertex 8.587664508376331 4.9580904156212675 25.999999999999996
  endloop
endfacet
facet normal -0.9165655314573569 -0.3998845165098204 1.5179321550018375e-18
  outer loop
    vertex 9.165655314573574 3.9988451650982038 15.999999999999998
    vertex 8.587664508376331 4.9580904156212675 25.999999999999996
    vertex 7.818365896066718 6.234833976556304 15.999999999999998
  endloop
endfacet
facet normal -0.7818365896066718 -0.6234833976556301 1.5179321550018394e-18
  outer loop
    vertex 7.818365896066718 6.234833976556304 15.999999999999998
    vertex 8.587664508376331 4.9580904156212675 25.999999999999996
    vertex 7.818365896066718 6.234833976556304 25.999999999999996
  endloop
endfacet
facet normal -0.9165655314573569 -0.3998845165098204 1.5179321550018375e-18
  outer loop
    vertex 9.165655314573574 3.9988451650982038 28.0
    vertex 9.888320470353817 1.4903416640427536 15.999999999999998
    vertex 9.888320470353817 1.4903416640427536 28.0
  endloop
endfacet
facet normal -0.9888320470353814 -0.1490341664042749 8.192263201063437e-32
  outer loop
    vertex 9.888320470353817 1.4903416640427536 15.999999999999998
    vertex 9.165655314573574 3.9988451650982038 28.0
    vertex 9.165655314573574 3.9988451650982038 15.999999999999998
  endloop
endfacet
facet normal -0.9888320470353814 -0.1490341664042749 8.192263201063437e-32
  outer loop
    vertex 9.888320470353817 1.4903416640427536 28.0
    vertex 9.937112927301664 -1.1197261585111615 15.999999999999998
    vertex 9.937112927301664 -1.1197261585111615 28.0
  endloop
endfacet
facet normal -0.9937112927301665 0.11197261585111654 -7.255854484060703e-18
  outer loop
    vertex 9.937112927301664 -1.1197261585111615 15.999999999999998
    vertex 9.888320470353817 1.4903416640427536 28.0
    vertex 9.888320470353817 1.4903416640427536 15.999999999999998
  endloop
endfacet
facet normal -0.9937112927301665 0.11197261585111654 -7.255854484060703e-18
  outer loop
    vertex 9.937112927301664 -1.1197261585111615 28.0
    vertex 9.578295163049766 -2.5664964538061166 25.999999999999996
    vertex 9.578295163049766 -2.5664964538061166 28.0
  endloop
endfacet
facet normal -0.9705945956864849 0.24072002580630672 -1.4387559286196285e-17
  outer loop
    vertex 9.578295163049766 -2.5664964538061166 25.999999999999996
    vertex 9.30870756010947 -3.653486493797508 15.999999999999998
    vertex 9.30870756010947 -3.653486493797508 25.999999999999996
  endloop
endfacet
facet normal -0.9308707560109468 0.3653486493797511 -7.255854484060722e-18
  outer loop
    vertex 9.30870756010947 -3.653486493797508 15.999999999999998
    vertex 9.578295163049766 -2.5664964538061166 25.999999999999996
    vertex 9.937112927301664 -1.1197261585111615 15.999999999999998
  endloop
endfacet
facet normal -0.9937112927301665 0.11197261585111654 -7.255854484060703e-18
  outer loop
    vertex 9.937112927301664 -1.1197261585111615 15.999999999999998
    vertex 9.578295163049766 -2.5664964538061166 25.999999999999996
    vertex 9.937112927301664 -1.1197261585111615 28.0
  endloop
endfacet
facet normal -0.9308707560109468 0.3653486493797511 -7.255854484060722e-18
  outer loop
    vertex 9.30870756010947 -3.653486493797508 25.999999999999996
    vertex 8.045929156062405 -5.938267762203463 15.999999999999998
    vertex 8.045929156062405 -5.938267762203463 25.999999999999996
  endloop
endfacet
facet normal -0.8045929156062406 0.593826776220346 2.796020382240988e-32
  outer loop
    vertex 8.045929156062405 -5.938267762203463 15.999999999999998
    vertex 9.30870756010947 -3.653486493797508 25.999999999999996
    vertex 9.30870756010947 -3.653486493797508 15.999999999999998
  endloop
endfacet
facet normal -0.8045929156062406 0.593826776220346 2.796020382240988e-32
  outer loop
    vertex 8.045929156062405 -5.938267762203463 25.999999999999996
    vertex 6.2348339765563034 -7.818365896066717 15.999999999999998
    vertex 6.2348339765563034 -7.818365896066717 25.999999999999996
  endloop
endfacet
facet normal -0.6234833976556305 0.7818365896066716 -9.613570315011379e-18
  outer loop
    vertex 6.2348339765563034 -7.818365896066717 15.999999999999998
    vertex 8.045929156062405 -5.938267762203463 25.999999999999996
    vertex 8.045929156062405 -5.938267762203463 15.999999999999998
  endloop
endfacet
facet normal -0.39988451650982065 0.916565531457357 -9.613570315011404e-18
  outer loop
    vertex 3.9988451650982064 -9.16565531457357 28.0
    vertex 6.2348339765563034 -7.818365896066717 15.999999999999998
    vertex 3.9988451650982064 -9.16565531457357 15.999999999999998
  endloop
endfacet
facet normal -0.6234833976556305 0.7818365896066716 -9.613570315011379e-18
  outer loop
    vertex 6.2348339765563034 -7.818365896066717 15.999999999999998
    vertex 3.9988451650982064 -9.16565531457357 28.0
    vertex 4.958090415621266 -8.58766450837633 25.999999999999996
  endloop
endfacet
facet normal -0.5160992577778893 0.8565287830079688 -1.9062649776547688e-17
  outer loop
    vertex 4.958090415621266 -8.58766450837633 25.999999999999996
    vertex 3.9988451650982064 -9.16565531457357 28.0
    vertex 4.958090415621266 -8.58766450837633 28.0
  endloop
endfacet
facet normal -0.6234833976556305 0.7818365896066716 -9.613570315011379e-18
  outer loop
    vertex 6.2348339765563034 -7.818365896066717 25.999999999999996
    vertex 6.2348339765563034 -7.818365896066717 15.999999999999998
    vertex 4.958090415621266 -8.58766450837633 25.999999999999996
  endloop
endfacet
facet normal -0.149034166404275 0.9888320470353814 -4.238093255826627e-32
  outer loop
    vertex 1.4903416640427485 -9.888320470353817 28.0
    vertex 3.9988451650982064 -9.16565531457357 15.999999999999998
    vertex 1.4903416640427485 -9.888320470353817 15.999999999999998
  endloop
endfacet
facet normal -0.39988451650982065 0.916565531457357 -9.613570315011404e-18
  outer loop
    vertex 3.9988451650982064 -9.16565531457357 15.999999999999998
    vertex 1.4903416640427485 -9.888320470353817 28.0
    vertex 3.9988451650982064 -9.16565531457357 28.0
  endloop
endfacet
facet normal 0.11197261585111598 0.9937112927301663 2.7348989978382795e-17
  outer loop
    vertex -1.1197261585111633 -9.937112927301664 28.0
    vertex 1.4903416640427485 -9.888320470353817 15.999999999999998
    vertex -1.1197261585111633 -9.937112927301664 15.999999999999998
  endloop
endfacet
facet normal -0.149034166404275 0.9888320470353814 -4.238093255826627e-32
  outer loop
    vertex 1.4903416640427485 -9.888320470353817 15.999999999999998
    vertex -1.1197261585111633 -9.937112927301664 28.0
    vertex 1.4903416640427485 -9.888320470353817 28.0
  endloop
endfacet
facet normal 0.36534864937975076 0.930870756010947 2.7348989978382783e-17
  outer loop
    vertex -3.6534864937975087 -9.308707560109472 25.999999999999996
    vertex -1.1197261585111633 -9.937112927301664 15.999999999999998
    vertex -3.6534864937975087 -9.308707560109472 15.999999999999998
  endloop
endfacet
facet normal 0.11197261585111598 0.9937112927301663 2.7348989978382795e-17
  outer loop
    vertex -1.1197261585111633 -9.937112927301664 15.999999999999998
    vertex -3.6534864937975087 -9.308707560109472 25.999999999999996
    vertex -2.5664964538061152 -9.57829516304977 25.999999999999996
  endloop
endfacet
facet normal 0.11197261585111598 0.9937112927301663 2.7348989978382795e-17
  outer loop
    vertex -1.1197261585111633 -9.937112927301664 15.999999999999998
    vertex -2.5664964538061152 -9.57829516304977 25.999999999999996
    vertex -1.1197261585111633 -9.937112927301664 28.0
  endloop
endfacet
facet normal 0.11197261585111598 0.9937112927301663 2.7348989978382795e-17
  outer loop
    vertex -1.1197261585111633 -9.937112927301664 28.0
    vertex -2.5664964538061152 -9.57829516304977 25.999999999999996
    vertex -2.5664964538061152 -9.57829516304977 28.0
  endloop
endfacet
facet normal 0.5938267762203463 0.8045929156062405 -8.789589343232953e-32
  outer loop
    vertex -5.9382677622034645 -8.045929156062407 25.999999999999996
    vertex -3.6534864937975087 -9.308707560109472 15.999999999999998
    vertex -5.9382677622034645 -8.045929156062407 15.999999999999998
  endloop
endfacet
facet normal 0.36534864937975076 0.930870756010947 2.7348989978382783e-17
  outer loop
    vertex -3.6534864937975087 -9.308707560109472 15.999999999999998
    vertex -5.9382677622034645 -8.045929156062407 25.999999999999996
    vertex -3.6534864937975087 -9.308707560109472 25.999999999999996
  endloop
endfacet
facet normal 0.7818365896066719 0.6234833976556301 3.0864620485036444e-17
  outer loop
    vertex -7.818365896066721 -6.234833976556302 25.999999999999996
    vertex -5.9382677622034645 -8.045929156062407 15.999999999999998
    vertex -7.818365896066721 -6.234833976556302 15.999999999999998
  endloop
endfacet
facet normal 0.5938267762203463 0.8045929156062405 -8.789589343232953e-32
  outer loop
    vertex -5.9382677622034645 -8.045929156062407 15.999999999999998
    vertex -7.818365896066721 -6.234833976556302 25.999999999999996
    vertex -5.9382677622034645 -8.045929156062407 25.999999999999996
  endloop
endfacet
facet normal 0.9165655314573573 0.39988451650981993 3.086462048503645e-17
  outer loop
    vertex -9.165655314573574 -3.9988451650982015 15.999999999999998
    vertex -7.818365896066721 -6.234833976556302 25.999999999999996
    vertex -7.818365896066721 -6.234833976556302 15.999999999999998
  endloop
endfacet
facet normal 0.7818365896066719 0.6234833976556301 3.0864620485036444e-17
  outer loop
    vertex -7.818365896066721 -6.234833976556302 25.999999999999996
    vertex -9.165655314573574 -3.9988451650982015 15.999999999999998
    vertex -8.587664508376331 -4.95809041562127 25.999999999999996
  endloop
endfacet
facet normal 0.8565287830079692 0.5160992577778883 6.120113875628454e-17
  outer loop
    vertex -8.587664508376331 -4.95809041562127 25.999999999999996
    vertex -9.165655314573574 -3.9988451650982015 15.999999999999998
    vertex -8.587664508376331 -4.95809041562127 28.0
  endloop
endfacet
facet normal 0.8565287830079692 0.5160992577778883 6.120113875628454e-17
  outer loop
    vertex -8.587664508376331 -4.95809041562127 28.0
    vertex -9.165655314573574 -3.9988451650982015 15.999999999999998
    vertex -9.165655314573574 -3.9988451650982015 28.0
  endloop
endfacet
facet normal 0.9888320470353814 0.1490341664042748 -8.192263201063435e-32
  outer loop
    vertex -9.888320470353817 -1.4903416640427494 15.999999999999998
    vertex -9.165655314573574 -3.9988451650982015 28.0
    vertex -9.165655314573574 -3.9988451650982015 15.999999999999998
  endloop
endfacet
facet normal 0.9165655314573573 0.39988451650981993 3.086462048503645e-17
  outer loop
    vertex -9.165655314573574 -3.9988451650982015 28.0
    vertex -9.888320470353817 -1.4903416640427494 15.999999999999998
    vertex -9.888320470353817 -1.4903416640427494 28.0
  endloop
endfacet
facet normal 0.9937112927301662 -0.11197261585111673 9.93493921663697e-18
  outer loop
    vertex -9.937112927301664 1.119726158511166 15.999999999999998
    vertex -9.888320470353817 -1.4903416640427494 28.0
    vertex -9.888320470353817 -1.4903416640427494 15.999999999999998
  endloop
endfacet
facet normal 0.9888320470353814 0.1490341664042748 -8.192263201063435e-32
  outer loop
    vertex -9.888320470353817 -1.4903416640427494 28.0
    vertex -9.937112927301664 1.119726158511166 15.999999999999998
    vertex -9.937112927301664 1.119726158511166 28.0
  endloop
endfacet
facet normal 0.9308707560109467 -0.3653486493797517 9.93493921663699e-18
  outer loop
    vertex -9.308707560109468 3.6534864937975127 15.999999999999998
    vertex -9.937112927301664 1.119726158511166 28.0
    vertex -9.937112927301664 1.119726158511166 15.999999999999998
  endloop
endfacet
facet normal 0.9937112927301662 -0.11197261585111673 9.93493921663697e-18
  outer loop
    vertex -9.937112927301664 1.119726158511166 28.0
    vertex -9.308707560109468 3.6534864937975127 15.999999999999998
    vertex -9.578295163049766 2.566496453806122 25.999999999999996
  endloop
endfacet
facet normal 0.9705945956864849 -0.24072002580630714 1.9699888868791824e-17
  outer loop
    vertex -9.578295163049766 2.566496453806122 25.999999999999996
    vertex -9.308707560109468 3.6534864937975127 15.999999999999998
    vertex -9.308707560109468 3.6534864937975127 25.999999999999996
  endloop
endfacet
facet normal 0.9705945956864849 -0.24072002580630714 1.9699888868791824e-17
  outer loop
    vertex -9.578295163049766 2.566496453806122 28.0
    vertex -9.937112927301664 1.119726158511166 28.0
    vertex -9.578295163049766 2.566496453806122 25.999999999999996
  endloop
endfacet
facet normal 0.8045929156062402 -0.5938267762203466 -2.7960203822409835e-32
  outer loop
    vertex -8.045929156062403 5.938267762203464 15.999999999999998
    vertex -9.308707560109468 3.6534864937975127 25.999999999999996
    vertex -9.308707560109468 3.6534864937975127 15.999999999999998
  endloop
endfacet
facet normal 0.9308707560109467 -0.3653486493797517 9.93493921663699e-18
  outer loop
    vertex -9.308707560109468 3.6534864937975127 25.999999999999996
    vertex -8.045929156062403 5.938267762203464 15.999999999999998
    vertex -8.045929156062403 5.938267762203464 25.999999999999996
  endloop
endfacet
facet normal 0.6234833976556303 -0.7818365896066717 -6.577706005007787e-18
  outer loop
    vertex -6.234833976556299 7.818365896066718 15.999999999999998
    vertex -8.045929156062403 5.938267762203464 25.999999999999996
    vertex -8.045929156062403 5.938267762203464 15.999999999999998
  endloop
endfacet
facet normal 0.8045929156062402 -0.5938267762203466 -2.7960203822409835e-32
  outer loop
    vertex -8.045929156062403 5.938267762203464 25.999999999999996
    vertex -6.234833976556299 7.818365896066718 15.999999999999998
    vertex -6.234833976556299 7.818365896066718 25.999999999999996
  endloop
endfacet
facet normal 0.3998845165098204 -0.916565531457357 -6.577706005007765e-18
  outer loop
    vertex -3.9988451650982006 9.165655314573574 28.0
    vertex -6.234833976556299 7.818365896066718 15.999999999999998
    vertex -3.9988451650982006 9.165655314573574 15.999999999999998
  endloop
endfacet
facet normal 0.6234833976556303 -0.7818365896066717 -6.577706005007787e-18
  outer loop
    vertex -6.234833976556299 7.818365896066718 15.999999999999998
    vertex -3.9988451650982006 9.165655314573574 28.0
    vertex -4.95809041562126 8.587664508376333 25.999999999999996
  endloop
endfacet
facet normal 0.5160992577778895 -0.8565287830079684 -1.3042865636585238e-17
  outer loop
    vertex -4.95809041562126 8.587664508376333 25.999999999999996
    vertex -3.9988451650982006 9.165655314573574 28.0
    vertex -4.95809041562126 8.587664508376333 28.0
  endloop
endfacet
facet normal 0.6234833976556303 -0.7818365896066717 -6.577706005007787e-18
  outer loop
    vertex -6.234833976556299 7.818365896066718 25.999999999999996
    vertex -6.234833976556299 7.818365896066718 15.999999999999998
    vertex -4.95809041562126 8.587664508376333 25.999999999999996
  endloop
endfacet
facet normal 0.14903416640427494 -0.9888320470353814 4.238093255826627e-32
  outer loop
    vertex -1.4903416640427467 9.888320470353817 28.0
    vertex -3.9988451650982006 9.165655314573574 15.999999999999998
    vertex -1.4903416640427467 9.888320470353817 15.999999999999998
  endloop
endfacet
facet normal 0.3998845165098204 -0.916565531457357 -6.577706005007765e-18
  outer loop
    vertex -3.9988451650982006 9.165655314573574 15.999999999999998
    vertex -1.4903416640427467 9.888320470353817 28.0
    vertex -3.9988451650982006 9.165655314573574 28.0
  endloop
endfacet
facet normal -0.11197261585111637 -0.9937112927301665 2.4558276715282714e-18
  outer loop
    vertex 1.1197261585111657 9.937112927301666 28.0
    vertex -1.4903416640427467 9.888320470353817 15.999999999999998
    vertex 1.1197261585111657 9.937112927301666 15.999999999999998
  endloop
endfacet
facet normal 0.14903416640427494 -0.9888320470353814 4.238093255826627e-32
  outer loop
    vertex -1.4903416640427467 9.888320470353817 15.999999999999998
    vertex 1.1197261585111657 9.937112927301666 28.0
    vertex -1.4903416640427467 9.888320470353817 28.0
  endloop
endfacet
facet normal 0.707106781186547 0.707106781186548 -6.306991105459073e-33
  outer loop
    vertex -5.480077554195743 -5.480077554195744 14.0
    vertex -3.8749999999999942 -6.711696879329402 0.0
    vertex -5.480077554195743 -5.480077554195744 0.0
  endloop
endfacet
facet normal 0.4999999999999995 0.8660254037844389 -3.6824105564801116e-19
  outer loop
    vertex -3.8749999999999942 -6.711696879329402 0.0
    vertex -5.480077554195743 -5.480077554195744 14.0
    vertex -3.8749999999999942 -6.711696879329402 14.0
  endloop
endfacet
facet normal 0.7071067811865477 -0.7071067811865475 5.651226001611398e-19
  outer loop
    vertex -5.480077554195743 5.480077554195743 0.0
    vertex -6.711696879329399 3.874999999999999 14.0
    vertex -6.711696879329399 3.874999999999999 0.0
  endloop
endfacet
facet normal 0.8660254037844387 -0.49999999999999994 2.0250966848397227e-18
  outer loop
    vertex -6.711696879329399 3.874999999999999 14.0
    vertex -5.480077554195743 5.480077554195743 0.0
    vertex -5.480077554195743 5.480077554195743 14.0
  endloop
endfacet
facet normal 0.2588190451025208 -0.9659258262890682 -1.2116947234429664e-19
  outer loop
    vertex -2.0058475995445373 7.485925153740279 14.0
    vertex -3.8750000000000004 6.711696879329399 0.0
    vertex -2.0058475995445373 7.485925153740279 0.0
  endloop
endfacet
facet normal 0.5000000000000001 -0.8660254037844386 -1.1047231669440296e-18
  outer loop
    vertex -3.8750000000000004 6.711696879329399 0.0
    vertex -2.0058475995445373 7.485925153740279 14.0
    vertex -3.8750000000000004 6.711696879329399 14.0
  endloop
endfacet
facet normal 0.4999999999999995 0.8660254037844389 -3.6824105564801116e-19
  outer loop
    vertex -3.8749999999999942 -6.711696879329402 14.0
    vertex -2.0058475995445324 -7.48592515374028 0.0
    vertex -3.8749999999999942 -6.711696879329402 0.0
  endloop
endfacet
facet normal 0.25881904510252046 0.9659258262890684 -2.3621616208123555e-19
  outer loop
    vertex -2.0058475995445324 -7.48592515374028 0.0
    vertex -3.8749999999999942 -6.711696879329402 14.0
    vertex -2.0058475995445324 -7.48592515374028 14.0
  endloop
endfacet
facet normal -0.5000000000000006 0.8660254037844384 1.4599740846785948e-18
  outer loop
    vertex 3.8750000000000036 -6.711696879329398 14.0
    vertex 5.480077554195747 -5.4800775541957405 0.0
    vertex 3.8750000000000036 -6.711696879329398 0.0
  endloop
endfacet
facet normal -0.707106781186548 0.7071067811865471 1.472964222592025e-18
  outer loop
    vertex 5.480077554195747 -5.4800775541957405 0.0
    vertex 3.8750000000000036 -6.711696879329398 14.0
    vertex 5.480077554195747 -5.4800775541957405 14.0
  endloop
endfacet
facet normal 0.9659258262890682 0.25881904510252113 5.853442972084907e-19
  outer loop
    vertex -7.485925153740277 -2.0058475995445417 0.0
    vertex -6.711696879329398 -3.8750000000000036 14.0
    vertex -6.711696879329398 -3.8750000000000036 0.0
  endloop
endfacet
facet normal 0.8660254037844386 0.5000000000000002 7.234919733825771e-19
  outer loop
    vertex -6.711696879329398 -3.8750000000000036 14.0
    vertex -7.485925153740277 -2.0058475995445417 0.0
    vertex -7.485925153740277 -2.0058475995445417 14.0
  endloop
endfacet
facet normal -0.9659258262890684 0.25881904510252046 -2.362161620812399e-19
  outer loop
    vertex 7.48592515374028 -2.005847599544533 14.0
    vertex 6.711696879329401 -3.8749999999999987 0.0
    vertex 6.711696879329401 -3.8749999999999987 14.0
  endloop
endfacet
facet normal -0.8660254037844388 0.4999999999999998 3.682410556479977e-19
  outer loop
    vertex 6.711696879329401 -3.8749999999999987 0.0
    vertex 7.48592515374028 -2.005847599544533 14.0
    vertex 7.48592515374028 -2.005847599544533 0.0
  endloop
endfacet
facet normal -0.2588190451025212 0.9659258262890682 4.641748248642198e-19
  outer loop
    vertex 2.0058475995445413 -7.485925153740277 14.0
    vertex 3.8750000000000036 -6.711696879329398 0.0
    vertex 2.0058475995445413 -7.485925153740277 0.0
  endloop
endfacet
facet normal -0.5000000000000006 0.8660254037844384 1.4599740846785948e-18
  outer loop
    vertex 3.8750000000000036 -6.711696879329398 0.0
    vertex 2.0058475995445413 -7.485925153740277 14.0
    vertex 3.8750000000000036 -6.711696879329398 14.0
  endloop
endfacet
facet normal 0.25881904510252046 0.9659258262890684 -2.3621616208123555e-19
  outer loop
    vertex -2.0058475995445324 -7.48592515374028 14.0
    vertex 1.4236519040087979e-15 -7.75 0.0
    vertex -2.0058475995445324 -7.48592515374028 0.0
  endloop
endfacet
facet normal -4.901110442605798e-16 1.0 -1.2729225495158735e-19
  outer loop
    vertex 1.4236519040087979e-15 -7.75 0.0
    vertex -2.0058475995445324 -7.48592515374028 14.0
    vertex 1.4236519040087979e-15 -7.75 14.0
  endloop
endfacet
facet normal -0.49999999999999967 -0.8660254037844388 2.5902192850008764e-18
  outer loop
    vertex 3.8749999999999987 6.711696879329401 14.0
    vertex 2.005847599544535 7.485925153740279 0.0
    vertex 3.8749999999999987 6.711696879329401 0.0
  endloop
endfacet
facet normal -0.2588190451025205 -0.9659258262890684 7.003909869454428e-19
  outer loop
    vertex 2.005847599544535 7.485925153740279 0.0
    vertex 3.8749999999999987 6.711696879329401 14.0
    vertex 2.005847599544535 7.485925153740279 14.0
  endloop
endfacet
facet normal 0.8660254037844386 0.5000000000000002 7.234919733825771e-19
  outer loop
    vertex -6.711696879329398 -3.8750000000000036 0.0
    vertex -5.480077554195743 -5.480077554195744 14.0
    vertex -5.480077554195743 -5.480077554195744 0.0
  endloop
endfacet
facet normal 0.707106781186547 0.707106781186548 -6.306991105459073e-33
  outer loop
    vertex -5.480077554195743 -5.480077554195744 14.0
    vertex -6.711696879329398 -3.8750000000000036 0.0
    vertex -6.711696879329398 -3.8750000000000036 14.0
  endloop
endfacet
facet normal 1.0 1.247555385390567e-16 5.752334486848058e-19
  outer loop
    vertex -7.75 0.0 0.0
    vertex -7.485925153740277 -2.0058475995445417 14.0
    vertex -7.485925153740277 -2.0058475995445417 0.0
  endloop
endfacet
facet normal 0.9659258262890682 0.25881904510252113 5.853442972084907e-19
  outer loop
    vertex -7.485925153740277 -2.0058475995445417 14.0
    vertex -7.75 0.0 0.0
    vertex -7.75 0.0 14.0
  endloop
endfacet
facet normal 0.9659258262890682 -0.25881904510252085 7.003909869454489e-19
  outer loop
    vertex -7.485925153740279 2.0058475995445355 0.0
    vertex -7.75 0.0 14.0
    vertex -7.75 0.0 0.0
  endloop
endfacet
facet normal 1.0 1.247555385390567e-16 5.752334486848058e-19
  outer loop
    vertex -7.75 0.0 14.0
    vertex -7.485925153740279 2.0058475995445355 0.0
    vertex -7.485925153740279 2.0058475995445355 14.0
  endloop
endfacet
facet normal -0.8660254037844386 -0.5000000000000002 1.299013791343424e-20
  outer loop
    vertex 6.711696879329398 3.8750000000000027 14.0
    vertex 7.485925153740279 2.0058475995445377 0.0
    vertex 7.485925153740279 2.0058475995445377 14.0
  endloop
endfacet
facet normal -0.9659258262890682 -0.2588190451025209 -4.764203900788588e-19
  outer loop
    vertex 7.485925153740279 2.0058475995445377 0.0
    vertex 6.711696879329398 3.8750000000000027 14.0
    vertex 6.711696879329398 3.8750000000000027 0.0
  endloop
endfacet
facet normal -4.901110442605798e-16 1.0 -1.2729225495158735e-19
  outer loop
    vertex 1.4236519040087979e-15 -7.75 14.0
    vertex 2.0058475995445413 -7.485925153740277 0.0
    vertex 1.4236519040087979e-15 -7.75 0.0
  endloop
endfacet
facet normal -0.2588190451025212 0.9659258262890682 4.641748248642198e-19
  outer loop
    vertex 2.0058475995445413 -7.485925153740277 0.0
    vertex 1.4236519040087979e-15 -7.75 14.0
    vertex 2.0058475995445413 -7.485925153740277 14.0
  endloop
endfacet
facet normal -1.0 -2.3168885728681954e-16 -3.57385634425524e-19
  outer loop
    vertex 7.75 9.491012693391988e-16 14.0
    vertex 7.48592515374028 -2.005847599544533 0.0
    vertex 7.48592515374028 -2.005847599544533 14.0
  endloop
endfacet
facet normal -0.9659258262890684 0.25881904510252046 -2.362161620812399e-19
  outer loop
    vertex 7.48592515374028 -2.005847599544533 0.0
    vertex 7.75 9.491012693391988e-16 14.0
    vertex 7.75 9.491012693391988e-16 0.0
  endloop
endfacet
facet normal -0.9659258262890682 -0.2588190451025209 -4.764203900788588e-19
  outer loop
    vertex 7.485925153740279 2.0058475995445377 14.0
    vertex 7.75 9.491012693391988e-16 0.0
    vertex 7.75 9.491012693391988e-16 14.0
  endloop
endfacet
facet normal -1.0 -2.3168885728681954e-16 -3.57385634425524e-19
  outer loop
    vertex 7.75 9.491012693391988e-16 0.0
    vertex 7.485925153740279 2.0058475995445377 14.0
    vertex 7.485925153740279 2.0058475995445377 0.0
  endloop
endfacet
facet normal 0.0 0.0 -1.0
  outer loop
    vertex -8.48528137423857 8.485281374238573 0.0
    vertex -7.485925153740279 2.0058475995445355 0.0
    vertex -7.75 0.0 0.0
  endloop
endfacet
facet normal 0.0 0.0 -1.0
  outer loop
    vertex -7.485925153740279 2.0058475995445355 0.0
    vertex -8.48528137423857 8.485281374238573 0.0
    vertex -5.999999999999991 10.39230484541327 0.0
  endloop
endfacet
facet normal 0.0 0.0 -1.0
  outer loop
    vertex -7.485925153740279 2.0058475995445355 0.0
    vertex -5.999999999999991 10.39230484541327 0.0
    vertex -6.711696879329399 3.874999999999999 0.0
  endloop
endfacet
facet normal 0.0 0.0 -1.0
  outer loop
    vertex -6.711696879329399 3.874999999999999 0.0
    vertex -5.999999999999991 10.39230484541327 0.0
    vertex -5.480077554195743 5.480077554195743 0.0
  endloop
endfacet
facet normal 0.0 0.0 -1.0
  outer loop
    vertex -5.480077554195743 5.480077554195743 0.0
    vertex -5.999999999999991 10.39230484541327 0.0
    vertex -3.105828541230243 11.59110991546882 0.0
  endloop
endfacet
facet normal 0.0 0.0 -1.0
  outer loop
    vertex -5.480077554195743 5.480077554195743 0.0
    vertex -3.105828541230243 11.59110991546882 0.0
    vertex -3.8750000000000004 6.711696879329399 0.0
  endloop
endfacet
facet normal 0.0 0.0 -1.0
  outer loop
    vertex -3.8750000000000004 6.711696879329399 0.0
    vertex -3.105828541230243 11.59110991546882 0.0
    vertex -2.0058475995445373 7.485925153740279 0.0
  endloop
endfacet
facet normal 0.0 0.0 -1.0
  outer loop
    vertex -2.0058475995445373 7.485925153740279 0.0
    vertex -3.105828541230243 11.59110991546882 0.0
    vertex 2.2043642384652354e-15 12.0 0.0
  endloop
endfacet
facet normal 0.0 0.0 -1.0
  outer loop
    vertex -2.0058475995445373 7.485925153740279 0.0
    vertex 2.2043642384652354e-15 12.0 0.0
    vertex -4.745506346695994e-16 7.75 0.0
  endloop
endfacet
facet normal 0.0 0.0 -1.0
  outer loop
    vertex -4.745506346695994e-16 7.75 0.0
    vertex 2.2043642384652354e-15 12.0 0.0
    vertex 2.005847599544535 7.485925153740279 0.0
  endloop
endfacet
facet normal 0.0 0.0 -1.0
  outer loop
    vertex 2.005847599544535 7.485925153740279 0.0
    vertex 2.2043642384652354e-15 12.0 0.0
    vertex 3.1058285412302573 11.591109915468818 0.0
  endloop
endfacet
facet normal 0.0 0.0 -1.0
  outer loop
    vertex 2.005847599544535 7.485925153740279 0.0
    vertex 3.1058285412302573 11.591109915468818 0.0
    vertex 3.8749999999999987 6.711696879329401 0.0
  endloop
endfacet
facet normal 0.0 0.0 -1.0
  outer loop
    vertex 3.8749999999999987 6.711696879329401 0.0
    vertex 3.1058285412302573 11.591109915468818 0.0
    vertex 6.000000000000005 10.392304845413262 0.0
  endloop
endfacet
facet normal 0.0 0.0 -1.0
  outer loop
    vertex 3.8749999999999987 6.711696879329401 0.0
    vertex 6.000000000000005 10.392304845413262 0.0
    vertex 5.480077554195743 5.480077554195743 0.0
  endloop
endfacet
facet normal 0.0 0.0 -1.0
  outer loop
    vertex 5.480077554195743 5.480077554195743 0.0
    vertex 6.000000000000005 10.392304845413262 0.0
    vertex 6.711696879329398 3.8750000000000027 0.0
  endloop
endfacet
facet normal 0.0 0.0 -1.0
  outer loop
    vertex 6.711696879329398 3.8750000000000027 0.0
    vertex 6.000000000000005 10.392304845413262 0.0
    vertex 8.485281374238575 8.485281374238566 0.0
  endloop
endfacet
facet normal 0.0 0.0 -1.0
  outer loop
    vertex 6.711696879329398 3.8750000000000027 0.0
    vertex 8.485281374238575 8.485281374238566 0.0
    vertex 7.485925153740279 2.0058475995445377 0.0
  endloop
endfacet
facet normal 0.0 0.0 -1.0
  outer loop
    vertex 7.485925153740279 2.0058475995445377 0.0
    vertex 8.485281374238575 8.485281374238566 0.0
    vertex 7.75 9.491012693391988e-16 0.0
  endloop
endfacet
facet normal 0.0 0.0 -1.0
  outer loop
    vertex 7.75 9.491012693391988e-16 0.0
    vertex 8.485281374238575 8.485281374238566 0.0
    vertex 8.48528137423857 -8.485281374238571 0.0
  endloop
endfacet
facet normal 0.0 0.0 -1.0
  outer loop
    vertex 8.48528137423857 -8.485281374238571 0.0
    vertex 8.485281374238575 8.485281374238566 0.0
    vertex 10.392304845413262 -6.000000000000004 0.0
  endloop
endfacet
facet normal 0.0 0.0 -1.0
  outer loop
    vertex 10.392304845413262 -6.000000000000004 0.0
    vertex 8.485281374238575 8.485281374238566 0.0
    vertex 10.392304845413264 5.999999999999997 0.0
  endloop
endfacet
facet normal 0.0 0.0 -1.0
  outer loop
    vertex 10.392304845413262 -6.000000000000004 0.0
    vertex 10.392304845413264 5.999999999999997 0.0
    vertex 11.591109915468818 -3.1058285412302524 0.0
  endloop
endfacet
facet normal 0.0 0.0 -1.0
  outer loop
    vertex 11.591109915468818 -3.1058285412302524 0.0
    vertex 10.392304845413264 5.999999999999997 0.0
    vertex 11.59110991546882 3.1058285412302444 0.0
  endloop
endfacet
facet normal 0.0 0.0 -1.0
  outer loop
    vertex 11.591109915468818 -3.1058285412302524 0.0
    vertex 11.59110991546882 3.1058285412302444 0.0
    vertex 12.0 -1.469576158976824e-15 0.0
  endloop
endfacet
facet normal 0.0 0.0 -1.0
  outer loop
    vertex -11.591109915468817 3.105828541230258 0.0
    vertex -11.59110991546882 -3.105828541230249 0.0
    vertex -12.0 0.0 0.0
  endloop
endfacet
facet normal 0.0 0.0 -1.0
  outer loop
    vertex -11.59110991546882 -3.105828541230249 0.0
    vertex -11.591109915468817 3.105828541230258 0.0
    vertex -10.392304845413262 -6.0 0.0
  endloop
endfacet
facet normal 0.0 0.0 -1.0
  outer loop
    vertex -10.392304845413262 -6.0 0.0
    vertex -11.591109915468817 3.105828541230258 0.0
    vertex -10.39230484541326 6.000000000000006 0.0
  endloop
endfacet
facet normal 0.0 0.0 -1.0
  outer loop
    vertex -10.392304845413262 -6.0 0.0
    vertex -10.39230484541326 6.000000000000006 0.0
    vertex -8.48528137423857 -8.48528137423857 0.0
  endloop
endfacet
facet normal 0.0 0.0 -1.0
  outer loop
    vertex -8.48528137423857 -8.48528137423857 0.0
    vertex -10.39230484541326 6.000000000000006 0.0
    vertex -8.48528137423857 8.485281374238573 0.0
  endloop
endfacet
facet normal 0.0 0.0 -1.0
  outer loop
    vertex -8.48528137423857 -8.48528137423857 0.0
    vertex -8.48528137423857 8.485281374238573 0.0
    vertex -7.75 0.0 0.0
  endloop
endfacet
facet normal 0.0 0.0 -1.0
  outer loop
    vertex -8.48528137423857 -8.48528137423857 0.0
    vertex -7.75 0.0 0.0
    vertex -7.485925153740277 -2.0058475995445417 0.0
  endloop
endfacet
facet normal 0.0 0.0 -1.0
  outer loop
    vertex -8.48528137423857 -8.48528137423857 0.0
    vertex -7.485925153740277 -2.0058475995445417 0.0
    vertex -6.000000000000001 -10.392304845413262 0.0
  endloop
endfacet
facet normal 0.0 0.0 -1.0
  outer loop
    vertex -6.000000000000001 -10.392304845413262 0.0
    vertex -7.485925153740277 -2.0058475995445417 0.0
    vertex -6.711696879329398 -3.8750000000000036 0.0
  endloop
endfacet
facet normal 0.0 0.0 -1.0
  outer loop
    vertex -6.000000000000001 -10.392304845413262 0.0
    vertex -6.711696879329398 -3.8750000000000036 0.0
    vertex -5.480077554195743 -5.480077554195744 0.0
  endloop
endfacet
facet normal 0.0 0.0 -1.0
  outer loop
    vertex -6.000000000000001 -10.392304845413262 0.0
    vertex -5.480077554195743 -5.480077554195744 0.0
    vertex -3.1058285412302515 -11.59110991546882 0.0
  endloop
endfacet
facet normal 0.0 0.0 -1.0
  outer loop
    vertex -3.1058285412302515 -11.59110991546882 0.0
    vertex -5.480077554195743 -5.480077554195744 0.0
    vertex -3.8749999999999942 -6.711696879329402 0.0
  endloop
endfacet
facet normal 0.0 0.0 -1.0
  outer loop
    vertex -3.1058285412302515 -11.59110991546882 0.0
    vertex -3.8749999999999942 -6.711696879329402 0.0
    vertex -2.0058475995445324 -7.48592515374028 0.0
  endloop
endfacet
facet normal 0.0 0.0 -1.0
  outer loop
    vertex -3.1058285412302515 -11.59110991546882 0.0
    vertex -2.0058475995445324 -7.48592515374028 0.0
    vertex -7.347880794884119e-16 -12.0 0.0
  endloop
endfacet
facet normal 0.0 0.0 -1.0
  outer loop
    vertex -7.347880794884119e-16 -12.0 0.0
    vertex -2.0058475995445324 -7.48592515374028 0.0
    vertex 1.4236519040087979e-15 -7.75 0.0
  endloop
endfacet
facet normal 0.0 0.0 -1.0
  outer loop
    vertex -7.347880794884119e-16 -12.0 0.0
    vertex 1.4236519040087979e-15 -7.75 0.0
    vertex 3.1058285412302475 -11.59110991546882 0.0
  endloop
endfacet
facet normal 0.0 0.0 -1.0
  outer loop
    vertex 3.1058285412302475 -11.59110991546882 0.0
    vertex 1.4236519040087979e-15 -7.75 0.0
    vertex 2.0058475995445413 -7.485925153740277 0.0
  endloop
endfacet
facet normal 0.0 0.0 -1.0
  outer loop
    vertex 3.1058285412302475 -11.59110991546882 0.0
    vertex 2.0058475995445413 -7.485925153740277 0.0
    vertex 3.8750000000000036 -6.711696879329398 0.0
  endloop
endfacet
facet normal 0.0 0.0 -1.0
  outer loop
    vertex 3.1058285412302475 -11.59110991546882 0.0
    vertex 3.8750000000000036 -6.711696879329398 0.0
    vertex 5.9999999999999964 -10.392304845413266 0.0
  endloop
endfacet
facet normal 0.0 0.0 -1.0
  outer loop
    vertex 5.9999999999999964 -10.392304845413266 0.0
    vertex 3.8750000000000036 -6.711696879329398 0.0
    vertex 5.480077554195747 -5.4800775541957405 0.0
  endloop
endfacet
facet normal 0.0 0.0 -1.0
  outer loop
    vertex 5.9999999999999964 -10.392304845413266 0.0
    vertex 5.480077554195747 -5.4800775541957405 0.0
    vertex 6.711696879329401 -3.8749999999999987 0.0
  endloop
endfacet
facet normal 0.0 0.0 -1.0
  outer loop
    vertex 5.9999999999999964 -10.392304845413266 0.0
    vertex 6.711696879329401 -3.8749999999999987 0.0
    vertex 8.48528137423857 -8.485281374238571 0.0
  endloop
endfacet
facet normal 0.0 0.0 -1.0
  outer loop
    vertex 8.48528137423857 -8.485281374238571 0.0
    vertex 6.711696879329401 -3.8749999999999987 0.0
    vertex 7.48592515374028 -2.005847599544533 0.0
  endloop
endfacet
facet normal 0.0 0.0 -1.0
  outer loop
    vertex 8.48528137423857 -8.485281374238571 0.0
    vertex 7.48592515374028 -2.005847599544533 0.0
    vertex 7.75 9.491012693391988e-16 0.0
  endloop
endfacet
facet normal 2.4059996718246644e-16 1.0 0.0
  outer loop
    vertex 2.204364238465236e-15 12.0 28.0
    vertex 3.1058285412302573 11.591109915468818 0.0
    vertex 2.2043642384652354e-15 12.0 0.0
  endloop
endfacet
facet normal 0.2588190451025212 0.9659258262890682 0.0
  outer loop
    vertex 3.1058285412302573 11.591109915468818 0.0
    vertex 2.204364238465236e-15 12.0 28.0
    vertex 3.1058285412302573 11.591109915468818 25.999999999999996
  endloop
endfacet
facet normal 0.2162220936568458 0.9763442047836665 0.0
  outer loop
    vertex 3.1058285412302573 11.591109915468818 25.999999999999996
    vertex 2.204364238465236e-15 12.0 28.0
    vertex 3.1058285412302573 11.591109915468818 28.0
  endloop
endfacet
facet normal 0.25881904510252063 -0.9659258262890682 0.0
  outer loop
    vertex 3.1058285412302475 -11.59110991546882 28.0
    vertex -7.347880794884119e-16 -12.0 0.0
    vertex 3.1058285412302475 -11.59110991546882 0.0
  endloop
endfacet
facet normal -1.6931108801729119e-16 -1.0 0.0
  outer loop
    vertex -7.347880794884119e-16 -12.0 0.0
    vertex 3.1058285412302475 -11.59110991546882 28.0
    vertex -7.347880794884111e-16 -12.0 28.0
  endloop
endfacet
facet normal 0.8660254037844385 -0.5000000000000002 0.0
  outer loop
    vertex 10.392304845413262 -6.000000000000004 0.0
    vertex 8.48528137423857 -8.485281374238571 25.999999999999996
    vertex 8.48528137423857 -8.485281374238571 0.0
  endloop
endfacet
facet normal 0.7071067811865472 -0.7071067811865477 0.0
  outer loop
    vertex 8.48528137423857 -8.485281374238571 25.999999999999996
    vertex 10.392304845413262 -6.000000000000004 0.0
    vertex 10.392304845413262 -6.000000000000004 25.999999999999996
  endloop
endfacet
facet normal -1.6931108801729119e-16 -1.0 0.0
  outer loop
    vertex -7.347880794884111e-16 -12.0 28.0
    vertex -3.1058285412302515 -11.59110991546882 0.0
    vertex -7.347880794884119e-16 -12.0 0.0
  endloop
endfacet
facet normal -0.2588190451025209 -0.9659258262890682 0.0
  outer loop
    vertex -3.1058285412302515 -11.59110991546882 0.0
    vertex -7.347880794884111e-16 -12.0 28.0
    vertex -3.1058285412302515 -11.59110991546882 25.999999999999996
  endloop
endfacet
facet normal -0.21622209365684555 -0.9763442047836665 0.0
  outer loop
    vertex -3.1058285412302515 -11.59110991546882 25.999999999999996
    vertex -7.347880794884111e-16 -12.0 28.0
    vertex -3.1058285412302515 -11.59110991546882 28.0
  endloop
endfacet
facet normal -0.0 -0.0 1.0
  outer loop
    vertex -9.888320470353817 -1.4903416640427494 15.999999999999998
    vertex -9.308707560109468 3.6534864937975127 15.999999999999998
    vertex -9.937112927301664 1.119726158511166 15.999999999999998
  endloop
endfacet
facet normal -0.0 -0.0 1.0
  outer loop
    vertex -9.308707560109468 3.6534864937975127 15.999999999999998
    vertex -9.888320470353817 -1.4903416640427494 15.999999999999998
    vertex -9.165655314573574 -3.9988451650982015 15.999999999999998
  endloop
endfacet
facet normal -0.0 -0.0 1.0
  outer loop
    vertex -9.308707560109468 3.6534864937975127 15.999999999999998
    vertex -9.165655314573574 -3.9988451650982015 15.999999999999998
    vertex -8.045929156062403 5.938267762203464 15.999999999999998
  endloop
endfacet
facet normal -0.0 -0.0 1.0
  outer loop
    vertex -8.045929156062403 5.938267762203464 15.999999999999998
    vertex -9.165655314573574 -3.9988451650982015 15.999999999999998
    vertex -7.818365896066721 -6.234833976556302 15.999999999999998
  endloop
endfacet
facet normal -0.0 -0.0 1.0
  outer loop
    vertex -8.045929156062403 5.938267762203464 15.999999999999998
    vertex -7.818365896066721 -6.234833976556302 15.999999999999998
    vertex -6.234833976556299 7.818365896066718 15.999999999999998
  endloop
endfacet
facet normal -0.0 -0.0 1.0
  outer loop
    vertex -6.234833976556299 7.818365896066718 15.999999999999998
    vertex -7.818365896066721 -6.234833976556302 15.999999999999998
    vertex -5.9382677622034645 -8.045929156062407 15.999999999999998
  endloop
endfacet
facet normal -0.0 -0.0 1.0
  outer loop
    vertex -6.234833976556299 7.818365896066718 15.999999999999998
    vertex -5.9382677622034645 -8.045929156062407 15.999999999999998
    vertex -3.9988451650982006 9.165655314573574 15.999999999999998
  endloop
endfacet
facet normal -0.0 -0.0 1.0
  outer loop
    vertex -3.9988451650982006 9.165655314573574 15.999999999999998
    vertex -5.9382677622034645 -8.045929156062407 15.999999999999998
    vertex -3.6534864937975087 -9.308707560109472 15.999999999999998
  endloop
endfacet
facet normal -0.0 -0.0 1.0
  outer loop
    vertex -3.9988451650982006 9.165655314573574 15.999999999999998
    vertex -3.6534864937975087 -9.308707560109472 15.999999999999998
    vertex -1.4903416640427467 9.888320470353817 15.999999999999998
  endloop
endfacet
facet normal -0.0 -0.0 1.0
  outer loop
    vertex -1.4903416640427467 9.888320470353817 15.999999999999998
    vertex -3.6534864937975087 -9.308707560109472 15.999999999999998
    vertex -1.1197261585111633 -9.937112927301664 15.999999999999998
  endloop
endfacet
facet normal -0.0 -0.0 1.0
  outer loop
    vertex -1.4903416640427467 9.888320470353817 15.999999999999998
    vertex -1.1197261585111633 -9.937112927301664 15.999999999999998
    vertex 1.1197261585111657 9.937112927301666 15.999999999999998
  endloop
endfacet
facet normal -0.0 -0.0 1.0
  outer loop
    vertex 1.1197261585111657 9.937112927301666 15.999999999999998
    vertex -1.1197261585111633 -9.937112927301664 15.999999999999998
    vertex 1.4903416640427485 -9.888320470353817 15.999999999999998
  endloop
endfacet
facet normal -0.0 -0.0 1.0
  outer loop
    vertex 1.1197261585111657 9.937112927301666 15.999999999999998
    vertex 1.4903416640427485 -9.888320470353817 15.999999999999998
    vertex 3.6534864937975158 9.30870756010947 15.999999999999998
  endloop
endfacet
facet normal -0.0 -0.0 1.0
  outer loop
    vertex 3.6534864937975158 9.30870756010947 15.999999999999998
    vertex 1.4903416640427485 -9.888320470353817 15.999999999999998
    vertex 3.9988451650982064 -9.16565531457357 15.999999999999998
  endloop
endfacet
facet normal -0.0 -0.0 1.0
  outer loop
    vertex 3.6534864937975158 9.30870756010947 15.999999999999998
    vertex 3.9988451650982064 -9.16565531457357 15.999999999999998
    vertex 5.938267762203465 8.045929156062407 15.999999999999998
  endloop
endfacet
facet normal -0.0 -0.0 1.0
  outer loop
    vertex 5.938267762203465 8.045929156062407 15.999999999999998
    vertex 3.9988451650982064 -9.16565531457357 15.999999999999998
    vertex 6.2348339765563034 -7.818365896066717 15.999999999999998
  endloop
endfacet
facet normal -0.0 -0.0 1.0
  outer loop
    vertex 5.938267762203465 8.045929156062407 15.999999999999998
    vertex 6.2348339765563034 -7.818365896066717 15.999999999999998
    vertex 7.818365896066718 6.234833976556304 15.999999999999998
  endloop
endfacet
facet normal -0.0 -0.0 1.0
  outer loop
    vertex 7.818365896066718 6.234833976556304 15.999999999999998
    vertex 6.2348339765563034 -7.818365896066717 15.999999999999998
    vertex 8.045929156062405 -5.938267762203463 15.999999999999998
  endloop
endfacet
facet normal -0.0 -0.0 1.0
  outer loop
    vertex 7.818365896066718 6.234833976556304 15.999999999999998
    vertex 8.045929156062405 -5.938267762203463 15.999999999999998
    vertex 9.165655314573574 3.9988451650982038 15.999999999999998
  endloop
endfacet
facet normal -0.0 -0.0 1.0
  outer loop
    vertex 9.165655314573574 3.9988451650982038 15.999999999999998
    vertex 8.045929156062405 -5.938267762203463 15.999999999999998
    vertex 9.30870756010947 -3.653486493797508 15.999999999999998
  endloop
endfacet
facet normal -0.0 -0.0 1.0
  outer loop
    vertex 9.165655314573574 3.9988451650982038 15.999999999999998
    vertex 9.30870756010947 -3.653486493797508 15.999999999999998
    vertex 9.888320470353817 1.4903416640427536 15.999999999999998
  endloop
endfacet
facet normal -0.0 -0.0 1.0
  outer loop
    vertex 9.888320470353817 1.4903416640427536 15.999999999999998
    vertex 9.30870756010947 -3.653486493797508 15.999999999999998
    vertex 9.937112927301664 -1.1197261585111615 15.999999999999998
  endloop
endfacet
facet normal -0.21622209365684555 -0.9763442047836665 0.0
  outer loop
    vertex -3.1058285412302515 -11.59110991546882 25.999999999999996
    vertex -6.000000000000001 -10.392304845413262 0.0
    vertex -3.1058285412302515 -11.59110991546882 0.0
  endloop
endfacet
facet normal -0.5000000000000001 -0.8660254037844386 0.0
  outer loop
    vertex -6.000000000000001 -10.392304845413262 0.0
    vertex -3.1058285412302515 -11.59110991546882 25.999999999999996
    vertex -6.000000000000001 -10.392304845413262 25.999999999999996
  endloop
endfacet
facet normal -0.5000000000000001 -0.8660254037844386 0.0
  outer loop
    vertex -6.000000000000001 -10.392304845413262 25.999999999999996
    vertex -8.48528137423857 -8.48528137423857 0.0
    vertex -6.000000000000001 -10.392304845413262 0.0
  endloop
endfacet
facet normal -0.7071067811865477 -0.7071067811865475 0.0
  outer loop
    vertex -8.48528137423857 -8.48528137423857 0.0
    vertex -6.000000000000001 -10.392304845413262 25.999999999999996
    vertex -8.48528137423857 -8.48528137423857 25.999999999999996
  endloop
endfacet
facet normal -0.8871136869378738 -0.46155097925092936 0.0
  outer loop
    vertex -10.392304845413262 -6.0 25.999999999999996
    vertex -8.48528137423857 -8.48528137423857 0.0
    vertex -8.48528137423857 -8.48528137423857 25.999999999999996
  endloop
endfacet
facet normal -0.7071067811865477 -0.7071067811865475 0.0
  outer loop
    vertex -8.48528137423857 -8.48528137423857 0.0
    vertex -10.392304845413262 -6.0 25.999999999999996
    vertex -10.392304845413262 -6.0 0.0
  endloop
endfacet
facet normal -0.9659258262890682 -0.25881904510252074 0.0
  outer loop
    vertex -11.59110991546882 -3.105828541230249 28.0
    vertex -10.392304845413262 -6.0 25.999999999999996
    vertex -10.392304845413262 -6.0 28.0
  endloop
endfacet
facet normal -0.8871136869378738 -0.46155097925092936 0.0
  outer loop
    vertex -10.392304845413262 -6.0 25.999999999999996
    vertex -11.59110991546882 -3.105828541230249 28.0
    vertex -10.392304845413262 -6.0 0.0
  endloop
endfacet
facet normal -0.8660254037844386 -0.5 0.0
  outer loop
    vertex -10.392304845413262 -6.0 0.0
    vertex -11.59110991546882 -3.105828541230249 28.0
    vertex -11.59110991546882 -3.105828541230249 0.0
  endloop
endfacet
facet normal 0.9659258262890682 -0.2588190451025208 0.0
  outer loop
    vertex 11.591109915468818 -3.1058285412302524 0.0
    vertex 10.392304845413262 -6.000000000000004 25.999999999999996
    vertex 10.392304845413262 -6.000000000000004 0.0
  endloop
endfacet
facet normal 0.8660254037844385 -0.5000000000000002 0.0
  outer loop
    vertex 10.392304845413262 -6.000000000000004 25.999999999999996
    vertex 11.591109915468818 -3.1058285412302524 0.0
    vertex 11.591109915468818 -3.1058285412302524 25.999999999999996
  endloop
endfacet
facet normal -0.0 -0.0 1.0
  outer loop
    vertex -9.578295163049766 2.566496453806122 25.999999999999996
    vertex -10.39230484541326 6.000000000000006 25.999999999999996
    vertex -11.591109915468817 3.105828541230258 25.999999999999996
  endloop
endfacet
facet normal -0.0 -0.0 1.0
  outer loop
    vertex -10.39230484541326 6.000000000000006 25.999999999999996
    vertex -9.578295163049766 2.566496453806122 25.999999999999996
    vertex -8.48528137423857 8.485281374238573 25.999999999999996
  endloop
endfacet
facet normal -0.0 -0.0 1.0
  outer loop
    vertex -8.48528137423857 8.485281374238573 25.999999999999996
    vertex -9.578295163049766 2.566496453806122 25.999999999999996
    vertex -9.308707560109468 3.6534864937975127 25.999999999999996
  endloop
endfacet
facet normal -0.0 -0.0 1.0
  outer loop
    vertex -8.48528137423857 8.485281374238573 25.999999999999996
    vertex -9.308707560109468 3.6534864937975127 25.999999999999996
    vertex -8.045929156062403 5.938267762203464 25.999999999999996
  endloop
endfacet
facet normal -0.0 -0.0 1.0
  outer loop
    vertex -8.48528137423857 8.485281374238573 25.999999999999996
    vertex -8.045929156062403 5.938267762203464 25.999999999999996
    vertex -5.999999999999991 10.39230484541327 25.999999999999996
  endloop
endfacet
facet normal -0.0 -0.0 1.0
  outer loop
    vertex -5.999999999999991 10.39230484541327 25.999999999999996
    vertex -8.045929156062403 5.938267762203464 25.999999999999996
    vertex -6.234833976556299 7.818365896066718 25.999999999999996
  endloop
endfacet
facet normal -0.0 -0.0 1.0
  outer loop
    vertex -5.999999999999991 10.39230484541327 25.999999999999996
    vertex -6.234833976556299 7.818365896066718 25.999999999999996
    vertex -4.95809041562126 8.587664508376333 25.999999999999996
  endloop
endfacet
facet normal 0.7071067811865472 -0.7071067811865477 0.0
  outer loop
    vertex 8.48528137423857 -8.485281374238571 25.999999999999996
    vertex 5.9999999999999964 -10.392304845413266 0.0
    vertex 8.48528137423857 -8.485281374238571 0.0
  endloop
endfacet
facet normal 0.4999999999999999 -0.8660254037844387 0.0
  outer loop
    vertex 5.9999999999999964 -10.392304845413266 0.0
    vertex 8.48528137423857 -8.485281374238571 25.999999999999996
    vertex 5.9999999999999964 -10.392304845413266 25.999999999999996
  endloop
endfacet
facet normal 0.46155097925092914 -0.8871136869378738 0.0
  outer loop
    vertex 5.9999999999999964 -10.392304845413266 25.999999999999996
    vertex 3.1058285412302475 -11.59110991546882 0.0
    vertex 5.9999999999999964 -10.392304845413266 0.0
  endloop
endfacet
facet normal 0.25881904510252063 -0.9659258262890682 0.0
  outer loop
    vertex 3.1058285412302475 -11.59110991546882 0.0
    vertex 5.9999999999999964 -10.392304845413266 25.999999999999996
    vertex 3.1058285412302475 -11.59110991546882 28.0
  endloop
endfacet
facet normal 0.25881904510252063 -0.9659258262890682 0.0
  outer loop
    vertex 3.1058285412302475 -11.59110991546882 28.0
    vertex 5.9999999999999964 -10.392304845413266 25.999999999999996
    vertex 5.9999999999999964 -10.392304845413266 28.0
  endloop
endfacet
facet normal 0.5000000000000006 0.8660254037844383 0.0
  outer loop
    vertex 6.000000000000005 10.392304845413262 25.999999999999996
    vertex 8.485281374238575 8.485281374238566 0.0
    vertex 6.000000000000005 10.392304845413262 0.0
  endloop
endfacet
facet normal 0.707106781186548 0.7071067811865471 0.0
  outer loop
    vertex 8.485281374238575 8.485281374238566 0.0
    vertex 6.000000000000005 10.392304845413262 25.999999999999996
    vertex 8.485281374238575 8.485281374238566 25.999999999999996
  endloop
endfacet
facet normal -0.2588190451025204 0.9659258262890684 0.0
  outer loop
    vertex -3.105828541230243 11.59110991546882 28.0
    vertex 2.2043642384652354e-15 12.0 0.0
    vertex -3.105828541230243 11.59110991546882 0.0
  endloop
endfacet
facet normal 2.4059996718246644e-16 1.0 0.0
  outer loop
    vertex 2.2043642384652354e-15 12.0 0.0
    vertex -3.105828541230243 11.59110991546882 28.0
    vertex 2.204364238465236e-15 12.0 28.0
  endloop
endfacet
facet normal -0.4615509792509286 0.8871136869378742 0.0
  outer loop
    vertex -5.999999999999991 10.39230484541327 25.999999999999996
    vertex -3.105828541230243 11.59110991546882 0.0
    vertex -5.999999999999991 10.39230484541327 0.0
  endloop
endfacet
facet normal -0.2588190451025204 0.9659258262890684 0.0
  outer loop
    vertex -3.105828541230243 11.59110991546882 0.0
    vertex -5.999999999999991 10.39230484541327 25.999999999999996
    vertex -3.105828541230243 11.59110991546882 28.0
  endloop
endfacet
facet normal -0.2588190451025204 0.9659258262890684 0.0
  outer loop
    vertex -3.105828541230243 11.59110991546882 28.0
    vertex -5.999999999999991 10.39230484541327 25.999999999999996
    vertex -5.999999999999991 10.39230484541327 28.0
  endloop
endfacet
facet normal 0.707106781186548 0.7071067811865471 0.0
  outer loop
    vertex 8.485281374238575 8.485281374238566 0.0
    vertex 10.392304845413264 5.999999999999997 25.999999999999996
    vertex 10.392304845413264 5.999999999999997 0.0
  endloop
endfacet
facet normal 0.8871136869378742 0.46155097925092886 0.0
  outer loop
    vertex 10.392304845413264 5.999999999999997 25.999999999999996
    vertex 8.485281374238575 8.485281374238566 0.0
    vertex 8.485281374238575 8.485281374238566 25.999999999999996
  endloop
endfacet
facet normal 0.2162220936568458 0.9763442047836665 0.0
  outer loop
    vertex 3.1058285412302573 11.591109915468818 25.999999999999996
    vertex 6.000000000000005 10.392304845413262 0.0
    vertex 3.1058285412302573 11.591109915468818 0.0
  endloop
endfacet
facet normal 0.5000000000000006 0.8660254037844383 0.0
  outer loop
    vertex 6.000000000000005 10.392304845413262 0.0
    vertex 3.1058285412302573 11.591109915468818 25.999999999999996
    vertex 6.000000000000005 10.392304845413262 25.999999999999996
  endloop
endfacet
facet normal -1.0 2.405999671824664e-16 0.0
  outer loop
    vertex -12.0 5.411689546820796e-31 28.0
    vertex -11.59110991546882 -3.105828541230249 0.0
    vertex -11.59110991546882 -3.105828541230249 28.0
  endloop
endfacet
facet normal -0.9659258262890682 -0.25881904510252074 0.0
  outer loop
    vertex -11.59110991546882 -3.105828541230249 0.0
    vertex -12.0 5.411689546820796e-31 28.0
    vertex -12.0 0.0 0.0
  endloop
endfacet
facet normal -0.7071067811865471 0.7071067811865478 0.0
  outer loop
    vertex -8.48528137423857 8.485281374238573 25.999999999999996
    vertex -10.39230484541326 6.000000000000006 0.0
    vertex -10.39230484541326 6.000000000000006 25.999999999999996
  endloop
endfacet
facet normal -0.8660254037844386 0.5000000000000003 0.0
  outer loop
    vertex -10.39230484541326 6.000000000000006 0.0
    vertex -8.48528137423857 8.485281374238573 25.999999999999996
    vertex -8.48528137423857 8.485281374238573 0.0
  endloop
endfacet
facet normal -0.7071067811865471 0.7071067811865478 0.0
  outer loop
    vertex -8.48528137423857 8.485281374238573 25.999999999999996
    vertex -5.999999999999991 10.39230484541327 0.0
    vertex -8.48528137423857 8.485281374238573 0.0
  endloop
endfacet
facet normal -0.49999999999999933 0.8660254037844392 0.0
  outer loop
    vertex -5.999999999999991 10.39230484541327 0.0
    vertex -8.48528137423857 8.485281374238573 25.999999999999996
    vertex -5.999999999999991 10.39230484541327 25.999999999999996
  endloop
endfacet
facet normal -1.0 2.405999671824664e-16 0.0
  outer loop
    vertex -12.0 5.411689546820796e-31 28.0
    vertex -11.591109915468817 3.105828541230258 0.0
    vertex -12.0 0.0 0.0
  endloop
endfacet
facet normal -0.9659258262890682 0.25881904510252113 0.0
  outer loop
    vertex -11.591109915468817 3.105828541230258 0.0
    vertex -12.0 5.411689546820796e-31 28.0
    vertex -11.591109915468817 3.105828541230258 28.0
  endloop
endfacet
facet normal -0.9659258262890682 0.25881904510252113 0.0
  outer loop
    vertex -11.591109915468817 3.105828541230258 0.0
    vertex -11.591109915468817 3.105828541230258 28.0
    vertex -11.591109915468817 3.105828541230258 25.999999999999996
  endloop
endfacet
facet normal -0.8660254037844386 0.5000000000000003 0.0
  outer loop
    vertex -10.39230484541326 6.000000000000006 25.999999999999996
    vertex -11.591109915468817 3.105828541230258 0.0
    vertex -11.591109915468817 3.105828541230258 25.999999999999996
  endloop
endfacet
facet normal -0.9659258262890682 0.25881904510252113 0.0
  outer loop
    vertex -11.591109915468817 3.105828541230258 0.0
    vertex -10.39230484541326 6.000000000000006 25.999999999999996
    vertex -10.39230484541326 6.000000000000006 0.0
  endloop
endfacet
facet normal 0.8660254037844389 0.49999999999999956 0.0
  outer loop
    vertex 10.392304845413264 5.999999999999997 0.0
    vertex 11.59110991546882 3.1058285412302444 28.0
    vertex 11.59110991546882 3.1058285412302444 0.0
  endloop
endfacet
facet normal 0.9659258262890684 0.25881904510252046 0.0
  outer loop
    vertex 11.59110991546882 3.1058285412302444 28.0
    vertex 10.392304845413264 5.999999999999997 0.0
    vertex 10.392304845413264 5.999999999999997 28.0
  endloop
endfacet
facet normal 0.9238795325112868 0.38268343236508934 0.0
  outer loop
    vertex 10.392304845413264 5.999999999999997 28.0
    vertex 10.392304845413264 5.999999999999997 0.0
    vertex 10.392304845413264 5.999999999999997 25.999999999999996
  endloop
endfacet
facet normal 0.9659258262890684 0.25881904510252046 0.0
  outer loop
    vertex 11.59110991546882 3.1058285412302444 0.0
    vertex 12.0 -1.4695761589768234e-15 28.0
    vertex 12.0 -1.469576158976824e-15 0.0
  endloop
endfacet
facet normal 1.0 -1.0693331874776287e-16 0.0
  outer loop
    vertex 12.0 -1.4695761589768234e-15 28.0
    vertex 11.59110991546882 3.1058285412302444 0.0
    vertex 11.59110991546882 3.1058285412302444 28.0
  endloop
endfacet
facet normal 1.0 -1.0693331874776287e-16 0.0
  outer loop
    vertex 12.0 -1.469576158976824e-15 0.0
    vertex 11.591109915468818 -3.1058285412302524 25.999999999999996
    vertex 11.591109915468818 -3.1058285412302524 0.0
  endloop
endfacet
facet normal 0.9763442047836667 -0.2162220936568455 0.0
  outer loop
    vertex 11.591109915468818 -3.1058285412302524 25.999999999999996
    vertex 12.0 -1.469576158976824e-15 0.0
    vertex 11.591109915468818 -3.1058285412302524 28.0
  endloop
endfacet
facet normal 0.9914448613738104 -0.13052619222005166 0.0
  outer loop
    vertex 11.591109915468818 -3.1058285412302524 28.0
    vertex 12.0 -1.469576158976824e-15 0.0
    vertex 12.0 -1.4695761589768234e-15 28.0
  endloop
endfacet
facet normal -0.8660254037844388 0.4999999999999998 3.682410556479977e-19
  outer loop
    vertex 6.711696879329401 -3.8749999999999987 14.0
    vertex 5.480077554195747 -5.4800775541957405 0.0
    vertex 5.480077554195747 -5.4800775541957405 14.0
  endloop
endfacet
facet normal -0.707106781186548 0.7071067811865471 1.472964222592025e-18
  outer loop
    vertex 5.480077554195747 -5.4800775541957405 0.0
    vertex 6.711696879329401 -3.8749999999999987 14.0
    vertex 6.711696879329401 -3.8749999999999987 0.0
  endloop
endfacet
facet normal -0.0 -0.0 1.0
  outer loop
    vertex -7.485925153740277 -2.0058475995445417 14.0
    vertex -7.485925153740279 2.0058475995445355 14.0
    vertex -7.75 0.0 14.0
  endloop
endfacet
facet normal -0.0 -0.0 1.0
  outer loop
    vertex -7.485925153740279 2.0058475995445355 14.0
    vertex -7.485925153740277 -2.0058475995445417 14.0
    vertex -6.711696879329399 3.874999999999999 14.0
  endloop
endfacet
facet normal -0.0 -0.0 1.0
  outer loop
    vertex -6.711696879329399 3.874999999999999 14.0
    vertex -7.485925153740277 -2.0058475995445417 14.0
    vertex -6.711696879329398 -3.8750000000000036 14.0
  endloop
endfacet
facet normal -0.0 -0.0 1.0
  outer loop
    vertex -6.711696879329399 3.874999999999999 14.0
    vertex -6.711696879329398 -3.8750000000000036 14.0
    vertex -5.480077554195743 5.480077554195743 14.0
  endloop
endfacet
facet normal -0.0 -0.0 1.0
  outer loop
    vertex -5.480077554195743 5.480077554195743 14.0
    vertex -6.711696879329398 -3.8750000000000036 14.0
    vertex -5.480077554195743 -5.480077554195744 14.0
  endloop
endfacet
facet normal -0.0 -0.0 1.0
  outer loop
    vertex -5.480077554195743 5.480077554195743 14.0
    vertex -5.480077554195743 -5.480077554195744 14.0
    vertex -3.8750000000000004 6.711696879329399 14.0
  endloop
endfacet
facet normal -0.0 -0.0 1.0
  outer loop
    vertex -3.8750000000000004 6.711696879329399 14.0
    vertex -5.480077554195743 -5.480077554195744 14.0
    vertex -3.8749999999999942 -6.711696879329402 14.0
  endloop
endfacet
facet normal -0.0 -0.0 1.0
  outer loop
    vertex -3.8750000000000004 6.711696879329399 14.0
    vertex -3.8749999999999942 -6.711696879329402 14.0
    vertex -2.0058475995445373 7.485925153740279 14.0
  endloop
endfacet
facet normal -0.0 -0.0 1.0
  outer loop
    vertex -2.0058475995445373 7.485925153740279 14.0
    vertex -3.8749999999999942 -6.711696879329402 14.0
    vertex -2.0058475995445324 -7.48592515374028 14.0
  endloop
endfacet
facet normal -0.0 -0.0 1.0
  outer loop
    vertex -2.0058475995445373 7.485925153740279 14.0
    vertex -2.0058475995445324 -7.48592515374028 14.0
    vertex -4.745506346695994e-16 7.75 14.0
  endloop
endfacet
facet normal -0.0 -0.0 1.0
  outer loop
    vertex -4.745506346695994e-16 7.75 14.0
    vertex -2.0058475995445324 -7.48592515374028 14.0
    vertex 1.4236519040087979e-15 -7.75 14.0
  endloop
endfacet
facet normal -0.0 -0.0 1.0
  outer loop
    vertex -4.745506346695994e-16 7.75 14.0
    vertex 1.4236519040087979e-15 -7.75 14.0
    vertex 2.005847599544535 7.485925153740279 14.0
  endloop
endfacet
facet normal -0.0 -0.0 1.0
  outer loop
    vertex 2.005847599544535 7.485925153740279 14.0
    vertex 1.4236519040087979e-15 -7.75 14.0
    vertex 2.0058475995445413 -7.485925153740277 14.0
  endloop
endfacet
facet normal -0.0 -0.0 1.0
  outer loop
    vertex 2.005847599544535 7.485925153740279 14.0
    vertex 2.0058475995445413 -7.485925153740277 14.0
    vertex 3.8749999999999987 6.711696879329401 14.0
  endloop
endfacet
facet normal -0.0 -0.0 1.0
  outer loop
    vertex 3.8749999999999987 6.711696879329401 14.0
    vertex 2.0058475995445413 -7.485925153740277 14.0
    vertex 3.8750000000000036 -6.711696879329398 14.0
  endloop
endfacet
facet normal -0.0 -0.0 1.0
  outer loop
    vertex 3.8749999999999987 6.711696879329401 14.0
    vertex 3.8750000000000036 -6.711696879329398 14.0
    vertex 5.480077554195743 5.480077554195743 14.0
  endloop
endfacet
facet normal -0.0 -0.0 1.0
  outer loop
    vertex 5.480077554195743 5.480077554195743 14.0
    vertex 3.8750000000000036 -6.711696879329398 14.0
    vertex 5.480077554195747 -5.4800775541957405 14.0
  endloop
endfacet
facet normal -0.0 -0.0 1.0
  outer loop
    vertex 5.480077554195743 5.480077554195743 14.0
    vertex 5.480077554195747 -5.4800775541957405 14.0
    vertex 6.711696879329398 3.8750000000000027 14.0
  endloop
endfacet
facet normal -0.0 -0.0 1.0
  outer loop
    vertex 6.711696879329398 3.8750000000000027 14.0
    vertex 5.480077554195747 -5.4800775541957405 14.0
    vertex 6.711696879329401 -3.8749999999999987 14.0
  endloop
endfacet
facet normal -0.0 -0.0 1.0
  outer loop
    vertex 6.711696879329398 3.8750000000000027 14.0
    vertex 6.711696879329401 -3.8749999999999987 14.0
    vertex 7.485925153740279 2.0058475995445377 14.0
  endloop
endfacet
facet normal -0.0 -0.0 1.0
  outer loop
    vertex 7.485925153740279 2.0058475995445377 14.0
    vertex 6.711696879329401 -3.8749999999999987 14.0
    vertex 7.48592515374028 -2.005847599544533 14.0
  endloop
endfacet
facet normal -0.0 -0.0 1.0
  outer loop
    vertex 7.485925153740279 2.0058475995445377 14.0
    vertex 7.48592515374028 -2.005847599544533 14.0
    vertex 7.75 9.491012693391988e-16 14.0
  endloop
endfacet
facet normal -0.7071067811865475 -0.7071067811865477 2.603209422914327e-18
  outer loop
    vertex 5.480077554195743 5.480077554195743 14.0
    vertex 6.711696879329398 3.8750000000000027 0.0
    vertex 6.711696879329398 3.8750000000000027 14.0
  endloop
endfacet
facet normal -0.8660254037844386 -0.5000000000000002 1.299013791343424e-20
  outer loop
    vertex 6.711696879329398 3.8750000000000027 0.0
    vertex 5.480077554195743 5.480077554195743 14.0
    vertex 5.480077554195743 5.480077554195743 0.0
  endloop
endfacet
facet normal -0.7071067811865475 -0.7071067811865477 2.603209422914327e-18
  outer loop
    vertex 5.480077554195743 5.480077554195743 14.0
    vertex 3.8749999999999987 6.711696879329401 0.0
    vertex 5.480077554195743 5.480077554195743 0.0
  endloop
endfacet
facet normal -0.49999999999999967 -0.8660254037844388 2.5902192850008764e-18
  outer loop
    vertex 3.8749999999999987 6.711696879329401 0.0
    vertex 5.480077554195743 5.480077554195743 14.0
    vertex 3.8749999999999987 6.711696879329401 14.0
  endloop
endfacet
facet normal -0.2588190451025205 -0.9659258262890684 7.003909869454428e-19
  outer loop
    vertex 2.005847599544535 7.485925153740279 14.0
    vertex -4.745506346695994e-16 7.75 0.0
    vertex 2.005847599544535 7.485925153740279 0.0
  endloop
endfacet
facet normal -4.455554947823453e-17 -1.0 2.239705968665997e-19
  outer loop
    vertex -4.745506346695994e-16 7.75 0.0
    vertex 2.005847599544535 7.485925153740279 14.0
    vertex -4.745506346695994e-16 7.75 14.0
  endloop
endfacet
facet normal 0.0 0.0 1.0
  outer loop
    vertex 11.591109915468818 -3.1058285412302524 28.0
    vertex 9.937112927301664 -1.1197261585111615 28.0
    vertex 9.578295163049766 -2.5664964538061166 28.0
  endloop
endfacet
facet normal 0.0 0.0 1.0
  outer loop
    vertex 9.937112927301664 -1.1197261585111615 28.0
    vertex 11.591109915468818 -3.1058285412302524 28.0
    vertex 10.392304845413264 5.999999999999997 28.0
  endloop
endfacet
facet normal 0.0 0.0 1.0
  outer loop
    vertex 10.392304845413264 5.999999999999997 28.0
    vertex 11.591109915468818 -3.1058285412302524 28.0
    vertex 11.59110991546882 3.1058285412302444 28.0
  endloop
endfacet
facet normal 0.0 0.0 1.0
  outer loop
    vertex 11.59110991546882 3.1058285412302444 28.0
    vertex 11.591109915468818 -3.1058285412302524 28.0
    vertex 12.0 -1.4695761589768234e-15 28.0
  endloop
endfacet
facet normal 0.0 0.0 1.0
  outer loop
    vertex 9.165655314573574 3.9988451650982038 28.0
    vertex 10.392304845413264 5.999999999999997 28.0
    vertex 8.587664508376331 4.9580904156212675 28.0
  endloop
endfacet
facet normal 0.0 0.0 1.0
  outer loop
    vertex 10.392304845413264 5.999999999999997 28.0
    vertex 9.165655314573574 3.9988451650982038 28.0
    vertex 9.888320470353817 1.4903416640427536 28.0
  endloop
endfacet
facet normal 0.0 0.0 1.0
  outer loop
    vertex 10.392304845413264 5.999999999999997 28.0
    vertex 9.888320470353817 1.4903416640427536 28.0
    vertex 9.937112927301664 -1.1197261585111615 28.0
  endloop
endfacet
facet normal -0.2588190451025211 -0.9659258262890682 -0.0
  outer loop
    vertex 11.591109915468818 -3.1058285412302524 28.0
    vertex 9.578295163049766 -2.5664964538061166 25.999999999999996
    vertex 11.591109915468818 -3.1058285412302524 25.999999999999996
  endloop
endfacet
facet normal -0.2588190451025211 -0.9659258262890682 -0.0
  outer loop
    vertex 9.578295163049766 -2.5664964538061166 25.999999999999996
    vertex 11.591109915468818 -3.1058285412302524 28.0
    vertex 9.578295163049766 -2.5664964538061166 28.0
  endloop
endfacet
facet normal -0.4999999999999999 0.8660254037844387 0.0
  outer loop
    vertex 8.587664508376331 4.9580904156212675 28.0
    vertex 10.392304845413264 5.999999999999997 25.999999999999996
    vertex 8.587664508376331 4.9580904156212675 25.999999999999996
  endloop
endfacet
facet normal -0.4999999999999999 0.8660254037844387 0.0
  outer loop
    vertex 10.392304845413264 5.999999999999997 25.999999999999996
    vertex 8.587664508376331 4.9580904156212675 28.0
    vertex 10.392304845413264 5.999999999999997 28.0
  endloop
endfacet
facet normal 0.2588190451025215 0.965925826289068 0.0
  outer loop
    vertex -11.591109915468817 3.105828541230258 28.0
    vertex -9.578295163049766 2.566496453806122 25.999999999999996
    vertex -11.591109915468817 3.105828541230258 25.999999999999996
  endloop
endfacet
facet normal 0.2588190451025215 0.965925826289068 0.0
  outer loop
    vertex -9.578295163049766 2.566496453806122 25.999999999999996
    vertex -11.591109915468817 3.105828541230258 28.0
    vertex -9.578295163049766 2.566496453806122 28.0
  endloop
endfacet
facet normal 0.0 0.0 1.0
  outer loop
    vertex -10.392304845413262 -6.0 28.0
    vertex -9.888320470353817 -1.4903416640427494 28.0
    vertex -9.937112927301664 1.119726158511166 28.0
  endloop
endfacet
facet normal 0.0 0.0 1.0
  outer loop
    vertex -9.888320470353817 -1.4903416640427494 28.0
    vertex -10.392304845413262 -6.0 28.0
    vertex -9.165655314573574 -3.9988451650982015 28.0
  endloop
endfacet
facet normal 0.0 0.0 1.0
  outer loop
    vertex -9.165655314573574 -3.9988451650982015 28.0
    vertex -10.392304845413262 -6.0 28.0
    vertex -8.587664508376331 -4.95809041562127 28.0
  endloop
endfacet
facet normal 0.0 0.0 1.0
  outer loop
    vertex -11.59110991546882 -3.105828541230249 28.0
    vertex -11.591109915468817 3.105828541230258 28.0
    vertex -12.0 5.411689546820796e-31 28.0
  endloop
endfacet
facet normal 0.0 0.0 1.0
  outer loop
    vertex -11.591109915468817 3.105828541230258 28.0
    vertex -11.59110991546882 -3.105828541230249 28.0
    vertex -10.392304845413262 -6.0 28.0
  endloop
endfacet
facet normal 0.0 0.0 1.0
  outer loop
    vertex -11.591109915468817 3.105828541230258 28.0
    vertex -10.392304845413262 -6.0 28.0
    vertex -9.937112927301664 1.119726158511166 28.0
  endloop
endfacet
facet normal 0.0 0.0 1.0
  outer loop
    vertex -11.591109915468817 3.105828541230258 28.0
    vertex -9.937112927301664 1.119726158511166 28.0
    vertex -9.578295163049766 2.566496453806122 28.0
  endloop
endfacet
facet normal 0.49999999999999994 -0.8660254037844387 0.0
  outer loop
    vertex -8.587664508376331 -4.95809041562127 28.0
    vertex -10.392304845413262 -6.0 25.999999999999996
    vertex -8.587664508376331 -4.95809041562127 25.999999999999996
  endloop
endfacet
facet normal 0.49999999999999994 -0.8660254037844387 0.0
  outer loop
    vertex -10.392304845413262 -6.0 25.999999999999996
    vertex -8.587664508376331 -4.95809041562127 28.0
    vertex -10.392304845413262 -6.0 28.0
  endloop
endfacet
facet normal -0.0 -0.0 1.0
  outer loop
    vertex 5.9999999999999964 -10.392304845413266 25.999999999999996
    vertex 6.2348339765563034 -7.818365896066717 25.999999999999996
    vertex 4.958090415621266 -8.58766450837633 25.999999999999996
  endloop
endfacet
facet normal -0.0 -0.0 1.0
  outer loop
    vertex 6.2348339765563034 -7.818365896066717 25.999999999999996
    vertex 5.9999999999999964 -10.392304845413266 25.999999999999996
    vertex 8.48528137423857 -8.485281374238571 25.999999999999996
  endloop
endfacet
facet normal -0.0 -0.0 1.0
  outer loop
    vertex 6.2348339765563034 -7.818365896066717 25.999999999999996
    vertex 8.48528137423857 -8.485281374238571 25.999999999999996
    vertex 8.045929156062405 -5.938267762203463 25.999999999999996
  endloop
endfacet
facet normal -0.0 -0.0 1.0
  outer loop
    vertex 8.045929156062405 -5.938267762203463 25.999999999999996
    vertex 8.48528137423857 -8.485281374238571 25.999999999999996
    vertex 9.30870756010947 -3.653486493797508 25.999999999999996
  endloop
endfacet
facet normal -0.0 -0.0 1.0
  outer loop
    vertex 9.30870756010947 -3.653486493797508 25.999999999999996
    vertex 8.48528137423857 -8.485281374238571 25.999999999999996
    vertex 10.392304845413262 -6.000000000000004 25.999999999999996
  endloop
endfacet
facet normal -0.0 -0.0 1.0
  outer loop
    vertex 9.30870756010947 -3.653486493797508 25.999999999999996
    vertex 10.392304845413262 -6.000000000000004 25.999999999999996
    vertex 9.578295163049766 -2.5664964538061166 25.999999999999996
  endloop
endfacet
facet normal -0.0 -0.0 1.0
  outer loop
    vertex 9.578295163049766 -2.5664964538061166 25.999999999999996
    vertex 10.392304845413262 -6.000000000000004 25.999999999999996
    vertex 11.591109915468818 -3.1058285412302524 25.999999999999996
  endloop
endfacet
facet normal 0.0 0.0 1.0
  outer loop
    vertex -4.95809041562126 8.587664508376333 28.0
    vertex -3.105828541230243 11.59110991546882 28.0
    vertex -5.999999999999991 10.39230484541327 28.0
  endloop
endfacet
facet normal 0.0 0.0 1.0
  outer loop
    vertex -3.105828541230243 11.59110991546882 28.0
    vertex -4.95809041562126 8.587664508376333 28.0
    vertex -3.9988451650982006 9.165655314573574 28.0
  endloop
endfacet
facet normal 0.0 0.0 1.0
  outer loop
    vertex -3.105828541230243 11.59110991546882 28.0
    vertex -3.9988451650982006 9.165655314573574 28.0
    vertex -1.4903416640427467 9.888320470353817 28.0
  endloop
endfacet
facet normal 0.0 0.0 1.0
  outer loop
    vertex -3.105828541230243 11.59110991546882 28.0
    vertex -1.4903416640427467 9.888320470353817 28.0
    vertex 2.204364238465236e-15 12.0 28.0
  endloop
endfacet
facet normal 0.0 0.0 1.0
  outer loop
    vertex 2.204364238465236e-15 12.0 28.0
    vertex -1.4903416640427467 9.888320470353817 28.0
    vertex 1.1197261585111657 9.937112927301666 28.0
  endloop
endfacet
facet normal 0.0 0.0 1.0
  outer loop
    vertex 2.204364238465236e-15 12.0 28.0
    vertex 1.1197261585111657 9.937112927301666 28.0
    vertex 3.1058285412302573 11.591109915468818 28.0
  endloop
endfacet
facet normal 0.0 0.0 1.0
  outer loop
    vertex 3.1058285412302573 11.591109915468818 28.0
    vertex 1.1197261585111657 9.937112927301666 28.0
    vertex 2.566496453806122 9.578295163049768 28.0
  endloop
endfacet
facet normal 0.9659258262890682 -0.2588190451025211 0.0
  outer loop
    vertex 3.1058285412302573 11.591109915468818 25.999999999999996
    vertex 2.566496453806122 9.578295163049768 28.0
    vertex 2.566496453806122 9.578295163049768 25.999999999999996
  endloop
endfacet
facet normal 0.9659258262890682 -0.2588190451025211 0.0
  outer loop
    vertex 2.566496453806122 9.578295163049768 28.0
    vertex 3.1058285412302573 11.591109915468818 25.999999999999996
    vertex 3.1058285412302573 11.591109915468818 28.0
  endloop
endfacet
facet normal 0.0 0.0 1.0
  outer loop
    vertex -7.347880794884111e-16 -12.0 28.0
    vertex -2.5664964538061152 -9.57829516304977 28.0
    vertex -3.1058285412302515 -11.59110991546882 28.0
  endloop
endfacet
facet normal 0.0 0.0 1.0
  outer loop
    vertex -2.5664964538061152 -9.57829516304977 28.0
    vertex -7.347880794884111e-16 -12.0 28.0
    vertex -1.1197261585111633 -9.937112927301664 28.0
  endloop
endfacet
facet normal 0.0 0.0 1.0
  outer loop
    vertex -1.1197261585111633 -9.937112927301664 28.0
    vertex -7.347880794884111e-16 -12.0 28.0
    vertex 1.4903416640427485 -9.888320470353817 28.0
  endloop
endfacet
facet normal 0.0 0.0 1.0
  outer loop
    vertex 1.4903416640427485 -9.888320470353817 28.0
    vertex -7.347880794884111e-16 -12.0 28.0
    vertex 3.1058285412302475 -11.59110991546882 28.0
  endloop
endfacet
facet normal 0.0 0.0 1.0
  outer loop
    vertex 1.4903416640427485 -9.888320470353817 28.0
    vertex 3.1058285412302475 -11.59110991546882 28.0
    vertex 3.9988451650982064 -9.16565531457357 28.0
  endloop
endfacet
facet normal 0.0 0.0 1.0
  outer loop
    vertex 3.9988451650982064 -9.16565531457357 28.0
    vertex 3.1058285412302475 -11.59110991546882 28.0
    vertex 5.9999999999999964 -10.392304845413266 28.0
  endloop
endfacet
facet normal 0.0 0.0 1.0
  outer loop
    vertex 3.9988451650982064 -9.16565531457357 28.0
    vertex 5.9999999999999964 -10.392304845413266 28.0
    vertex 4.958090415621266 -8.58766450837633 28.0
  endloop
endfacet
facet normal -0.8660254037844389 -0.49999999999999956 -0.0
  outer loop
    vertex -5.999999999999991 10.39230484541327 28.0
    vertex -4.95809041562126 8.587664508376333 25.999999999999996
    vertex -4.95809041562126 8.587664508376333 28.0
  endloop
endfacet
facet normal -0.8660254037844389 -0.49999999999999956 -0.0
  outer loop
    vertex -4.95809041562126 8.587664508376333 25.999999999999996
    vertex -5.999999999999991 10.39230484541327 28.0
    vertex -5.999999999999991 10.39230484541327 25.999999999999996
  endloop
endfacet
facet normal -0.9659258262890681 0.2588190451025214 0.0
  outer loop
    vertex -2.5664964538061152 -9.57829516304977 28.0
    vertex -3.1058285412302515 -11.59110991546882 25.999999999999996
    vertex -3.1058285412302515 -11.59110991546882 28.0
  endloop
endfacet
facet normal -0.9659258262890681 0.2588190451025214 0.0
  outer loop
    vertex -3.1058285412302515 -11.59110991546882 25.999999999999996
    vertex -2.5664964538061152 -9.57829516304977 28.0
    vertex -2.5664964538061152 -9.57829516304977 25.999999999999996
  endloop
endfacet
facet normal 0.8660254037844389 0.49999999999999956 0.0
  outer loop
    vertex 4.958090415621266 -8.58766450837633 25.999999999999996
    vertex 5.9999999999999964 -10.392304845413266 28.0
    vertex 5.9999999999999964 -10.392304845413266 25.999999999999996
  endloop
endfacet
facet normal 0.8660254037844389 0.49999999999999956 0.0
  outer loop
    vertex 5.9999999999999964 -10.392304845413266 28.0
    vertex 4.958090415621266 -8.58766450837633 25.999999999999996
    vertex 4.958090415621266 -8.58766450837633 28.0
  endloop
endfacet
endsolid MagneticPen2
