solid ServoHolder
facet normal 0.0 0.0 -1.0
  outer loop
    vertex 10.0 15.0 0.0
    vertex 12.0 13.000000000000002 0.0
    vertex 10.0 1.9999999999999998 0.0
  endloop
endfacet
facet normal 0.0 0.0 -1.0
  outer loop
    vertex 12.0 13.000000000000002 0.0
    vertex 10.0 15.0 0.0
    vertex 38.00000000000001 15.0 0.0
  endloop
endfacet
facet normal 0.0 0.0 -1.0
  outer loop
    vertex 12.0 13.000000000000002 0.0
    vertex 38.00000000000001 15.0 0.0
    vertex 36.0 13.000000000000002 0.0
  endloop
endfacet
facet normal 0.0 0.0 -1.0
  outer loop
    vertex 36.0 13.000000000000002 0.0
    vertex 38.00000000000001 15.0 0.0
    vertex 36.0 0.0 0.0
  endloop
endfacet
facet normal 0.0 0.0 -1.0
  outer loop
    vertex 36.0 0.0 0.0
    vertex 38.00000000000001 15.0 0.0
    vertex 38.00000000000001 1.9999999999999998 0.0
  endloop
endfacet
facet normal 0.0 0.0 -1.0
  outer loop
    vertex 36.0 0.0 0.0
    vertex 38.00000000000001 1.9999999999999998 0.0
    vertex 48.0 0.0 0.0
  endloop
endfacet
facet normal 0.0 0.0 -1.0
  outer loop
    vertex 48.0 0.0 0.0
    vertex 38.00000000000001 1.9999999999999998 0.0
    vertex 48.0 1.9999999999999998 0.0
  endloop
endfacet
facet normal 0.0 0.0 -1.0
  outer loop
    vertex 10.0 1.9999999999999998 0.0
    vertex 0.0 0.0 0.0
    vertex 0.0 1.9999999999999998 0.0
  endloop
endfacet
facet normal 0.0 0.0 -1.0
  outer loop
    vertex 0.0 0.0 0.0
    vertex 10.0 1.9999999999999998 0.0
    vertex 12.0 0.0 0.0
  endloop
endfacet
facet normal 0.0 0.0 -1.0
  outer loop
    vertex 12.0 0.0 0.0
    vertex 10.0 1.9999999999999998 0.0
    vertex 12.0 13.000000000000002 0.0
  endloop
endfacet
facet normal -0.0 -0.0 1.0
  outer loop
    vertex 36.0 0.0 17.0
    vertex 38.00000000000001 1.9999999999999998 17.0
    vertex 36.0 13.000000000000002 17.0
  endloop
endfacet
facet normal -0.0 -0.0 1.0
  outer loop
    vertex 38.00000000000001 1.9999999999999998 17.0
    vertex 36.0 0.0 17.0
    vertex 48.0 0.0 17.0
  endloop
endfacet
facet normal -0.0 -0.0 1.0
  outer loop
    vertex 38.00000000000001 1.9999999999999998 17.0
    vertex 48.0 0.0 17.0
    vertex 48.0 1.9999999999999998 17.0
  endloop
endfacet
facet normal -0.0 -0.0 1.0
  outer loop
    vertex 12.0 0.0 17.0
    vertex 0.0 1.9999999999999998 17.0
    vertex 0.0 0.0 17.0
  endloop
endfacet
facet normal -0.0 -0.0 1.0
  outer loop
    vertex 0.0 1.9999999999999998 17.0
    vertex 12.0 0.0 17.0
    vertex 10.0 1.9999999999999998 17.0
  endloop
endfacet
facet normal -0.0 -0.0 1.0
  outer loop
    vertex 10.0 1.9999999999999998 17.0
    vertex 12.0 0.0 17.0
    vertex 10.0 15.0 17.0
  endloop
endfacet
facet normal -0.0 -0.0 1.0
  outer loop
    vertex 10.0 15.0 17.0
    vertex 12.0 0.0 17.0
    vertex 12.0 13.000000000000002 17.0
  endloop
endfacet
facet normal -0.0 -0.0 1.0
  outer loop
    vertex 10.0 15.0 17.0
    vertex 12.0 13.000000000000002 17.0
    vertex 38.00000000000001 15.0 17.0
  endloop
endfacet
facet normal -0.0 -0.0 1.0
  outer loop
    vertex 38.00000000000001 15.0 17.0
    vertex 12.0 13.000000000000002 17.0
    vertex 36.0 13.000000000000002 17.0
  endloop
endfacet
facet normal -0.0 -0.0 1.0
  outer loop
    vertex 38.00000000000001 15.0 17.0
    vertex 36.0 13.000000000000002 17.0
    vertex 38.00000000000001 1.9999999999999998 17.0
  endloop
endfacet
facet normal 1.0 -0.0 -0.0
  outer loop
    vertex 3.0 1.9999999999999998 3.0
    vertex 3.0 0.0 14.0
    vertex 3.0 0.0 3.0
  endloop
endfacet
facet normal 1.0 -0.0 -0.0
  outer loop
    vertex 3.0 0.0 14.0
    vertex 3.0 1.9999999999999998 3.0
    vertex 3.0 1.9999999999999998 14.0
  endloop
endfacet
facet normal -1.0 0.0 0.0
  outer loop
    vertex 0.0 1.9999999999999998 17.0
    vertex 0.0 0.0 0.0
    vertex 0.0 0.0 17.0
  endloop
endfacet
facet normal -1.0 0.0 0.0
  outer loop
    vertex 0.0 0.0 0.0
    vertex 0.0 1.9999999999999998 17.0
    vertex 0.0 1.9999999999999998 0.0
  endloop
endfacet
facet normal -0.0 1.0 -0.0
  outer loop
    vertex 38.00000000000001 1.9999999999999998 0.0
    vertex 41.00000000000001 1.9999999999999998 3.0
    vertex 48.0 1.9999999999999998 0.0
  endloop
endfacet
facet normal -0.0 1.0 -0.0
  outer loop
    vertex 41.00000000000001 1.9999999999999998 3.0
    vertex 38.00000000000001 1.9999999999999998 0.0
    vertex 38.00000000000001 1.9999999999999998 17.0
  endloop
endfacet
facet normal -0.0 1.0 -0.0
  outer loop
    vertex 41.00000000000001 1.9999999999999998 3.0
    vertex 38.00000000000001 1.9999999999999998 17.0
    vertex 41.00000000000001 1.9999999999999998 14.0
  endloop
endfacet
facet normal -0.0 1.0 -0.0
  outer loop
    vertex 41.00000000000001 1.9999999999999998 14.0
    vertex 38.00000000000001 1.9999999999999998 17.0
    vertex 45.0 1.9999999999999998 14.0
  endloop
endfacet
facet normal -0.0 1.0 -0.0
  outer loop
    vertex 48.0 1.9999999999999998 0.0
    vertex 45.0 1.9999999999999998 3.0
    vertex 48.0 1.9999999999999998 17.0
  endloop
endfacet
facet normal -0.0 1.0 -0.0
  outer loop
    vertex 45.0 1.9999999999999998 3.0
    vertex 48.0 1.9999999999999998 0.0
    vertex 41.00000000000001 1.9999999999999998 3.0
  endloop
endfacet
facet normal -0.0 1.0 -0.0
  outer loop
    vertex 48.0 1.9999999999999998 17.0
    vertex 45.0 1.9999999999999998 3.0
    vertex 45.0 1.9999999999999998 14.0
  endloop
endfacet
facet normal -0.0 1.0 -0.0
  outer loop
    vertex 48.0 1.9999999999999998 17.0
    vertex 45.0 1.9999999999999998 14.0
    vertex 38.00000000000001 1.9999999999999998 17.0
  endloop
endfacet
facet normal 1.0 -0.0 -0.0
  outer loop
    vertex 38.00000000000001 15.0 0.0
    vertex 38.00000000000001 1.9999999999999998 17.0
    vertex 38.00000000000001 1.9999999999999998 0.0
  endloop
endfacet
facet normal 1.0 -0.0 -0.0
  outer loop
    vertex 38.00000000000001 1.9999999999999998 17.0
    vertex 38.00000000000001 15.0 0.0
    vertex 38.00000000000001 15.0 17.0
  endloop
endfacet
facet normal 1.0 -0.0 -0.0
  outer loop
    vertex 48.0 1.9999999999999998 0.0
    vertex 48.0 0.0 17.0
    vertex 48.0 0.0 0.0
  endloop
endfacet
facet normal 1.0 -0.0 -0.0
  outer loop
    vertex 48.0 0.0 17.0
    vertex 48.0 1.9999999999999998 0.0
    vertex 48.0 1.9999999999999998 17.0
  endloop
endfacet
facet normal -1.0 -0.0 -0.0
  outer loop
    vertex 7.0 1.9999999999999998 14.0
    vertex 7.0 0.0 3.0
    vertex 7.0 0.0 14.0
  endloop
endfacet
facet normal -1.0 -0.0 -0.0
  outer loop
    vertex 7.0 0.0 3.0
    vertex 7.0 1.9999999999999998 14.0
    vertex 7.0 1.9999999999999998 3.0
  endloop
endfacet
facet normal 0.0 -1.0 0.0
  outer loop
    vertex 48.0 0.0 0.0
    vertex 45.0 0.0 3.0
    vertex 36.0 0.0 0.0
  endloop
endfacet
facet normal 0.0 -1.0 0.0
  outer loop
    vertex 45.0 0.0 3.0
    vertex 48.0 0.0 0.0
    vertex 48.0 0.0 17.0
  endloop
endfacet
facet normal 0.0 -1.0 0.0
  outer loop
    vertex 45.0 0.0 3.0
    vertex 48.0 0.0 17.0
    vertex 45.0 0.0 14.0
  endloop
endfacet
facet normal 0.0 -1.0 0.0
  outer loop
    vertex 45.0 0.0 14.0
    vertex 48.0 0.0 17.0
    vertex 41.00000000000001 0.0 14.0
  endloop
endfacet
facet normal 0.0 -1.0 0.0
  outer loop
    vertex 36.0 0.0 0.0
    vertex 41.00000000000001 0.0 3.0
    vertex 36.0 0.0 17.0
  endloop
endfacet
facet normal 0.0 -1.0 0.0
  outer loop
    vertex 41.00000000000001 0.0 3.0
    vertex 36.0 0.0 0.0
    vertex 45.0 0.0 3.0
  endloop
endfacet
facet normal 0.0 -1.0 0.0
  outer loop
    vertex 36.0 0.0 17.0
    vertex 41.00000000000001 0.0 3.0
    vertex 41.00000000000001 0.0 14.0
  endloop
endfacet
facet normal 0.0 -1.0 0.0
  outer loop
    vertex 36.0 0.0 17.0
    vertex 41.00000000000001 0.0 14.0
    vertex 48.0 0.0 17.0
  endloop
endfacet
facet normal 0.0 0.0 0.9999999999999999
  outer loop
    vertex 7.0 0.0 3.0
    vertex 3.0 1.9999999999999998 3.0
    vertex 3.0 0.0 3.0
  endloop
endfacet
facet normal 0.0 0.0 0.9999999999999999
  outer loop
    vertex 3.0 1.9999999999999998 3.0
    vertex 7.0 0.0 3.0
    vertex 7.0 1.9999999999999998 3.0
  endloop
endfacet
facet normal 0.0 -0.0 -0.9999999999999999
  outer loop
    vertex 7.0 1.9999999999999998 14.0
    vertex 3.0 0.0 14.0
    vertex 3.0 1.9999999999999998 14.0
  endloop
endfacet
facet normal 0.0 -0.0 -0.9999999999999999
  outer loop
    vertex 3.0 0.0 14.0
    vertex 7.0 1.9999999999999998 14.0
    vertex 7.0 0.0 14.0
  endloop
endfacet
facet normal -0.0 1.0 -0.0
  outer loop
    vertex 0.0 1.9999999999999998 0.0
    vertex 3.0 1.9999999999999998 3.0
    vertex 10.0 1.9999999999999998 0.0
  endloop
endfacet
facet normal -0.0 1.0 -0.0
  outer loop
    vertex 3.0 1.9999999999999998 3.0
    vertex 0.0 1.9999999999999998 0.0
    vertex 0.0 1.9999999999999998 17.0
  endloop
endfacet
facet normal -0.0 1.0 -0.0
  outer loop
    vertex 3.0 1.9999999999999998 3.0
    vertex 0.0 1.9999999999999998 17.0
    vertex 3.0 1.9999999999999998 14.0
  endloop
endfacet
facet normal -0.0 1.0 -0.0
  outer loop
    vertex 3.0 1.9999999999999998 14.0
    vertex 0.0 1.9999999999999998 17.0
    vertex 7.0 1.9999999999999998 14.0
  endloop
endfacet
facet normal -0.0 1.0 -0.0
  outer loop
    vertex 10.0 1.9999999999999998 0.0
    vertex 7.0 1.9999999999999998 3.0
    vertex 10.0 1.9999999999999998 17.0
  endloop
endfacet
facet normal -0.0 1.0 -0.0
  outer loop
    vertex 7.0 1.9999999999999998 3.0
    vertex 10.0 1.9999999999999998 0.0
    vertex 3.0 1.9999999999999998 3.0
  endloop
endfacet
facet normal -0.0 1.0 -0.0
  outer loop
    vertex 10.0 1.9999999999999998 17.0
    vertex 7.0 1.9999999999999998 3.0
    vertex 7.0 1.9999999999999998 14.0
  endloop
endfacet
facet normal -0.0 1.0 -0.0
  outer loop
    vertex 10.0 1.9999999999999998 17.0
    vertex 7.0 1.9999999999999998 14.0
    vertex 0.0 1.9999999999999998 17.0
  endloop
endfacet
facet normal -1.0 0.0 0.0
  outer loop
    vertex 10.0 15.0 17.0
    vertex 10.0 1.9999999999999998 0.0
    vertex 10.0 1.9999999999999998 17.0
  endloop
endfacet
facet normal -1.0 0.0 0.0
  outer loop
    vertex 10.0 1.9999999999999998 0.0
    vertex 10.0 15.0 17.0
    vertex 10.0 15.0 0.0
  endloop
endfacet
facet normal -0.0 1.0 -0.0
  outer loop
    vertex 10.0 15.0 17.0
    vertex 38.00000000000001 15.0 0.0
    vertex 10.0 15.0 0.0
  endloop
endfacet
facet normal -0.0 1.0 -0.0
  outer loop
    vertex 38.00000000000001 15.0 0.0
    vertex 10.0 15.0 17.0
    vertex 38.00000000000001 15.0 17.0
  endloop
endfacet
facet normal -1.0 0.0 0.0
  outer loop
    vertex 36.0 13.000000000000002 17.0
    vertex 36.0 0.0 0.0
    vertex 36.0 0.0 17.0
  endloop
endfacet
facet normal -1.0 0.0 0.0
  outer loop
    vertex 36.0 0.0 0.0
    vertex 36.0 13.000000000000002 17.0
    vertex 36.0 13.000000000000002 0.0
  endloop
endfacet
facet normal -0.0 -0.9999999999999999 -0.0
  outer loop
    vertex 36.0 13.000000000000002 17.0
    vertex 12.0 13.000000000000002 0.0
    vertex 36.0 13.000000000000002 0.0
  endloop
endfacet
facet normal -0.0 -0.9999999999999999 -0.0
  outer loop
    vertex 12.0 13.000000000000002 0.0
    vertex 36.0 13.000000000000002 17.0
    vertex 12.0 13.000000000000002 17.0
  endloop
endfacet
facet normal 1.0 -0.0 -0.0
  outer loop
    vertex 41.00000000000001 1.9999999999999998 3.0
    vertex 41.00000000000001 0.0 14.0
    vertex 41.00000000000001 0.0 3.0
  endloop
endfacet
facet normal 1.0 -0.0 -0.0
  outer loop
    vertex 41.00000000000001 0.0 14.0
    vertex 41.00000000000001 1.9999999999999998 3.0
    vertex 41.00000000000001 1.9999999999999998 14.0
  endloop
endfacet
facet normal 0.0 -0.0 -1.0
  outer loop
    vertex 45.0 1.9999999999999998 14.0
    vertex 41.00000000000001 0.0 14.0
    vertex 41.00000000000001 1.9999999999999998 14.0
  endloop
endfacet
facet normal 0.0 -0.0 -1.0
  outer loop
    vertex 41.00000000000001 0.0 14.0
    vertex 45.0 1.9999999999999998 14.0
    vertex 45.0 0.0 14.0
  endloop
endfacet
facet normal 1.0 -0.0 -0.0
  outer loop
    vertex 12.0 13.000000000000002 0.0
    vertex 12.0 0.0 17.0
    vertex 12.0 0.0 0.0
  endloop
endfacet
facet normal 1.0 -0.0 -0.0
  outer loop
    vertex 12.0 0.0 17.0
    vertex 12.0 13.000000000000002 0.0
    vertex 12.0 13.000000000000002 17.0
  endloop
endfacet
facet normal -1.0 -0.0 -0.0
  outer loop
    vertex 45.0 1.9999999999999998 14.0
    vertex 45.0 0.0 3.0
    vertex 45.0 0.0 14.0
  endloop
endfacet
facet normal -1.0 -0.0 -0.0
  outer loop
    vertex 45.0 0.0 3.0
    vertex 45.0 1.9999999999999998 14.0
    vertex 45.0 1.9999999999999998 3.0
  endloop
endfacet
facet normal 0.0 0.0 1.0
  outer loop
    vertex 45.0 0.0 3.0
    vertex 41.00000000000001 1.9999999999999998 3.0
    vertex 41.00000000000001 0.0 3.0
  endloop
endfacet
facet normal 0.0 0.0 1.0
  outer loop
    vertex 41.00000000000001 1.9999999999999998 3.0
    vertex 45.0 0.0 3.0
    vertex 45.0 1.9999999999999998 3.0
  endloop
endfacet
facet normal 0.0 -1.0 0.0
  outer loop
    vertex 12.0 0.0 0.0
    vertex 7.0 0.0 3.0
    vertex 0.0 0.0 0.0
  endloop
endfacet
facet normal 0.0 -1.0 0.0
  outer loop
    vertex 7.0 0.0 3.0
    vertex 12.0 0.0 0.0
    vertex 12.0 0.0 17.0
  endloop
endfacet
facet normal 0.0 -1.0 0.0
  outer loop
    vertex 7.0 0.0 3.0
    vertex 12.0 0.0 17.0
    vertex 7.0 0.0 14.0
  endloop
endfacet
facet normal 0.0 -1.0 0.0
  outer loop
    vertex 7.0 0.0 14.0
    vertex 12.0 0.0 17.0
    vertex 3.0 0.0 14.0
  endloop
endfacet
facet normal 0.0 -1.0 0.0
  outer loop
    vertex 0.0 0.0 0.0
    vertex 3.0 0.0 3.0
    vertex 0.0 0.0 17.0
  endloop
endfacet
facet normal 0.0 -1.0 0.0
  outer loop
    vertex 3.0 0.0 3.0
    vertex 0.0 0.0 0.0
    vertex 7.0 0.0 3.0
  endloop
endfacet
facet normal 0.0 -1.0 0.0
  outer loop
    vertex 0.0 0.0 17.0
    vertex 3.0 0.0 3.0
    vertex 3.0 0.0 14.0
  endloop
endfacet
facet normal 0.0 -1.0 0.0
  outer loop
    vertex 0.0 0.0 17.0
    vertex 3.0 0.0 14.0
    vertex 12.0 0.0 17.0
  endloop
endfacet
endsolid ServoHolder
